<svg width="1232" height="309" viewBox="0 0 1232 309" fill="none" xmlns="http://www.w3.org/2000/svg">
<g clip-path="url(#clip0_272_792)">
<rect width="1232" height="309" rx="10" fill="#0057FF"/>
<path opacity="0.12" d="M-588.824 181.591C-334.454 176.855 -313.938 133.43 -148.583 155.289C16.8266 177.22 167.836 245.782 351.094 196.965C534.296 148.148 640.547 -7.99252 760.866 58.5294C881.184 125.051 877.014 219.697 981.375 209.06C1085.74 198.422 1202.27 94.4498 1284.73 93.5027C1355.73 92.7012 1290.73 187.056 1485.83 181.373" stroke="white" stroke-width="0.28" stroke-miterlimit="10"/>
<path opacity="0.25" d="M-579.598 190.626C-325.228 185.89 -311.606 98.53 -146.196 120.388C19.2143 142.319 172.392 269.753 355.65 220.936C538.852 172.119 639.099 -26.4264 759.361 40.0955C879.68 106.617 838.592 233.832 942.897 223.195C1047.26 212.557 1168.86 87.8195 1262.76 89.7139C1333.71 91.1711 1316.14 219.843 1511.18 195.726" stroke="white" stroke-width="0.31" stroke-miterlimit="10"/>
<path opacity="0.38" d="M-570.422 199.661C-316.052 194.925 -309.269 63.6298 -143.859 85.5609C21.5513 107.492 176.898 293.797 360.155 244.98C543.357 196.164 637.544 -44.7871 757.862 21.7348C878.181 88.2567 800.118 247.967 904.48 237.33C1008.84 226.692 1135.5 82.2092 1240.86 85.9251C1311.81 88.4753 1341.55 252.703 1536.54 210.08" stroke="white" stroke-width="0.34" stroke-miterlimit="10"/>
<path opacity="0.5" d="M-561.191 208.695C-306.821 203.96 -306.877 28.7294 -141.467 50.6605C23.9431 72.5916 181.458 317.768 364.715 268.951C547.917 220.135 636.099 -63.2209 756.417 3.30098C876.736 69.8229 761.755 262.102 866.116 251.465C970.478 240.827 1102.19 76.3804 1219.07 82.1364C1290.01 85.6337 1367.13 285.564 1562.06 224.433" stroke="white" stroke-width="0.38" stroke-miterlimit="10"/>
<path opacity="0.62" d="M-552.02 217.657C-297.65 212.922 -304.544 -6.24363 -139.134 15.6875C26.276 37.6185 185.959 341.666 369.161 292.85C552.419 244.033 634.484 -81.7275 754.803 -15.2057C875.121 51.3162 723.222 276.092 827.528 265.454C931.889 254.816 1068.66 70.2601 1196.99 78.2019C1267.88 82.5735 1392.37 318.205 1587.3 238.641" stroke="white" stroke-width="0.41" stroke-miterlimit="10"/>
<path opacity="0.75" d="M-542.844 226.692C-288.474 221.956 -302.207 -41.144 -136.853 -19.2129C28.5574 2.71816 190.409 365.638 373.611 316.821C556.813 268.004 632.929 -100.161 753.248 -33.6394C873.566 32.8824 684.693 290.154 789.054 279.589C893.415 268.951 1035.25 64.1397 1175.03 74.4859C1245.92 79.7319 1417.78 351.138 1612.66 253.068" stroke="white" stroke-width="0.44" stroke-miterlimit="10"/>
<path opacity="0.88" d="M-533.613 235.727C-279.243 230.991 -299.871 -76.0443 -134.461 -54.1132C30.949 -32.1821 194.969 389.609 378.171 340.792C561.373 291.975 631.485 -118.595 751.803 -52.0002C872.121 14.5217 646.33 304.362 750.691 293.724C855.052 283.087 1002 57.8009 1153.18 70.6973C1224.07 76.7447 1443.24 383.999 1638.12 267.421" stroke="white" stroke-width="0.47" stroke-miterlimit="10"/>
<path d="M-524.441 244.762C-270.071 240.026 -297.538 -110.945 -132.128 -89.0135C33.2821 -67.0824 199.47 413.58 382.672 364.764C565.874 315.947 629.926 -137.029 750.244 -70.4339C870.563 -3.91203 607.797 318.424 712.158 307.859C816.519 297.221 968.585 51.3893 1131.22 66.9087C1202.11 73.6847 1468.65 416.786 1663.47 281.775" stroke="white" stroke-width="0.5" stroke-miterlimit="10"/>
</g>
<defs>
<clipPath id="clip0_272_792">
<rect width="1232" height="309" rx="10" fill="white"/>
</clipPath>
</defs>
</svg>
