<svg width="26" height="31" viewBox="0 0 26 31" fill="none" xmlns="http://www.w3.org/2000/svg">
<g filter="url(#filter0_d_379_1971)">
<path d="M13 1.5C10.8128 1.50258 8.71584 2.3726 7.16922 3.91922C5.6226 5.46584 4.75258 7.56276 4.75 9.75C4.74738 11.5374 5.33124 13.2763 6.412 14.7C6.412 14.7 6.637 14.9963 6.67375 15.039L13 22.5L19.3293 15.0353C19.3623 14.9955 19.588 14.7 19.588 14.7L19.5888 14.6978C20.669 13.2747 21.2526 11.5366 21.25 9.75C21.2474 7.56276 20.3774 5.46584 18.8308 3.91922C17.2842 2.3726 15.1872 1.50258 13 1.5ZM13 12.75C12.4067 12.75 11.8266 12.5741 11.3333 12.2444C10.8399 11.9148 10.4554 11.4462 10.2284 10.8981C10.0013 10.3499 9.94189 9.74667 10.0576 9.16473C10.1734 8.58279 10.4591 8.04824 10.8787 7.62868C11.2982 7.20912 11.8328 6.9234 12.4147 6.80764C12.9967 6.69189 13.5999 6.7513 14.1481 6.97836C14.6962 7.20542 15.1648 7.58994 15.4944 8.08329C15.8241 8.57664 16 9.15666 16 9.75C15.999 10.5453 15.6826 11.3078 15.1202 11.8702C14.5578 12.4326 13.7953 12.749 13 12.75Z" fill="#555555"/>
</g>
<defs>
<filter id="filter0_d_379_1971" x="-3" y="0" width="32" height="32" filterUnits="userSpaceOnUse" color-interpolation-filters="sRGB">
<feFlood flood-opacity="0" result="BackgroundImageFix"/>
<feColorMatrix in="SourceAlpha" type="matrix" values="0 0 0 0 0 0 0 0 0 0 0 0 0 0 0 0 0 0 127 0" result="hardAlpha"/>
<feOffset dy="4"/>
<feGaussianBlur stdDeviation="2"/>
<feComposite in2="hardAlpha" operator="out"/>
<feColorMatrix type="matrix" values="0 0 0 0 0 0 0 0 0 0 0 0 0 0 0 0 0 0 0.25 0"/>
<feBlend mode="normal" in2="BackgroundImageFix" result="effect1_dropShadow_379_1971"/>
<feBlend mode="normal" in="SourceGraphic" in2="effect1_dropShadow_379_1971" result="shape"/>
</filter>
</defs>
</svg>
