<svg width="504" height="113" viewBox="0 0 504 113" fill="none" xmlns="http://www.w3.org/2000/svg">
<path d="M125.047 89H110.188L110.281 78.0312H125.047C128.734 78.0312 131.844 77.2031 134.375 75.5469C136.906 73.8594 138.812 71.4062 140.094 68.1875C141.406 64.9688 142.062 61.0781 142.062 56.5156V53.1875C142.062 49.6875 141.688 46.6094 140.938 43.9531C140.219 41.2969 139.141 39.0625 137.703 37.25C136.266 35.4375 134.5 34.0781 132.406 33.1719C130.312 32.2344 127.906 31.7656 125.188 31.7656H109.906V20.75H125.188C129.75 20.75 133.922 21.5313 137.703 23.0938C141.516 24.625 144.812 26.8281 147.594 29.7031C150.375 32.5781 152.516 36.0156 154.016 40.0156C155.547 43.9844 156.312 48.4062 156.312 53.2812V56.5156C156.312 61.3594 155.547 65.7812 154.016 69.7812C152.516 73.7812 150.375 77.2188 147.594 80.0938C144.844 82.9375 141.547 85.1406 137.703 86.7031C133.891 88.2344 129.672 89 125.047 89ZM118.156 20.75V89H104.094V20.75H118.156ZM200.743 77.5625V54.9688C200.743 53.3438 200.477 51.9531 199.946 50.7969C199.414 49.6094 198.586 48.6875 197.461 48.0312C196.368 47.375 194.946 47.0469 193.196 47.0469C191.696 47.0469 190.399 47.3125 189.305 47.8438C188.211 48.3438 187.368 49.0781 186.774 50.0469C186.18 50.9844 185.883 52.0938 185.883 53.375H172.383C172.383 51.2188 172.883 49.1719 173.883 47.2344C174.883 45.2969 176.336 43.5938 178.243 42.125C180.149 40.625 182.414 39.4531 185.039 38.6094C187.696 37.7656 190.664 37.3438 193.946 37.3438C197.883 37.3438 201.383 38 204.446 39.3125C207.508 40.625 209.914 42.5938 211.664 45.2188C213.446 47.8438 214.336 51.125 214.336 55.0625V76.7656C214.336 79.5469 214.508 81.8281 214.852 83.6094C215.196 85.3594 215.696 86.8906 216.352 88.2031V89H202.711C202.055 87.625 201.555 85.9062 201.211 83.8438C200.899 81.75 200.743 79.6562 200.743 77.5625ZM202.524 58.1094L202.618 65.75H195.071C193.289 65.75 191.743 65.9531 190.43 66.3594C189.118 66.7656 188.039 67.3438 187.196 68.0938C186.352 68.8125 185.727 69.6562 185.321 70.625C184.946 71.5938 184.758 72.6562 184.758 73.8125C184.758 74.9688 185.024 76.0156 185.555 76.9531C186.086 77.8594 186.852 78.5781 187.852 79.1094C188.852 79.6094 190.024 79.8594 191.368 79.8594C193.399 79.8594 195.164 79.4531 196.664 78.6406C198.164 77.8281 199.321 76.8281 200.133 75.6406C200.977 74.4531 201.414 73.3281 201.446 72.2656L205.008 77.9844C204.508 79.2656 203.821 80.5938 202.946 81.9688C202.102 83.3438 201.024 84.6406 199.711 85.8594C198.399 87.0469 196.821 88.0312 194.977 88.8125C193.133 89.5625 190.946 89.9375 188.414 89.9375C185.196 89.9375 182.274 89.2969 179.649 88.0156C177.055 86.7031 174.993 84.9062 173.461 82.625C171.961 80.3125 171.211 77.6875 171.211 74.75C171.211 72.0938 171.711 69.7344 172.711 67.6719C173.711 65.6094 175.18 63.875 177.118 62.4688C179.086 61.0312 181.539 59.9531 184.477 59.2344C187.414 58.4844 190.821 58.1094 194.696 58.1094H202.524ZM257.266 38.2812V47.8438H227.735V38.2812H257.266ZM235.048 25.7656H248.548V73.7188C248.548 75.1875 248.735 76.3125 249.11 77.0938C249.516 77.875 250.11 78.4219 250.891 78.7344C251.673 79.0156 252.657 79.1562 253.844 79.1562C254.688 79.1562 255.438 79.125 256.094 79.0625C256.782 78.9688 257.36 78.875 257.829 78.7812L257.876 88.7188C256.719 89.0938 255.469 89.3906 254.126 89.6094C252.782 89.8281 251.298 89.9375 249.673 89.9375C246.704 89.9375 244.11 89.4531 241.891 88.4844C239.704 87.4844 238.016 85.8906 236.829 83.7031C235.641 81.5156 235.048 78.6406 235.048 75.0781V25.7656ZM345.189 48.0312V108.5H331.689V38.2812H344.204L345.189 48.0312ZM377.298 63.0781V64.0625C377.298 67.75 376.861 71.1719 375.986 74.3281C375.142 77.4844 373.892 80.2344 372.236 82.5781C370.579 84.8906 368.517 86.7031 366.048 88.0156C363.611 89.2969 360.798 89.9375 357.611 89.9375C354.517 89.9375 351.829 89.3125 349.548 88.0625C347.267 86.8125 345.345 85.0625 343.783 82.8125C342.251 80.5312 341.017 77.8906 340.079 74.8906C339.142 71.8906 338.423 68.6719 337.923 65.2344V62.6562C338.423 58.9688 339.142 55.5938 340.079 52.5312C341.017 49.4375 342.251 46.7656 343.783 44.5156C345.345 42.2344 347.251 40.4688 349.501 39.2188C351.783 37.9688 354.454 37.3438 357.517 37.3438C360.736 37.3438 363.564 37.9531 366.001 39.1719C368.47 40.3906 370.533 42.1406 372.189 44.4219C373.876 46.7031 375.142 49.4219 375.986 52.5781C376.861 55.7344 377.298 59.2344 377.298 63.0781ZM363.751 64.0625V63.0781C363.751 60.9219 363.564 58.9375 363.189 57.125C362.845 55.2812 362.283 53.6719 361.501 52.2969C360.751 50.9219 359.751 49.8594 358.501 49.1094C357.283 48.3281 355.798 47.9375 354.048 47.9375C352.204 47.9375 350.626 48.2344 349.314 48.8281C348.033 49.4219 346.986 50.2812 346.173 51.4062C345.361 52.5312 344.751 53.875 344.345 55.4375C343.939 57 343.689 58.7656 343.595 60.7344V67.25C343.751 69.5625 344.189 71.6406 344.908 73.4844C345.626 75.2969 346.736 76.7344 348.236 77.7969C349.736 78.8594 351.704 79.3906 354.142 79.3906C355.923 79.3906 357.423 79 358.642 78.2188C359.861 77.4062 360.845 76.2969 361.595 74.8906C362.376 73.4844 362.923 71.8594 363.236 70.0156C363.579 68.1719 363.751 66.1875 363.751 64.0625ZM437.33 38.2812L445.721 53.7031L454.346 38.2812H468.736L454.392 63.0781L469.392 89H454.955L445.814 72.6875L436.674 89H422.236L437.236 63.0781L422.892 38.2812H437.33ZM497.229 17V89H483.682V17H497.229Z" fill="black"/>
<path d="M300.009 77.5625V54.9688C300.009 53.3438 299.743 51.9531 299.212 50.7969C298.681 49.6094 297.852 48.6875 296.727 48.0312C295.634 47.375 294.212 47.0469 292.462 47.0469C290.962 47.0469 289.665 47.3125 288.571 47.8438C287.477 48.3438 286.634 49.0781 286.04 50.0469C285.446 50.9844 285.149 52.0938 285.149 53.375H271.649C271.649 51.2188 272.149 49.1719 273.149 47.2344C274.149 45.2969 275.602 43.5938 277.509 42.125C279.415 40.625 281.681 39.4531 284.306 38.6094C286.962 37.7656 289.931 37.3438 293.212 37.3438C297.149 37.3438 300.649 38 303.712 39.3125C306.774 40.625 309.181 42.5938 310.931 45.2188C312.712 47.8438 313.602 51.125 313.602 55.0625V76.7656C313.602 79.5469 313.774 81.8281 314.118 83.6094C314.462 85.3594 314.962 86.8906 315.618 88.2031V89H301.977C301.321 87.625 300.821 85.9062 300.477 83.8438C300.165 81.75 300.009 79.6562 300.009 77.5625ZM301.79 58.1094L301.884 65.75H294.337C292.556 65.75 291.009 65.9531 289.696 66.3594C288.384 66.7656 287.306 67.3438 286.462 68.0938C285.618 68.8125 284.993 69.6562 284.587 70.625C284.212 71.5938 284.024 72.6562 284.024 73.8125C284.024 74.9688 284.29 76.0156 284.821 76.9531C285.352 77.8594 286.118 78.5781 287.118 79.1094C288.118 79.6094 289.29 79.8594 290.634 79.8594C292.665 79.8594 294.431 79.4531 295.931 78.6406C297.431 77.8281 298.587 76.8281 299.399 75.6406C300.243 74.4531 300.681 73.3281 300.712 72.2656L304.274 77.9844C303.774 79.2656 303.087 80.5938 302.212 81.9688C301.368 83.3438 300.29 84.6406 298.977 85.8594C297.665 87.0469 296.087 88.0312 294.243 88.8125C292.399 89.5625 290.212 89.9375 287.681 89.9375C284.462 89.9375 281.54 89.2969 278.915 88.0156C276.321 86.7031 274.259 84.9062 272.727 82.625C271.227 80.3125 270.477 77.6875 270.477 74.75C270.477 72.0938 270.977 69.7344 271.977 67.6719C272.977 65.6094 274.446 63.875 276.384 62.4688C278.352 61.0312 280.806 59.9531 283.743 59.2344C286.681 58.4844 290.087 58.1094 293.962 58.1094H301.79ZM407.619 38.2812V89H394.072V38.2812H407.619ZM393.228 25.0625C393.228 23.0938 393.916 21.4687 395.291 20.1875C396.666 18.9063 398.509 18.2656 400.822 18.2656C403.103 18.2656 404.931 18.9063 406.306 20.1875C407.712 21.4687 408.416 23.0938 408.416 25.0625C408.416 27.0312 407.712 28.6563 406.306 29.9375C404.931 31.2187 403.103 31.8594 400.822 31.8594C398.509 31.8594 396.666 31.2187 395.291 29.9375C393.916 28.6563 393.228 27.0312 393.228 25.0625Z" fill="#1A2AEA"/>
<ellipse cx="42.2641" cy="54.7309" rx="13.2236" ry="13.4048" fill="#1A2AEA"/>
<path d="M48.6113 39.2572L47.7572 40.6459L50.5346 42.3541L51.3887 40.9654L48.6113 39.2572ZM56.5862 29.4028C60.6766 31.9185 66.0319 30.6421 68.5476 26.5517C71.0634 22.4613 69.7869 17.106 65.6965 14.5902C61.6062 12.0745 56.2508 13.351 53.7351 17.4413C51.2193 21.5317 52.4958 26.887 56.5862 29.4028ZM51.3887 40.9654L62.53 22.8506L59.7527 21.1424L48.6113 39.2572L51.3887 40.9654Z" fill="#00AB1B"/>
<path d="M59.627 16.2817C61.3314 15.7267 62.5609 16.2817 60.7744 17.1094C60.3261 17.3171 59.1619 18.2662 59.1619 18.2662C59.1619 18.2662 58.0836 19.3418 57.3697 20.175C57.114 20.4733 56.6388 20.4348 56.6303 20.042C56.6015 18.7149 57.8871 16.8483 59.627 16.2817Z" fill="white"/>
<path d="M59.3522 56.8578L57.919 56.6433L57.49 59.5097L58.9232 59.7242L59.3522 56.8578ZM68.8663 59.7472C68.2344 63.9687 71.1444 67.9031 75.3659 68.535C79.5874 69.1669 83.5219 66.2569 84.1537 62.0354C84.7856 57.8139 81.8756 53.8795 77.6541 53.2476C73.4326 52.6157 69.4982 55.5257 68.8663 59.7472ZM58.9232 59.7242L76.2955 62.3245L76.7245 59.4581L59.3522 56.8578L58.9232 59.7242Z" fill="#FC3C00"/>
<path d="M77.1643 54.7509C78.6824 55.0251 79.388 55.947 77.6965 55.8461C77.272 55.8207 76.0027 56.0654 76.0027 56.0654C76.0027 56.0654 74.7468 56.4411 73.8661 56.7815C73.5507 56.9034 73.2062 56.6805 73.3599 56.3792C73.8791 55.3617 75.6146 54.471 77.1643 54.7509Z" fill="white"/>
<path d="M47.7635 71.5087L47.4636 70.0909L44.628 70.6907L44.9279 72.1085L47.7635 71.5087ZM48.3927 81.4856C44.2166 82.369 41.5473 86.4705 42.4307 90.6466C43.3141 94.8228 47.4156 97.4921 51.5917 96.6087C55.7679 95.7253 58.4372 91.6237 57.5538 87.4476C56.6704 83.2715 52.5688 80.6022 48.3927 81.4856ZM44.9279 72.1085L48.5744 89.347L51.41 88.7472L47.7635 71.5087L44.9279 72.1085Z" fill="#7145FF"/>
<path d="M46.4621 83.8674C47.8192 83.1942 48.9153 83.5074 47.5231 84.4188C47.1738 84.6474 46.3167 85.5839 46.3167 85.5839C46.3167 85.5839 45.5803 86.5798 45.0717 87.3735C44.8597 87.7043 44.3913 87.7236 44.3578 87.3321C44.261 86.2035 45.1262 84.5301 46.4621 83.8674Z" fill="white" stroke="white" stroke-width="0.181145" stroke-linecap="round"/>
<path d="M26.0874 61.9395L27.4644 61.4879L26.5611 58.7339L25.1841 59.1855L26.0874 61.9395ZM15.3717 63.929C14.0414 59.873 9.67497 57.6635 5.61902 58.9938C1.56308 60.3241 -0.646495 64.6905 0.683808 68.7464C2.01411 72.8024 6.38053 75.012 10.4365 73.6817C14.4924 72.3514 16.702 67.9849 15.3717 63.929ZM25.1841 59.1855L7.57611 64.9607L8.47939 67.7147L26.0874 61.9395L25.1841 59.1855Z" fill="#46D9E4"/>
<path d="M3.91651 64.4353L3.92036 64.4265L3.93679 64.3893C3.95109 64.357 3.97182 64.3104 3.99751 64.2535C4.0489 64.1397 4.12005 63.9846 4.19913 63.8193C4.35926 63.4847 4.546 63.1212 4.66698 62.9657C4.92398 62.6354 5.05802 62.3763 5.08156 62.1881C5.09365 62.0915 5.07786 62.0016 5.02038 61.9341C4.9632 61.8669 4.87927 61.839 4.79176 61.8345C4.62052 61.8257 4.39166 61.9034 4.14649 62.0424C3.89776 62.1834 3.62027 62.3943 3.34873 62.6686C2.81048 63.2123 2.47569 63.9437 2.33314 64.666C2.19083 65.3872 2.23803 66.1104 2.47705 66.6387C2.52525 66.7453 2.59799 66.82 2.68736 66.8586C2.77613 66.8968 2.87217 66.8954 2.96044 66.8667C3.13501 66.8099 3.28859 66.6447 3.34234 66.4269C3.45115 65.986 3.59497 65.4872 3.71179 65.098C3.77017 64.9035 3.82172 64.7367 3.85867 64.6185C3.87715 64.5594 3.89197 64.5124 3.90217 64.4803L3.91387 64.4435L3.91651 64.4353Z" fill="white" stroke="white" stroke-width="0.181145"/>
<path d="M28.5873 43.4628L29.6029 44.4966L31.6704 42.4655L30.6549 41.4317L28.5873 43.4628ZM25.0259 37.7697C28.0709 34.7783 28.1143 29.8848 25.1229 26.8399C22.1315 23.7949 17.2381 23.7514 14.1931 26.7428C11.1481 29.7342 11.1046 34.6277 14.096 37.6727C17.0874 40.7176 21.9809 40.7611 25.0259 37.7697ZM30.6549 41.4317L20.6432 31.2407L18.5757 33.2718L28.5873 43.4628L30.6549 41.4317Z" fill="#FBB500"/>
<path d="M16.569 26.434C17.9832 25.891 19.0451 26.3057 17.5736 27.0824C17.2043 27.2773 16.2631 28.1292 16.2631 28.1292C16.2631 28.1292 15.4773 28.9988 14.9135 29.7164C14.6707 30.0254 14.1998 30.0023 14.1994 29.6094C14.1984 28.4979 15.1799 26.9672 16.569 26.434Z" fill="white"/>
<path d="M35.8372 47.8382L35.842 47.8336L35.8751 47.8017C35.9039 47.7741 35.9456 47.7343 35.9969 47.6858C36.0996 47.5887 36.2407 47.457 36.3943 47.3181C36.7084 47.0342 37.0544 46.7396 37.2395 46.6336C37.6534 46.3965 37.9221 46.1736 38.0389 45.9665C38.0999 45.8586 38.1307 45.7342 38.0904 45.6107C38.0503 45.4882 37.9539 45.4091 37.8523 45.3612C37.6558 45.2685 37.3638 45.2537 37.0421 45.2945C36.7124 45.3363 36.3233 45.4403 35.9144 45.6136C35.0983 45.9596 34.4207 46.5946 33.9531 47.3015C33.487 48.0064 33.2174 48.8017 33.2414 49.48C33.2467 49.6288 33.2967 49.7583 33.3897 49.8534C33.4818 49.9475 33.6022 49.9938 33.723 50.0029C33.9605 50.0207 34.218 49.8988 34.3824 49.6739C34.6854 49.2596 35.0503 48.7992 35.3403 48.4414C35.4851 48.2627 35.6109 48.11 35.7005 48.0021C35.7453 47.9481 35.781 47.9053 35.8054 47.8761L35.8335 47.8426L35.8372 47.8382Z" fill="white" stroke="white" stroke-width="0.362291"/>
</svg>
