<svg width="18" height="19" viewBox="0 0 18 19" fill="none" xmlns="http://www.w3.org/2000/svg">
<path d="M10 5.48718C12.103 5.48718 13 6.38418 13 8.48718H15C15 5.26218 13.225 3.48718 10 3.48718V5.48718ZM13.422 10.9302C13.2299 10.7555 12.9774 10.6624 12.7178 10.6704C12.4583 10.6784 12.212 10.787 12.031 10.9732L9.63804 13.4342C9.06204 13.3242 7.90404 12.9632 6.71204 11.7742C5.52004 10.5812 5.15904 9.42018 5.05204 8.84818L7.51104 6.45418C7.69745 6.27331 7.80617 6.027 7.8142 5.76738C7.82223 5.50777 7.72892 5.25522 7.55404 5.06318L3.85904 1.00018C3.68408 0.807534 3.44092 0.690682 3.18119 0.674437C2.92146 0.658193 2.66564 0.743836 2.46804 0.913178L0.298038 2.77418C0.125149 2.94769 0.0219574 3.17863 0.00803782 3.42318C-0.00696218 3.67318 -0.292962 9.59518 4.29904 14.1892C8.30504 18.1942 13.323 18.4872 14.705 18.4872C14.907 18.4872 15.031 18.4812 15.064 18.4792C15.3086 18.4655 15.5394 18.3618 15.712 18.1882L17.572 16.0172C17.7415 15.8197 17.8273 15.564 17.8113 15.3042C17.7952 15.0445 17.6785 14.8013 17.486 14.6262L13.422 10.9302Z" fill="white"/>
</svg>
