<svg width="48" height="49" viewBox="0 0 48 49" fill="none" xmlns="http://www.w3.org/2000/svg">
<rect y="0.725586" width="48" height="48" rx="10" fill="#D1DEED"/>
<g clip-path="url(#clip0_805_7146)">
<path d="M24.0003 19.7256C23.3411 19.7256 22.6966 19.9211 22.1484 20.2874C21.6003 20.6536 21.173 21.1742 20.9207 21.7833C20.6684 22.3924 20.6024 23.0626 20.731 23.7092C20.8597 24.3558 21.1771 24.9498 21.6433 25.4159C22.1095 25.8821 22.7034 26.1996 23.35 26.3282C23.9966 26.4568 24.6669 26.3908 25.2759 26.1385C25.885 25.8862 26.4056 25.459 26.7719 24.9108C27.1382 24.3627 27.3337 23.7182 27.3337 23.0589C27.3337 22.1749 26.9825 21.327 26.3574 20.7019C25.7322 20.0768 24.8844 19.7256 24.0003 19.7256ZM24.0003 24.7256C23.6707 24.7256 23.3485 24.6278 23.0744 24.4447C22.8003 24.2616 22.5867 24.0013 22.4605 23.6967C22.3344 23.3922 22.3014 23.0571 22.3657 22.7338C22.43 22.4105 22.5887 22.1135 22.8218 21.8804C23.0549 21.6473 23.3519 21.4886 23.6752 21.4243C23.9985 21.36 24.3336 21.393 24.6381 21.5191C24.9427 21.6453 25.203 21.8589 25.3861 22.133C25.5692 22.4071 25.667 22.7293 25.667 23.0589C25.667 23.5009 25.4914 23.9249 25.1788 24.2374C24.8663 24.55 24.4424 24.7256 24.0003 24.7256Z" fill="#344054"/>
<path d="M23.9998 34.7258C23.2981 34.7294 22.6057 34.5648 21.9807 34.2458C21.3556 33.9269 20.8161 33.4628 20.4073 32.8925C17.2314 28.5116 15.6206 25.2183 15.6206 23.1033C15.6206 20.881 16.5034 18.7497 18.0748 17.1783C19.6462 15.6069 21.7775 14.7241 23.9998 14.7241C26.2221 14.7241 28.3533 15.6069 29.9247 17.1783C31.4961 18.7497 32.3789 20.881 32.3789 23.1033C32.3789 25.2183 30.7681 28.5116 27.5923 32.8925C27.1834 33.4628 26.6439 33.9269 26.0189 34.2458C25.3938 34.5648 24.7015 34.7294 23.9998 34.7258ZM23.9998 16.5433C22.2601 16.5453 20.5923 17.2372 19.3622 18.4673C18.132 19.6975 17.4401 21.3653 17.4381 23.105C17.4381 24.78 19.0156 27.8775 21.8789 31.8266C22.122 32.1614 22.4409 32.4339 22.8095 32.6218C23.1782 32.8097 23.586 32.9077 23.9998 32.9077C24.4135 32.9077 24.8214 32.8097 25.19 32.6218C25.5586 32.4339 25.8775 32.1614 26.1206 31.8266C28.9839 27.8775 30.5614 24.78 30.5614 23.105C30.5595 21.3653 29.8675 19.6975 28.6374 18.4673C27.4073 17.2372 25.7394 16.5453 23.9998 16.5433Z" fill="#344054"/>
</g>
<defs>
<clipPath id="clip0_805_7146">
<rect width="20" height="20" fill="white" transform="translate(14 14.7256)"/>
</clipPath>
</defs>
</svg>
