<svg width="48" height="49" viewBox="0 0 48 49" fill="none" xmlns="http://www.w3.org/2000/svg">
<rect y="0.725586" width="48" height="48" rx="10" fill="#D1DEED"/>
<g clip-path="url(#clip0_805_7159)">
<path d="M24.8335 15.559C24.8335 15.338 24.9213 15.1261 25.0775 14.9698C25.2338 14.8135 25.4458 14.7257 25.6668 14.7257C27.8762 14.7281 29.9944 15.6069 31.5567 17.1692C33.1189 18.7314 33.9977 20.8496 34.0001 23.059C34.0001 23.28 33.9123 23.492 33.756 23.6483C33.5998 23.8046 33.3878 23.8924 33.1668 23.8924C32.9458 23.8924 32.7338 23.8046 32.5775 23.6483C32.4213 23.492 32.3335 23.28 32.3335 23.059C32.3315 21.2915 31.6285 19.597 30.3786 18.3472C29.1288 17.0974 27.4343 16.3943 25.6668 16.3924C25.4458 16.3924 25.2338 16.3046 25.0775 16.1483C24.9213 15.992 24.8335 15.78 24.8335 15.559ZM25.6668 19.7257C26.5509 19.7257 27.3987 20.0769 28.0238 20.702C28.6489 21.3271 29.0001 22.175 29.0001 23.059C29.0001 23.28 29.0879 23.492 29.2442 23.6483C29.4005 23.8046 29.6125 23.8924 29.8335 23.8924C30.0545 23.8924 30.2664 23.8046 30.4227 23.6483C30.579 23.492 30.6668 23.28 30.6668 23.059C30.6655 21.7334 30.1383 20.4624 29.2009 19.525C28.2635 18.5876 26.9925 18.0604 25.6668 18.059C25.4458 18.059 25.2338 18.1468 25.0775 18.3031C24.9213 18.4594 24.8335 18.6713 24.8335 18.8924C24.8335 19.1134 24.9213 19.3253 25.0775 19.4816C25.2338 19.6379 25.4458 19.7257 25.6668 19.7257ZM33.2443 28.6749C33.7272 29.1591 33.9984 29.8151 33.9984 30.499C33.9984 31.1829 33.7272 31.8389 33.2443 32.3232L32.486 33.1974C25.661 39.7315 9.05266 23.1274 15.486 16.2807L16.4443 15.4474C16.9291 14.9779 17.5793 14.7182 18.2541 14.7245C18.9289 14.7307 19.5741 15.0024 20.0501 15.4807C20.076 15.5065 21.6201 17.5124 21.6201 17.5124C22.0783 17.9937 22.3334 18.6331 22.3323 19.2977C22.3312 19.9623 22.0741 20.6008 21.6143 21.0807L20.6493 22.294C21.1833 23.5916 21.9685 24.7709 22.9597 25.7641C23.9509 26.7573 25.1286 27.5449 26.4251 28.0815L27.646 27.1107C28.1259 26.6513 28.7644 26.3944 29.4287 26.3935C30.0931 26.3926 30.7323 26.6476 31.2135 27.1057C31.2135 27.1057 33.2185 28.649 33.2443 28.6749ZM32.0976 29.8865C32.0976 29.8865 30.1035 28.3524 30.0776 28.3265C29.906 28.1563 29.674 28.0608 29.4322 28.0608C29.1905 28.0608 28.9585 28.1563 28.7868 28.3265C28.7643 28.3499 27.0835 29.689 27.0835 29.689C26.9702 29.7792 26.8354 29.8383 26.6923 29.8605C26.5493 29.8827 26.4029 29.8673 26.2676 29.8157C24.588 29.1903 23.0624 28.2113 21.7942 26.9449C20.5259 25.6785 19.5446 24.1544 18.9168 22.4757C18.8611 22.3386 18.843 22.1891 18.8642 22.0426C18.8855 21.8962 18.9453 21.758 19.0376 21.6424C19.0376 21.6424 20.3768 19.9607 20.3993 19.939C20.5695 19.7674 20.665 19.5354 20.665 19.2936C20.665 19.0518 20.5695 18.8199 20.3993 18.6482C20.3735 18.6232 18.8393 16.6274 18.8393 16.6274C18.6651 16.4711 18.4376 16.3874 18.2037 16.3935C17.9697 16.3995 17.7469 16.4948 17.581 16.6599L16.6226 17.4932C11.921 23.1465 26.3135 36.7407 31.2676 32.059L32.0268 31.184C32.2047 31.0192 32.3115 30.7917 32.3248 30.5496C32.338 30.3075 32.2565 30.0697 32.0976 29.8865Z" fill="#344054"/>
</g>
<defs>
<clipPath id="clip0_805_7159">
<rect width="20" height="20" fill="white" transform="translate(14 14.7256)"/>
</clipPath>
</defs>
</svg>
