<svg width="48" height="49" viewBox="0 0 48 49" fill="none" xmlns="http://www.w3.org/2000/svg">
<rect y="0.725586" width="48" height="48" rx="10" fill="#D1DEED"/>
<g clip-path="url(#clip0_805_7153)">
<path d="M29.8333 15.5588H18.1667C17.062 15.5602 16.003 15.9996 15.2218 16.7807C14.4407 17.5618 14.0013 18.6208 14 19.7255V29.7255C14.0013 30.8302 14.4407 31.8892 15.2218 32.6703C16.003 33.4514 17.062 33.8908 18.1667 33.8922H29.8333C30.938 33.8908 31.997 33.4514 32.7782 32.6703C33.5593 31.8892 33.9987 30.8302 34 29.7255V19.7255C33.9987 18.6208 33.5593 17.5618 32.7782 16.7807C31.997 15.9996 30.938 15.5602 29.8333 15.5588ZM18.1667 17.2255H29.8333C30.3323 17.2265 30.8196 17.3768 31.2325 17.657C31.6453 17.9372 31.9649 18.3346 32.15 18.798L25.7683 25.1805C25.2987 25.6483 24.6628 25.9109 24 25.9109C23.3372 25.9109 22.7013 25.6483 22.2317 25.1805L15.85 18.798C16.0351 18.3346 16.3547 17.9372 16.7675 17.657C17.1804 17.3768 17.6677 17.2265 18.1667 17.2255ZM29.8333 32.2255H18.1667C17.5036 32.2255 16.8677 31.9621 16.3989 31.4933C15.9301 31.0244 15.6667 30.3885 15.6667 29.7255V20.9755L21.0533 26.3588C21.8355 27.139 22.8952 27.5772 24 27.5772C25.1048 27.5772 26.1645 27.139 26.9467 26.3588L32.3333 20.9755V29.7255C32.3333 30.3885 32.0699 31.0244 31.6011 31.4933C31.1323 31.9621 30.4964 32.2255 29.8333 32.2255Z" fill="#344054"/>
</g>
<defs>
<clipPath id="clip0_805_7153">
<rect width="20" height="20" fill="white" transform="translate(14 14.7256)"/>
</clipPath>
</defs>
</svg>
