<svg width="36" height="36" viewBox="0 0 36 36" fill="none" xmlns="http://www.w3.org/2000/svg">
<g filter="url(#filter0_d_129_2845)">
<path d="M14.004 7.99997C14.004 6.94016 14.425 5.92376 15.1744 5.17437C15.9238 4.42497 16.9402 4.00397 18 4.00397C19.0598 4.00397 20.0762 4.42497 20.8256 5.17437C21.575 5.92376 21.996 6.94016 21.996 7.99997C21.996 9.05977 21.575 10.0762 20.8256 10.8256C20.0762 11.575 19.0598 11.996 18 11.996C16.9402 11.996 15.9238 11.575 15.1744 10.8256C14.425 10.0762 14.004 9.05977 14.004 7.99997ZM18 6.00397C17.7379 6.00397 17.4783 6.05559 17.2362 6.1559C16.994 6.25621 16.774 6.40324 16.5886 6.58858C16.4033 6.77393 16.2562 6.99397 16.1559 7.23613C16.0556 7.4783 16.004 7.73785 16.004 7.99997C16.004 8.26209 16.0556 8.52164 16.1559 8.7638C16.2562 9.00597 16.4033 9.22601 16.5886 9.41135C16.774 9.5967 16.994 9.74372 17.2362 9.84403C17.4783 9.94434 17.7379 9.99597 18 9.99597C18.5294 9.99597 19.0371 9.78568 19.4114 9.41135C19.7857 9.03703 19.996 8.52934 19.996 7.99997C19.996 7.47059 19.7857 6.9629 19.4114 6.58858C19.0371 6.21426 18.5294 6.00397 18 6.00397ZM24 8.99997C24 8.606 24.0776 8.21589 24.2284 7.85192C24.3791 7.48794 24.6001 7.15722 24.8787 6.87865C25.1573 6.60007 25.488 6.37909 25.8519 6.22833C26.2159 6.07756 26.606 5.99997 27 5.99997C27.394 5.99997 27.7841 6.07756 28.1481 6.22833C28.512 6.37909 28.8427 6.60007 29.1213 6.87865C29.3999 7.15722 29.6209 7.48794 29.7716 7.85192C29.9224 8.21589 30 8.606 30 8.99997C30 9.79562 29.6839 10.5587 29.1213 11.1213C28.5587 11.6839 27.7956 12 27 12C26.2044 12 25.4413 11.6839 24.8787 11.1213C24.3161 10.5587 24 9.79562 24 8.99997ZM27 7.99997C26.7348 7.99997 26.4804 8.10532 26.2929 8.29286C26.1054 8.4804 26 8.73475 26 8.99997C26 9.26518 26.1054 9.51954 26.2929 9.70707C26.4804 9.89461 26.7348 9.99997 27 9.99997C27.2652 9.99997 27.5196 9.89461 27.7071 9.70707C27.8946 9.51954 28 9.26518 28 8.99997C28 8.73475 27.8946 8.4804 27.7071 8.29286C27.5196 8.10532 27.2652 7.99997 27 7.99997ZM9 5.99997C8.20435 5.99997 7.44129 6.31604 6.87868 6.87865C6.31607 7.44126 6 8.20432 6 8.99997C6 9.79562 6.31607 10.5587 6.87868 11.1213C7.44129 11.6839 8.20435 12 9 12C9.79565 12 10.5587 11.6839 11.1213 11.1213C11.6839 10.5587 12 9.79562 12 8.99997C12 8.20432 11.6839 7.44126 11.1213 6.87865C10.5587 6.31604 9.79565 5.99997 9 5.99997ZM8 8.99997C8 8.73475 8.10536 8.4804 8.29289 8.29286C8.48043 8.10532 8.73478 7.99997 9 7.99997C9.26522 7.99997 9.51957 8.10532 9.70711 8.29286C9.89464 8.4804 10 8.73475 10 8.99997C10 9.26518 9.89464 9.51954 9.70711 9.70707C9.51957 9.89461 9.26522 9.99997 9 9.99997C8.73478 9.99997 8.48043 9.89461 8.29289 9.70707C8.10536 9.51954 8 9.26518 8 8.99997ZM10.536 14C10.184 14.6077 9.99909 15.2977 10 16H6V21C5.99984 21.4974 6.12339 21.9871 6.35953 22.425C6.59568 22.8629 6.937 23.2351 7.35278 23.5083C7.76855 23.7814 8.24573 23.9469 8.74135 23.9898C9.23697 24.0327 9.73548 23.9516 10.192 23.754C10.34 24.416 10.572 25.048 10.872 25.638C10.1129 25.9445 9.29022 26.0599 8.47611 25.9741C7.66201 25.8883 6.88142 25.604 6.20288 25.146C5.52435 24.6881 4.96864 24.0705 4.58455 23.3476C4.20045 22.6247 3.99973 21.8186 4 21V16C4 15.4695 4.21071 14.9608 4.58579 14.5858C4.96086 14.2107 5.46957 14 6 14H10.536ZM25.128 25.638C25.8871 25.9445 26.7098 26.0599 27.5239 25.9741C28.338 25.8883 29.1186 25.604 29.7971 25.146C30.4756 24.6881 31.0314 24.0705 31.4155 23.3476C31.7995 22.6247 32.0003 21.8186 32 21V16C32 15.4695 31.7893 14.9608 31.4142 14.5858C31.0391 14.2107 30.5304 14 30 14H25.464C25.804 14.588 26 15.27 26 16H30V21C30.0002 21.4974 29.8766 21.9871 29.6405 22.425C29.4043 22.8629 29.063 23.2351 28.6472 23.5083C28.2314 23.7814 27.7543 23.9469 27.2586 23.9898C26.763 24.0327 26.2645 23.9516 25.808 23.754C25.658 24.416 25.428 25.048 25.128 25.638ZM14 13.998C13.4696 13.998 12.9609 14.2087 12.5858 14.5838C12.2107 14.9588 12 15.4675 12 15.998V22C12 23.5913 12.6321 25.1174 13.7574 26.2426C14.8826 27.3678 16.4087 28 18 28C19.5913 28 21.1174 27.3678 22.2426 26.2426C23.3679 25.1174 24 23.5913 24 22V16C24 15.4695 23.7893 14.9608 23.4142 14.5858C23.0391 14.2107 22.5304 14 22 14L14 13.998ZM14 15.998H22V22C22 23.0608 21.5786 24.0782 20.8284 24.8284C20.0783 25.5785 19.0609 26 18 26C16.9391 26 15.9217 25.5785 15.1716 24.8284C14.4214 24.0782 14 23.0608 14 22V15.998Z" fill="black"/>
</g>
<defs>
<filter id="filter0_d_129_2845" x="-2" y="0" width="40" height="40" filterUnits="userSpaceOnUse" color-interpolation-filters="sRGB">
<feFlood flood-opacity="0" result="BackgroundImageFix"/>
<feColorMatrix in="SourceAlpha" type="matrix" values="0 0 0 0 0 0 0 0 0 0 0 0 0 0 0 0 0 0 127 0" result="hardAlpha"/>
<feOffset dy="4"/>
<feGaussianBlur stdDeviation="2"/>
<feComposite in2="hardAlpha" operator="out"/>
<feColorMatrix type="matrix" values="0 0 0 0 0 0 0 0 0 0 0 0 0 0 0 0 0 0 0.25 0"/>
<feBlend mode="normal" in2="BackgroundImageFix" result="effect1_dropShadow_129_2845"/>
<feBlend mode="normal" in="SourceGraphic" in2="effect1_dropShadow_129_2845" result="shape"/>
</filter>
</defs>
</svg>
