<svg width="77" height="75" viewBox="0 0 77 75" fill="none" xmlns="http://www.w3.org/2000/svg">
<rect x="8.61719" y="7.51471" width="68.3824" height="67.2794" fill="#0F62FE"/>
<rect x="1.44853" y="1.44853" width="69.4853" height="68.3824" fill="white" stroke="black" stroke-width="1.10294"/>
<path d="M50.6657 29.8493V30.4008H51.2171H54.8017V33.5258H51.2171H50.6657V34.0772V38.3052V38.8566H51.2171H54.8017V41.9816H51.2171H50.6657V42.5331L50.6657 46.7594C50.6657 46.7599 50.6657 46.7603 50.6657 46.7607C50.6625 47.7387 50.2809 48.6734 49.6079 49.3613C48.9353 50.0489 48.0265 50.4343 47.0806 50.4375C47.0802 50.4375 47.0798 50.4375 47.0794 50.4375L42.9451 50.4375H42.3936V50.989V54.6655H39.3605V50.989V50.4375H38.8091H34.673H34.1216V50.989V54.6655H31.0885V50.989V50.4375H30.537L26.4026 50.4375C26.4023 50.4375 26.4019 50.4375 26.4015 50.4375C25.4556 50.4343 24.5468 50.0489 23.8742 49.3613C23.2011 48.6732 22.8195 47.7384 22.8164 46.7602V42.5331V41.9816H22.2649H18.6804V38.8566H22.2649H22.8164V38.3052V34.0772V33.5258H22.2649H18.6804V30.4008H22.2649H22.8164V29.8493V25.6222C22.8195 24.644 23.2011 23.7092 23.8742 23.0211C24.5469 22.3334 25.4558 21.948 26.4017 21.9449H30.537H31.0885V21.3934V17.7169H34.1216V21.3934V21.9449H34.673H38.8091H39.3605V21.3934V17.7169H42.3936V21.3934V21.9449H42.9451H47.0803C48.0263 21.948 48.9352 22.3334 49.6079 23.0211C50.2809 23.7091 50.6625 24.6437 50.6657 25.6217C50.6657 25.6221 50.6657 25.6225 50.6657 25.623L50.6657 29.8493ZM47.0811 47.3125H47.6326V46.7611V25.6213V25.0699H47.0811H26.401H25.8495V25.6213V46.7611V47.3125H26.401H47.0811Z" stroke="black" stroke-width="1.10294"/>
<path d="M35.4226 27.7353H32.6411L28.4844 44.6471H30.6082L31.5678 40.6834H36.3573L37.2921 44.6471H39.4883L35.4226 27.7353ZM31.847 38.9901L33.9522 29.7436H34.0473L36.0802 38.9901H31.847ZM41.3847 27.7353H43.4527V44.6471H41.3847V27.7353Z" fill="black"/>
</svg>
