<svg width="388" height="388" viewBox="0 0 388 388" fill="none" xmlns="http://www.w3.org/2000/svg">
<g clip-path="url(#clip0_139_2625)">
<mask id="mask0_139_2625" style="mask-type:luminance" maskUnits="userSpaceOnUse" x="0" y="0" width="388" height="388">
<path d="M388 0H0V388H388V0Z" fill="white"/>
</mask>
<g mask="url(#mask0_139_2625)">
<path d="M268.086 170.604C270.383 177.991 271.625 185.852 271.625 194C271.625 204.499 269.568 214.51 265.836 223.666" stroke="#0F62FE" stroke-width="5.432" stroke-miterlimit="10" stroke-dasharray="3.88 3.88"/>
</g>
<mask id="mask1_139_2625" style="mask-type:luminance" maskUnits="userSpaceOnUse" x="0" y="0" width="388" height="388">
<path d="M388 0H0V388H388V0Z" fill="white"/>
</mask>
<g mask="url(#mask1_139_2625)">
<path d="M192.945 115.322C228.253 115.322 258.122 138.578 268.085 170.604" stroke="#0F62FE" stroke-width="5.432" stroke-miterlimit="10"/>
</g>
<mask id="mask2_139_2625" style="mask-type:luminance" maskUnits="userSpaceOnUse" x="0" y="0" width="388" height="388">
<path d="M388 0H0V388H388V0Z" fill="white"/>
</mask>
<g mask="url(#mask2_139_2625)">
<path d="M121.482 226.964C116.85 216.939 114.266 205.772 114.266 194C114.266 181.918 116.989 170.479 121.855 160.252" stroke="#0F62FE" stroke-width="5.432" stroke-miterlimit="10" stroke-dasharray="3.88 3.88"/>
</g>
<mask id="mask3_139_2625" style="mask-type:luminance" maskUnits="userSpaceOnUse" x="0" y="0" width="388" height="388">
<path d="M388 0H0V388H388V0Z" fill="white"/>
</mask>
<g mask="url(#mask3_139_2625)">
<path d="M152.203 126.853C154.663 125.355 157.232 123.982 159.901 122.732C170.843 117.618 182.366 115.244 193.688 115.321" stroke="#0F62FE" stroke-width="5.432" stroke-miterlimit="10" stroke-dasharray="3.88 3.88"/>
</g>
<mask id="mask4_139_2625" style="mask-type:luminance" maskUnits="userSpaceOnUse" x="0" y="0" width="388" height="388">
<path d="M388 0H0V388H388V0Z" fill="white"/>
</mask>
<g mask="url(#mask4_139_2625)">
<path d="M192.942 272.679C161.258 272.679 133.951 253.954 121.48 226.964" stroke="#0F62FE" stroke-width="5.432" stroke-miterlimit="10"/>
</g>
<mask id="mask5_139_2625" style="mask-type:luminance" maskUnits="userSpaceOnUse" x="0" y="0" width="388" height="388">
<path d="M388 0H0V388H388V0Z" fill="white"/>
</mask>
<g mask="url(#mask5_139_2625)">
<path d="M188.867 289.246C187.796 289.192 186.974 288.276 187.028 287.205C187.082 286.134 187.998 285.312 189.069 285.374C190.14 285.428 190.962 286.336 190.9 287.407C190.846 288.447 189.992 289.246 188.968 289.246C188.937 289.246 188.898 289.246 188.867 289.246ZM197.186 287.407C197.132 286.336 197.946 285.42 199.017 285.366C200.088 285.312 201.004 286.126 201.058 287.197C201.12 288.268 200.298 289.184 199.227 289.238C199.196 289.238 199.157 289.246 199.118 289.246C198.094 289.246 197.24 288.439 197.186 287.407ZM178.554 288.144C177.499 287.973 176.777 286.972 176.948 285.917C177.126 284.862 178.12 284.14 179.175 284.311C180.238 284.481 180.952 285.482 180.781 286.538C180.626 287.492 179.804 288.167 178.865 288.167C178.764 288.167 178.663 288.16 178.554 288.144ZM207.305 286.522C207.134 285.467 207.848 284.466 208.911 284.295C209.967 284.124 210.96 284.838 211.138 285.901C211.309 286.957 210.587 287.95 209.532 288.129C209.431 288.144 209.323 288.152 209.222 288.152C208.283 288.152 207.46 287.477 207.305 286.522ZM168.427 285.932C167.395 285.645 166.79 284.574 167.069 283.542C167.356 282.51 168.427 281.905 169.459 282.192C170.492 282.472 171.097 283.542 170.81 284.574C170.577 285.436 169.793 286.002 168.94 286.002C168.769 286.002 168.598 285.979 168.427 285.932ZM217.277 284.551C216.982 283.519 217.587 282.448 218.627 282.161C219.659 281.874 220.722 282.479 221.009 283.511C221.296 284.551 220.691 285.614 219.659 285.901C219.488 285.948 219.31 285.971 219.139 285.971C218.293 285.971 217.509 285.413 217.277 284.551ZM158.595 282.627C157.602 282.223 157.113 281.098 157.509 280.105C157.905 279.111 159.038 278.623 160.031 279.018C161.024 279.414 161.513 280.539 161.117 281.54C160.815 282.301 160.085 282.759 159.309 282.759C159.069 282.759 158.828 282.72 158.595 282.627ZM226.969 281.509C226.565 280.508 227.054 279.383 228.047 278.987C229.041 278.584 230.174 279.073 230.569 280.066C230.965 281.059 230.484 282.192 229.483 282.588C229.25 282.681 229.01 282.728 228.769 282.728C228.001 282.728 227.271 282.27 226.969 281.509ZM149.183 278.273C148.236 277.769 147.871 276.597 148.376 275.65C148.88 274.696 150.052 274.339 150.998 274.843C151.945 275.34 152.302 276.52 151.805 277.466C151.456 278.118 150.781 278.498 150.09 278.498C149.78 278.498 149.47 278.421 149.183 278.273ZM236.273 277.42C235.769 276.481 236.126 275.301 237.072 274.805C238.019 274.3 239.191 274.657 239.695 275.604C240.2 276.551 239.835 277.722 238.896 278.227C238.601 278.382 238.291 278.452 237.98 278.452C237.29 278.452 236.615 278.079 236.273 277.42ZM140.297 272.919C139.413 272.321 139.18 271.111 139.777 270.226C140.383 269.342 141.586 269.109 142.478 269.706C143.363 270.312 143.588 271.514 142.99 272.407C142.618 272.958 142.005 273.253 141.384 273.253C141.011 273.253 140.631 273.144 140.297 272.919ZM245.073 272.36C244.468 271.468 244.7 270.265 245.585 269.66C246.47 269.062 247.68 269.287 248.286 270.18C248.883 271.064 248.658 272.267 247.766 272.872C247.432 273.097 247.052 273.206 246.679 273.206C246.058 273.206 245.453 272.911 245.073 272.36ZM132.041 266.649C131.226 265.95 131.125 264.732 131.816 263.91C132.514 263.095 133.74 262.994 134.555 263.685V263.692C135.37 264.383 135.471 265.609 134.78 266.424C134.392 266.874 133.849 267.107 133.298 267.107C132.856 267.107 132.405 266.952 132.041 266.649ZM253.283 266.37C252.585 265.555 252.685 264.329 253.5 263.638C254.315 262.94 255.541 263.04 256.232 263.855C256.93 264.67 256.829 265.896 256.014 266.587C255.65 266.897 255.2 267.052 254.757 267.052C254.206 267.052 253.663 266.82 253.283 266.37ZM124.514 259.517C123.776 258.741 123.807 257.515 124.583 256.778C125.359 256.041 126.585 256.072 127.323 256.848C128.06 257.624 128.029 258.85 127.253 259.595C126.88 259.944 126.399 260.123 125.918 260.123C125.406 260.123 124.894 259.921 124.514 259.517ZM260.795 259.533C260.019 258.796 259.988 257.57 260.725 256.794C261.462 256.01 262.688 255.979 263.464 256.716C264.24 257.453 264.271 258.679 263.542 259.455C263.161 259.859 262.642 260.068 262.129 260.068C261.648 260.068 261.167 259.89 260.795 259.533ZM117.793 251.626C117.142 250.772 117.304 249.561 118.158 248.91C119.012 248.258 120.222 248.421 120.874 249.274C121.526 250.128 121.363 251.346 120.509 251.99C120.16 252.262 119.749 252.394 119.338 252.394C118.748 252.394 118.174 252.13 117.793 251.626ZM267.538 251.928C266.684 251.276 266.514 250.058 267.166 249.212C267.817 248.359 269.028 248.188 269.882 248.84C270.735 249.492 270.898 250.702 270.254 251.556C269.874 252.06 269.292 252.324 268.71 252.324C268.299 252.324 267.887 252.192 267.538 251.928ZM111.958 243.058C111.407 242.135 111.702 240.948 112.617 240.389C113.533 239.838 114.728 240.133 115.279 241.049C115.838 241.964 115.543 243.159 114.62 243.71C114.309 243.904 113.96 243.997 113.618 243.997C112.967 243.99 112.323 243.656 111.958 243.058ZM273.42 243.64C272.497 243.09 272.202 241.895 272.753 240.979C273.312 240.055 274.499 239.76 275.422 240.319C276.338 240.87 276.633 242.065 276.082 242.981C275.717 243.586 275.073 243.92 274.413 243.92C274.072 243.92 273.731 243.827 273.42 243.64ZM107.092 233.909C106.634 232.939 107.061 231.783 108.031 231.333C109.001 230.883 110.158 231.302 110.608 232.272C111.058 233.242 110.639 234.398 109.669 234.848C109.397 234.973 109.125 235.027 108.846 235.027C108.117 235.027 107.418 234.616 107.092 233.909ZM278.371 234.763C277.393 234.313 276.974 233.164 277.424 232.187C277.874 231.217 279.023 230.79 280.001 231.248C280.971 231.698 281.39 232.846 280.94 233.816C280.614 234.53 279.915 234.949 279.178 234.949C278.906 234.949 278.627 234.887 278.371 234.763ZM103.243 224.279C102.894 223.263 103.445 222.161 104.454 221.819C105.47 221.478 106.572 222.021 106.914 223.038C107.263 224.054 106.712 225.156 105.703 225.498C105.494 225.567 105.284 225.598 105.075 225.598C104.268 225.598 103.515 225.086 103.243 224.279ZM282.329 225.404C281.312 225.063 280.761 223.961 281.11 222.945C281.452 221.928 282.546 221.385 283.562 221.726C284.579 222.068 285.122 223.17 284.781 224.186C284.509 224.993 283.756 225.505 282.942 225.505C282.74 225.505 282.53 225.474 282.329 225.404ZM100.465 214.292C100.232 213.245 100.892 212.205 101.94 211.98C102.987 211.747 104.019 212.406 104.252 213.454C104.485 214.502 103.818 215.534 102.77 215.767C102.638 215.798 102.498 215.813 102.359 215.813C101.466 215.813 100.659 215.192 100.465 214.292ZM285.239 215.673C284.191 215.441 283.531 214.409 283.764 213.361C283.989 212.313 285.029 211.646 286.069 211.879C287.117 212.104 287.784 213.144 287.551 214.191C287.357 215.099 286.55 215.712 285.658 215.712C285.518 215.712 285.378 215.697 285.239 215.673ZM98.7891 204.057C98.6727 202.994 99.441 202.031 100.504 201.923C101.567 201.806 102.529 202.575 102.646 203.638C102.762 204.701 101.994 205.663 100.923 205.779C100.853 205.787 100.783 205.787 100.714 205.787C99.7358 205.787 98.8978 205.05 98.7891 204.057ZM287.078 205.679C286.015 205.562 285.246 204.608 285.355 203.545L285.363 203.537C285.471 202.474 286.434 201.705 287.497 201.822C288.56 201.93 289.328 202.893 289.22 203.956C289.111 204.949 288.265 205.686 287.287 205.686C287.217 205.686 287.148 205.686 287.078 205.679ZM98.2227 193.713C98.2227 193.713 98.2227 193.713 98.2227 193.705C98.2227 192.642 99.0918 191.773 100.163 191.765C101.234 191.765 102.103 192.634 102.103 193.705C102.103 194.776 101.234 195.645 100.163 195.645C99.0918 195.645 98.2227 194.784 98.2227 193.713ZM285.891 193.604C285.891 193.581 285.891 193.55 285.891 193.526C285.891 193.488 285.891 193.449 285.891 193.41C285.883 192.339 286.752 191.47 287.823 191.47C288.894 191.462 289.77 192.331 289.77 193.402C289.77 193.441 289.77 193.472 289.77 193.503C289.77 193.542 289.77 193.573 289.77 193.604C289.77 194.675 288.901 195.544 287.83 195.544C286.76 195.544 285.891 194.675 285.891 193.604ZM100.489 185.495C99.4255 185.378 98.6495 184.424 98.7659 183.361C98.8745 182.29 99.8367 181.522 100.9 181.638C101.963 181.747 102.739 182.701 102.623 183.772C102.514 184.765 101.676 185.503 100.698 185.503C100.628 185.503 100.558 185.503 100.489 185.495ZM285.34 183.477C285.223 182.414 285.991 181.452 287.054 181.335C288.118 181.219 289.08 181.987 289.196 183.058C289.313 184.121 288.544 185.076 287.481 185.192C287.404 185.2 287.334 185.208 287.264 185.208C286.286 185.208 285.448 184.47 285.34 183.477ZM101.901 175.43C100.853 175.205 100.186 174.173 100.419 173.125C100.644 172.078 101.684 171.418 102.723 171.643C103.771 171.868 104.438 172.9 104.206 173.948H104.213C104.012 174.856 103.205 175.477 102.312 175.477C102.18 175.477 102.041 175.461 101.901 175.43ZM283.718 173.661C283.485 172.621 284.152 171.581 285.192 171.348C286.24 171.123 287.28 171.783 287.512 172.83C287.737 173.87 287.078 174.91 286.03 175.135C285.89 175.174 285.751 175.182 285.611 175.182C284.719 175.182 283.919 174.569 283.718 173.661ZM104.4 165.583C103.383 165.241 102.832 164.139 103.174 163.123C103.515 162.106 104.617 161.563 105.633 161.904C106.65 162.246 107.193 163.34 106.852 164.357C106.58 165.171 105.827 165.684 105.013 165.684C104.811 165.684 104.601 165.652 104.4 165.583ZM281.048 164.085C280.699 163.068 281.242 161.966 282.259 161.625C283.275 161.284 284.377 161.827 284.719 162.836C285.06 163.852 284.517 164.954 283.508 165.296C283.299 165.365 283.089 165.404 282.88 165.404C282.073 165.404 281.32 164.892 281.048 164.085ZM107.954 156.061C106.984 155.611 106.557 154.455 107.007 153.485C107.457 152.515 108.606 152.088 109.583 152.538C110.553 152.988 110.98 154.137 110.53 155.114C110.204 155.821 109.498 156.24 108.768 156.24C108.497 156.24 108.218 156.185 107.954 156.061ZM277.347 154.851C276.889 153.881 277.316 152.724 278.286 152.274C279.256 151.824 280.404 152.243 280.862 153.213C281.312 154.183 280.893 155.339 279.923 155.79C279.659 155.914 279.38 155.976 279.1 155.976C278.371 155.976 277.673 155.557 277.347 154.851ZM112.524 146.982C111.609 146.431 111.306 145.244 111.865 144.32C112.416 143.405 113.603 143.11 114.526 143.661C115.442 144.212 115.737 145.399 115.186 146.322C114.821 146.928 114.177 147.261 113.525 147.261C113.184 147.261 112.835 147.168 112.524 146.982ZM272.66 146.082C272.109 145.166 272.396 143.971 273.319 143.412C274.235 142.861 275.422 143.156 275.981 144.072C276.532 144.988 276.245 146.183 275.329 146.734C275.011 146.928 274.662 147.013 274.32 147.013C273.668 147.013 273.024 146.679 272.66 146.082ZM118.049 138.454C117.196 137.81 117.033 136.591 117.677 135.738C118.321 134.884 119.539 134.713 120.393 135.365C121.247 136.009 121.417 137.228 120.765 138.081C120.385 138.586 119.803 138.849 119.221 138.849C118.81 138.849 118.399 138.725 118.049 138.454ZM267.057 137.864C266.405 137.01 266.568 135.792 267.422 135.14C268.268 134.488 269.486 134.651 270.138 135.505C270.79 136.358 270.627 137.577 269.773 138.229C269.424 138.493 269.012 138.624 268.601 138.624C268.019 138.624 267.437 138.361 267.057 137.864ZM124.459 130.57C123.683 129.832 123.644 128.606 124.382 127.83C125.119 127.054 126.345 127.015 127.129 127.753C127.905 128.49 127.943 129.716 127.206 130.492C126.826 130.895 126.306 131.105 125.794 131.105C125.313 131.105 124.839 130.926 124.459 130.57ZM260.601 130.298C259.856 129.514 259.895 128.288 260.671 127.551C261.447 126.814 262.673 126.845 263.41 127.621C264.147 128.397 264.116 129.623 263.34 130.36C262.967 130.717 262.486 130.895 262.005 130.895C261.493 130.895 260.981 130.694 260.601 130.298ZM131.684 123.423C130.985 122.608 131.086 121.382 131.901 120.691C132.716 119.993 133.942 120.094 134.633 120.908C135.331 121.723 135.23 122.949 134.415 123.64C134.051 123.95 133.6 124.105 133.158 124.105C132.607 124.105 132.064 123.873 131.684 123.423ZM253.368 123.461C252.546 122.771 252.445 121.545 253.136 120.73C253.834 119.915 255.052 119.806 255.875 120.505C256.69 121.195 256.79 122.422 256.1 123.236C255.712 123.686 255.169 123.919 254.618 123.919C254.175 123.919 253.733 123.772 253.368 123.461ZM139.63 117.098C139.025 116.214 139.258 115.003 140.142 114.398C141.027 113.792 142.23 114.025 142.835 114.91C143.44 115.794 143.207 117.005 142.323 117.603C141.989 117.835 141.609 117.944 141.236 117.944C140.616 117.944 140.002 117.649 139.63 117.098ZM245.438 117.447C244.553 116.85 244.32 115.647 244.918 114.755C245.523 113.87 246.726 113.637 247.61 114.235C248.495 114.84 248.728 116.043 248.13 116.927C247.758 117.486 247.145 117.781 246.524 117.781C246.152 117.781 245.771 117.672 245.438 117.447ZM148.213 111.658C147.708 110.712 148.065 109.54 149.012 109.036C149.959 108.531 151.13 108.888 151.635 109.835C152.139 110.782 151.782 111.953 150.835 112.458C150.541 112.613 150.23 112.69 149.928 112.69C149.229 112.69 148.562 112.318 148.213 111.658ZM236.909 112.326C235.963 111.821 235.598 110.65 236.102 109.703C236.599 108.756 237.771 108.399 238.725 108.896C239.672 109.4 240.029 110.572 239.532 111.519C239.183 112.178 238.508 112.551 237.817 112.551C237.507 112.551 237.196 112.481 236.909 112.326ZM157.331 107.181C156.935 106.188 157.416 105.062 158.409 104.659C159.41 104.263 160.535 104.744 160.931 105.745C161.335 106.739 160.846 107.864 159.853 108.267C159.62 108.36 159.371 108.407 159.131 108.407C158.363 108.407 157.633 107.941 157.331 107.181ZM227.869 108.159C226.876 107.763 226.387 106.638 226.783 105.637C227.178 104.643 228.304 104.154 229.305 104.55C230.298 104.946 230.787 106.079 230.391 107.072C230.088 107.833 229.359 108.298 228.583 108.298C228.35 108.298 228.11 108.252 227.869 108.159ZM166.883 103.728C166.596 102.696 167.201 101.625 168.233 101.338C169.265 101.05 170.336 101.656 170.623 102.688C170.911 103.72 170.305 104.791 169.273 105.078C169.102 105.124 168.924 105.148 168.753 105.148C167.907 105.148 167.124 104.589 166.883 103.728ZM218.441 105C217.408 104.713 216.795 103.65 217.083 102.61C217.37 101.578 218.433 100.973 219.465 101.26C220.505 101.539 221.11 102.61 220.823 103.642C220.59 104.504 219.806 105.07 218.953 105.07C218.782 105.07 218.611 105.047 218.441 105ZM176.762 101.33C176.583 100.274 177.297 99.2812 178.36 99.1027C179.416 98.932 180.417 99.6459 180.587 100.701C180.758 101.764 180.044 102.758 178.989 102.936C178.88 102.952 178.779 102.959 178.671 102.959C177.739 102.959 176.917 102.284 176.762 101.33ZM208.717 102.882C207.662 102.719 206.94 101.718 207.111 100.662C207.282 99.6071 208.275 98.8855 209.338 99.0562C210.393 99.2269 211.115 100.22 210.944 101.276C210.789 102.23 209.967 102.913 209.028 102.913C208.927 102.913 208.826 102.905 208.717 102.882ZM186.834 100.026C186.772 98.9553 187.595 98.0396 188.665 97.9775C189.736 97.9232 190.652 98.738 190.706 99.8089C190.768 100.88 189.946 101.795 188.875 101.858C188.844 101.858 188.805 101.858 188.766 101.858C187.742 101.858 186.888 101.058 186.834 100.026ZM198.831 101.834C197.76 101.78 196.93 100.872 196.992 99.8011C197.046 98.7303 197.954 97.9077 199.025 97.962C200.096 98.0163 200.918 98.932 200.864 100.003C200.81 101.035 199.956 101.842 198.932 101.842C198.893 101.842 198.862 101.842 198.831 101.834Z" fill="#0F62FE"/>
</g>
<mask id="mask6_139_2625" style="mask-type:luminance" maskUnits="userSpaceOnUse" x="0" y="0" width="388" height="388">
<path d="M388 0H0V388H388V0Z" fill="white"/>
</mask>
<g mask="url(#mask6_139_2625)">
<path d="M188.867 289.246C187.796 289.192 186.974 288.276 187.028 287.205C187.082 286.134 187.998 285.312 189.069 285.374C190.14 285.428 190.962 286.336 190.9 287.407C190.846 288.447 189.992 289.246 188.968 289.246C188.937 289.246 188.898 289.246 188.867 289.246ZM197.186 287.407C197.132 286.336 197.946 285.42 199.017 285.366C200.088 285.312 201.004 286.126 201.058 287.197C201.12 288.268 200.298 289.184 199.227 289.238C199.196 289.238 199.157 289.246 199.118 289.246C198.094 289.246 197.24 288.439 197.186 287.407ZM178.554 288.144C177.499 287.973 176.777 286.972 176.948 285.917C177.126 284.862 178.12 284.14 179.175 284.311C180.238 284.481 180.952 285.482 180.781 286.538C180.626 287.492 179.804 288.167 178.865 288.167C178.764 288.167 178.663 288.16 178.554 288.144ZM207.305 286.522C207.134 285.467 207.848 284.466 208.911 284.295C209.967 284.124 210.96 284.838 211.138 285.901C211.309 286.957 210.587 287.95 209.532 288.129C209.431 288.144 209.323 288.152 209.222 288.152C208.283 288.152 207.46 287.477 207.305 286.522ZM168.427 285.932C167.395 285.645 166.79 284.574 167.069 283.542C167.356 282.51 168.427 281.905 169.459 282.192C170.492 282.472 171.097 283.542 170.81 284.574C170.577 285.436 169.793 286.002 168.94 286.002C168.769 286.002 168.598 285.979 168.427 285.932ZM217.277 284.551C216.982 283.519 217.587 282.448 218.627 282.161C219.659 281.874 220.722 282.479 221.009 283.511C221.296 284.551 220.691 285.614 219.659 285.901C219.488 285.948 219.31 285.971 219.139 285.971C218.293 285.971 217.509 285.413 217.277 284.551ZM158.595 282.627C157.602 282.223 157.113 281.098 157.509 280.105C157.905 279.111 159.038 278.623 160.031 279.018C161.024 279.414 161.513 280.539 161.117 281.54C160.815 282.301 160.085 282.759 159.309 282.759C159.069 282.759 158.828 282.72 158.595 282.627ZM226.969 281.509C226.565 280.508 227.054 279.383 228.047 278.987C229.041 278.584 230.174 279.073 230.569 280.066C230.965 281.059 230.484 282.192 229.483 282.588C229.25 282.681 229.01 282.728 228.769 282.728C228.001 282.728 227.271 282.27 226.969 281.509ZM149.183 278.273C148.236 277.769 147.871 276.597 148.376 275.65C148.88 274.696 150.052 274.339 150.998 274.843C151.945 275.34 152.302 276.52 151.805 277.466C151.456 278.118 150.781 278.498 150.09 278.498C149.78 278.498 149.47 278.421 149.183 278.273ZM236.273 277.42C235.769 276.481 236.126 275.301 237.072 274.805C238.019 274.3 239.191 274.657 239.695 275.604C240.2 276.551 239.835 277.722 238.896 278.227C238.601 278.382 238.291 278.452 237.98 278.452C237.29 278.452 236.615 278.079 236.273 277.42ZM140.297 272.919C139.413 272.321 139.18 271.111 139.777 270.226C140.383 269.342 141.586 269.109 142.478 269.706C143.363 270.312 143.588 271.514 142.99 272.407C142.618 272.958 142.005 273.253 141.384 273.253C141.011 273.253 140.631 273.144 140.297 272.919ZM245.073 272.36C244.468 271.468 244.7 270.265 245.585 269.66C246.47 269.062 247.68 269.287 248.286 270.18C248.883 271.064 248.658 272.267 247.766 272.872C247.432 273.097 247.052 273.206 246.679 273.206C246.058 273.206 245.453 272.911 245.073 272.36ZM132.041 266.649C131.226 265.95 131.125 264.732 131.816 263.91C132.514 263.095 133.74 262.994 134.555 263.685V263.692C135.37 264.383 135.471 265.609 134.78 266.424C134.392 266.874 133.849 267.107 133.298 267.107C132.856 267.107 132.405 266.952 132.041 266.649ZM253.283 266.37C252.585 265.555 252.685 264.329 253.5 263.638C254.315 262.94 255.541 263.04 256.232 263.855C256.93 264.67 256.829 265.896 256.014 266.587C255.65 266.897 255.2 267.052 254.757 267.052C254.206 267.052 253.663 266.82 253.283 266.37ZM124.514 259.517C123.776 258.741 123.807 257.515 124.583 256.778C125.359 256.041 126.585 256.072 127.323 256.848C128.06 257.624 128.029 258.85 127.253 259.595C126.88 259.944 126.399 260.123 125.918 260.123C125.406 260.123 124.894 259.921 124.514 259.517ZM260.795 259.533C260.019 258.796 259.988 257.57 260.725 256.794C261.462 256.01 262.688 255.979 263.464 256.716C264.24 257.453 264.271 258.679 263.542 259.455C263.161 259.859 262.642 260.068 262.129 260.068C261.648 260.068 261.167 259.89 260.795 259.533ZM117.793 251.626C117.142 250.772 117.304 249.561 118.158 248.91C119.012 248.258 120.222 248.421 120.874 249.274C121.526 250.128 121.363 251.346 120.509 251.99C120.16 252.262 119.749 252.394 119.338 252.394C118.748 252.394 118.174 252.13 117.793 251.626ZM267.538 251.928C266.684 251.276 266.514 250.058 267.166 249.212C267.817 248.359 269.028 248.188 269.882 248.84C270.735 249.492 270.898 250.702 270.254 251.556C269.874 252.06 269.292 252.324 268.71 252.324C268.299 252.324 267.887 252.192 267.538 251.928ZM111.958 243.058C111.407 242.135 111.702 240.948 112.617 240.389C113.533 239.838 114.728 240.133 115.279 241.049C115.838 241.964 115.543 243.159 114.62 243.71C114.309 243.904 113.96 243.997 113.618 243.997C112.967 243.99 112.323 243.656 111.958 243.058ZM273.42 243.64C272.497 243.09 272.202 241.895 272.753 240.979C273.312 240.055 274.499 239.76 275.422 240.319C276.338 240.87 276.633 242.065 276.082 242.981C275.717 243.586 275.073 243.92 274.413 243.92C274.072 243.92 273.731 243.827 273.42 243.64ZM107.092 233.909C106.634 232.939 107.061 231.783 108.031 231.333C109.001 230.883 110.158 231.302 110.608 232.272C111.058 233.242 110.639 234.398 109.669 234.848C109.397 234.973 109.125 235.027 108.846 235.027C108.117 235.027 107.418 234.616 107.092 233.909ZM278.371 234.763C277.393 234.313 276.974 233.164 277.424 232.187C277.874 231.217 279.023 230.79 280.001 231.248C280.971 231.698 281.39 232.846 280.94 233.816C280.614 234.53 279.915 234.949 279.178 234.949C278.906 234.949 278.627 234.887 278.371 234.763ZM103.243 224.279C102.894 223.263 103.445 222.161 104.454 221.819C105.47 221.478 106.572 222.021 106.914 223.038C107.263 224.054 106.712 225.156 105.703 225.498C105.494 225.567 105.284 225.598 105.075 225.598C104.268 225.598 103.515 225.086 103.243 224.279ZM282.329 225.404C281.312 225.063 280.761 223.961 281.11 222.945C281.452 221.928 282.546 221.385 283.562 221.726C284.579 222.068 285.122 223.17 284.781 224.186C284.509 224.993 283.756 225.505 282.942 225.505C282.74 225.505 282.53 225.474 282.329 225.404ZM100.465 214.292C100.232 213.245 100.892 212.205 101.94 211.98C102.987 211.747 104.019 212.406 104.252 213.454C104.485 214.502 103.818 215.534 102.77 215.767C102.638 215.798 102.498 215.813 102.359 215.813C101.466 215.813 100.659 215.192 100.465 214.292ZM285.239 215.673C284.191 215.441 283.531 214.409 283.764 213.361C283.989 212.313 285.029 211.646 286.069 211.879C287.117 212.104 287.784 213.144 287.551 214.191C287.357 215.099 286.55 215.712 285.658 215.712C285.518 215.712 285.378 215.697 285.239 215.673ZM98.7891 204.057C98.6727 202.994 99.441 202.031 100.504 201.923C101.567 201.806 102.529 202.575 102.646 203.638C102.762 204.701 101.994 205.663 100.923 205.779C100.853 205.787 100.783 205.787 100.714 205.787C99.7358 205.787 98.8978 205.05 98.7891 204.057ZM287.078 205.679C286.015 205.562 285.246 204.608 285.355 203.545L285.363 203.537C285.471 202.474 286.434 201.705 287.497 201.822C288.56 201.93 289.328 202.893 289.22 203.956C289.111 204.949 288.265 205.686 287.287 205.686C287.217 205.686 287.148 205.686 287.078 205.679ZM98.2227 193.713C98.2227 193.713 98.2227 193.713 98.2227 193.705C98.2227 192.642 99.0918 191.773 100.163 191.765C101.234 191.765 102.103 192.634 102.103 193.705C102.103 194.776 101.234 195.645 100.163 195.645C99.0918 195.645 98.2227 194.784 98.2227 193.713ZM285.891 193.604C285.891 193.581 285.891 193.55 285.891 193.526C285.891 193.488 285.891 193.449 285.891 193.41C285.883 192.339 286.752 191.47 287.823 191.47C288.894 191.462 289.77 192.331 289.77 193.402C289.77 193.441 289.77 193.472 289.77 193.503C289.77 193.542 289.77 193.573 289.77 193.604C289.77 194.675 288.901 195.544 287.83 195.544C286.76 195.544 285.891 194.675 285.891 193.604ZM100.489 185.495C99.4255 185.378 98.6495 184.424 98.7659 183.361C98.8745 182.29 99.8367 181.522 100.9 181.638C101.963 181.747 102.739 182.701 102.623 183.772C102.514 184.765 101.676 185.503 100.698 185.503C100.628 185.503 100.558 185.503 100.489 185.495ZM285.34 183.477C285.223 182.414 285.991 181.452 287.054 181.335C288.118 181.219 289.08 181.987 289.196 183.058C289.313 184.121 288.544 185.076 287.481 185.192C287.404 185.2 287.334 185.208 287.264 185.208C286.286 185.208 285.448 184.47 285.34 183.477ZM101.901 175.43C100.853 175.205 100.186 174.173 100.419 173.125C100.644 172.078 101.684 171.418 102.723 171.643C103.771 171.868 104.438 172.9 104.206 173.948H104.213C104.012 174.856 103.205 175.477 102.312 175.477C102.18 175.477 102.041 175.461 101.901 175.43ZM283.718 173.661C283.485 172.621 284.152 171.581 285.192 171.348C286.24 171.123 287.28 171.783 287.512 172.83C287.737 173.87 287.078 174.91 286.03 175.135C285.89 175.174 285.751 175.182 285.611 175.182C284.719 175.182 283.919 174.569 283.718 173.661ZM104.4 165.583C103.383 165.241 102.832 164.139 103.174 163.123C103.515 162.106 104.617 161.563 105.633 161.904C106.65 162.246 107.193 163.34 106.852 164.357C106.58 165.171 105.827 165.684 105.013 165.684C104.811 165.684 104.601 165.652 104.4 165.583ZM281.048 164.085C280.699 163.068 281.242 161.966 282.259 161.625C283.275 161.284 284.377 161.827 284.719 162.836C285.06 163.852 284.517 164.954 283.508 165.296C283.299 165.365 283.089 165.404 282.88 165.404C282.073 165.404 281.32 164.892 281.048 164.085ZM107.954 156.061C106.984 155.611 106.557 154.455 107.007 153.485C107.457 152.515 108.606 152.088 109.583 152.538C110.553 152.988 110.98 154.137 110.53 155.114C110.204 155.821 109.498 156.24 108.768 156.24C108.497 156.24 108.218 156.185 107.954 156.061ZM277.347 154.851C276.889 153.881 277.316 152.724 278.286 152.274C279.256 151.824 280.404 152.243 280.862 153.213C281.312 154.183 280.893 155.339 279.923 155.79C279.659 155.914 279.38 155.976 279.1 155.976C278.371 155.976 277.673 155.557 277.347 154.851ZM112.524 146.982C111.609 146.431 111.306 145.244 111.865 144.32C112.416 143.405 113.603 143.11 114.526 143.661C115.442 144.212 115.737 145.399 115.186 146.322C114.821 146.928 114.177 147.261 113.525 147.261C113.184 147.261 112.835 147.168 112.524 146.982ZM272.66 146.082C272.109 145.166 272.396 143.971 273.319 143.412C274.235 142.861 275.422 143.156 275.981 144.072C276.532 144.988 276.245 146.183 275.329 146.734C275.011 146.928 274.662 147.013 274.32 147.013C273.668 147.013 273.024 146.679 272.66 146.082ZM118.049 138.454C117.196 137.81 117.033 136.591 117.677 135.738C118.321 134.884 119.539 134.713 120.393 135.365C121.247 136.009 121.417 137.228 120.765 138.081C120.385 138.586 119.803 138.849 119.221 138.849C118.81 138.849 118.399 138.725 118.049 138.454ZM267.057 137.864C266.405 137.01 266.568 135.792 267.422 135.14C268.268 134.488 269.486 134.651 270.138 135.505C270.79 136.358 270.627 137.577 269.773 138.229C269.424 138.493 269.012 138.624 268.601 138.624C268.019 138.624 267.437 138.361 267.057 137.864ZM124.459 130.57C123.683 129.832 123.644 128.606 124.382 127.83C125.119 127.054 126.345 127.015 127.129 127.753C127.905 128.49 127.943 129.716 127.206 130.492C126.826 130.895 126.306 131.105 125.794 131.105C125.313 131.105 124.839 130.926 124.459 130.57ZM260.601 130.298C259.856 129.514 259.895 128.288 260.671 127.551C261.447 126.814 262.673 126.845 263.41 127.621C264.147 128.397 264.116 129.623 263.34 130.36C262.967 130.717 262.486 130.895 262.005 130.895C261.493 130.895 260.981 130.694 260.601 130.298ZM131.684 123.423C130.985 122.608 131.086 121.382 131.901 120.691C132.716 119.993 133.942 120.094 134.633 120.908C135.331 121.723 135.23 122.949 134.415 123.64C134.051 123.95 133.6 124.105 133.158 124.105C132.607 124.105 132.064 123.873 131.684 123.423ZM253.368 123.461C252.546 122.771 252.445 121.545 253.136 120.73C253.834 119.915 255.052 119.806 255.875 120.505C256.69 121.195 256.79 122.422 256.1 123.236C255.712 123.686 255.169 123.919 254.618 123.919C254.175 123.919 253.733 123.772 253.368 123.461ZM139.63 117.098C139.025 116.214 139.258 115.003 140.142 114.398C141.027 113.792 142.23 114.025 142.835 114.91C143.44 115.794 143.207 117.005 142.323 117.603C141.989 117.835 141.609 117.944 141.236 117.944C140.616 117.944 140.002 117.649 139.63 117.098ZM245.438 117.447C244.553 116.85 244.32 115.647 244.918 114.755C245.523 113.87 246.726 113.637 247.61 114.235C248.495 114.84 248.728 116.043 248.13 116.927C247.758 117.486 247.145 117.781 246.524 117.781C246.152 117.781 245.771 117.672 245.438 117.447ZM148.213 111.658C147.708 110.712 148.065 109.54 149.012 109.036C149.959 108.531 151.13 108.888 151.635 109.835C152.139 110.782 151.782 111.953 150.835 112.458C150.541 112.613 150.23 112.69 149.928 112.69C149.229 112.69 148.562 112.318 148.213 111.658ZM236.909 112.326C235.963 111.821 235.598 110.65 236.102 109.703C236.599 108.756 237.771 108.399 238.725 108.896C239.672 109.4 240.029 110.572 239.532 111.519C239.183 112.178 238.508 112.551 237.817 112.551C237.507 112.551 237.196 112.481 236.909 112.326ZM157.331 107.181C156.935 106.188 157.416 105.062 158.409 104.659C159.41 104.263 160.535 104.744 160.931 105.745C161.335 106.739 160.846 107.864 159.853 108.267C159.62 108.36 159.371 108.407 159.131 108.407C158.363 108.407 157.633 107.941 157.331 107.181ZM227.869 108.159C226.876 107.763 226.387 106.638 226.783 105.637C227.178 104.643 228.304 104.154 229.305 104.55C230.298 104.946 230.787 106.079 230.391 107.072C230.088 107.833 229.359 108.298 228.583 108.298C228.35 108.298 228.11 108.252 227.869 108.159ZM166.883 103.728C166.596 102.696 167.201 101.625 168.233 101.338C169.265 101.05 170.336 101.656 170.623 102.688C170.911 103.72 170.305 104.791 169.273 105.078C169.102 105.124 168.924 105.148 168.753 105.148C167.907 105.148 167.124 104.589 166.883 103.728ZM218.441 105C217.408 104.713 216.795 103.65 217.083 102.61C217.37 101.578 218.433 100.973 219.465 101.26C220.505 101.539 221.11 102.61 220.823 103.642C220.59 104.504 219.806 105.07 218.953 105.07C218.782 105.07 218.611 105.047 218.441 105ZM176.762 101.33C176.583 100.274 177.297 99.2812 178.36 99.1027C179.416 98.932 180.417 99.6459 180.587 100.701C180.758 101.764 180.044 102.758 178.989 102.936C178.88 102.952 178.779 102.959 178.671 102.959C177.739 102.959 176.917 102.284 176.762 101.33ZM208.717 102.882C207.662 102.719 206.94 101.718 207.111 100.662C207.282 99.6071 208.275 98.8855 209.338 99.0562C210.393 99.2269 211.115 100.22 210.944 101.276C210.789 102.23 209.967 102.913 209.028 102.913C208.927 102.913 208.826 102.905 208.717 102.882ZM186.834 100.026C186.772 98.9553 187.595 98.0396 188.665 97.9775C189.736 97.9232 190.652 98.738 190.706 99.8089C190.768 100.88 189.946 101.795 188.875 101.858C188.844 101.858 188.805 101.858 188.766 101.858C187.742 101.858 186.888 101.058 186.834 100.026ZM198.831 101.834C197.76 101.78 196.93 100.872 196.992 99.8011C197.046 98.7303 197.954 97.9077 199.025 97.962C200.096 98.0163 200.918 98.932 200.864 100.003C200.81 101.035 199.956 101.842 198.932 101.842C198.893 101.842 198.862 101.842 198.831 101.834Z" fill="#0F62FE"/>
</g>
<mask id="mask7_139_2625" style="mask-type:luminance" maskUnits="userSpaceOnUse" x="0" y="0" width="388" height="388">
<path d="M388 0H0V388H388V0Z" fill="white"/>
</mask>
<g mask="url(#mask7_139_2625)">
<path d="M192.008 87.0125V-20.5876" stroke="#0F62FE" stroke-width="1.24323" stroke-miterlimit="10"/>
<path d="M192.009 89.713C193.501 89.713 194.71 88.5039 194.71 87.0125C194.71 85.5211 193.501 84.312 192.009 84.312C190.518 84.312 189.309 85.5211 189.309 87.0125C189.309 88.5039 190.518 89.713 192.009 89.713Z" fill="#0F62FE"/>
<path d="M213.039 88.5959V40.9961" stroke="#0F62FE" stroke-width="1.24323" stroke-miterlimit="10"/>
<path d="M215.668 88.5957C215.668 90.0468 214.488 91.2264 213.037 91.2264C211.586 91.2264 210.406 90.0468 210.406 88.5957C210.406 87.1446 211.586 85.9651 213.037 85.9651C214.488 85.9651 215.668 87.1368 215.668 88.5957Z" fill="#0F62FE"/>
<path d="M203.305 75.365V29.2007L211.367 22.2788V-14.7441" stroke="#0F62FE" stroke-width="1.15166" stroke-miterlimit="10"/>
<path d="M205.578 75.365C205.578 76.5057 204.654 77.4214 203.521 77.4214C202.381 77.4214 201.465 76.498 201.465 75.365C201.465 74.232 202.388 73.3086 203.521 73.3086C204.654 73.3086 205.578 74.232 205.578 75.365Z" fill="#0F62FE"/>
<path d="M203.305 75.365V29.2007L211.367 22.2788V-14.7441" stroke="#0F62FE" stroke-width="1.15166" stroke-miterlimit="10"/>
<path d="M205.578 75.365C205.578 76.5057 204.654 77.4214 203.521 77.4214C202.381 77.4214 201.465 76.498 201.465 75.365C201.465 74.232 202.388 73.3086 203.521 73.3086C204.654 73.3086 205.578 74.232 205.578 75.365Z" fill="#0F62FE"/>
<path d="M228.105 93.2207V70.0959L311.549 -13.3396" stroke="#0F62FE" stroke-width="1.24315" stroke-miterlimit="10"/>
<path d="M230.449 93.1043C230.449 94.3925 229.401 95.4401 228.113 95.4401C226.825 95.4401 225.777 94.3925 225.777 93.1043C225.777 91.8162 226.825 90.7686 228.113 90.7686C229.401 90.7686 230.449 91.8162 230.449 93.1043Z" fill="#0F62FE"/>
<path d="M228.105 93.2207V70.0959L311.549 -13.3396" stroke="#0F62FE" stroke-width="1.24315" stroke-miterlimit="10"/>
<path d="M230.449 93.1043C230.449 94.3925 229.401 95.4401 228.113 95.4401C226.825 95.4401 225.777 94.3925 225.777 93.1043C225.777 91.8162 226.825 90.7686 228.113 90.7686C229.401 90.7686 230.449 91.8162 230.449 93.1043Z" fill="#0F62FE"/>
<path d="M228.105 93.2207V70.0959L311.549 -13.3396" stroke="#0F62FE" stroke-width="1.24315" stroke-miterlimit="10"/>
<path d="M230.449 93.1043C230.449 94.3925 229.401 95.4401 228.113 95.4401C226.825 95.4401 225.777 94.3925 225.777 93.1043C225.777 91.8162 226.825 90.7686 228.113 90.7686C229.401 90.7686 230.449 91.8162 230.449 93.1043Z" fill="#0F62FE"/>
<path d="M220.91 76.4125V58.4559L262.186 17.1804" stroke="#0F62FE" stroke-width="1.24315" stroke-miterlimit="10"/>
<path d="M223.246 76.2962C223.246 77.5844 222.198 78.632 220.91 78.632C219.622 78.632 218.574 77.5844 218.574 76.2962C218.574 75.0081 219.622 73.9604 220.91 73.9604C222.198 73.9604 223.246 75.0081 223.246 76.2962Z" fill="#0F62FE"/>
<path d="M220.91 42.641V-13.3396" stroke="#0F62FE" stroke-width="1.24315" stroke-miterlimit="10"/>
<path d="M222.305 42.5713C222.305 43.3473 221.677 43.9759 220.901 43.9759C220.125 43.9759 219.496 43.3473 219.496 42.5713C219.496 41.7953 220.125 41.1667 220.901 41.1667C221.677 41.1667 222.305 41.7953 222.305 42.5713Z" fill="#0F62FE"/>
<path d="M231.461 27.2527L253.003 5.71094" stroke="#0F62FE" stroke-width="1.24315" stroke-miterlimit="10"/>
<path d="M232.501 28.1918C231.95 28.7427 231.066 28.7427 230.515 28.1918C229.964 27.6408 229.964 26.7562 230.515 26.2052C231.066 25.6543 231.95 25.6543 232.501 26.2052C233.045 26.7562 233.045 27.6486 232.501 28.1918Z" fill="#0F62FE"/>
<path d="M244.797 100.523L267.984 77.3279V56.6475L336.217 -11.5784" stroke="#0F62FE" stroke-width="1.24315" stroke-miterlimit="10"/>
<path d="M246.524 102.09C245.608 103.006 244.134 103.006 243.218 102.09C242.302 101.174 242.302 99.6999 243.218 98.7842C244.134 97.8685 245.608 97.8685 246.524 98.7842C247.439 99.6999 247.439 101.182 246.524 102.09Z" fill="#0F62FE"/>
<path d="M256.86 58.0911V73.3084L233.812 96.3556" stroke="#0F62FE" stroke-width="1.24315" stroke-miterlimit="10"/>
<path d="M254.523 58.2073C254.523 56.9192 255.571 55.8716 256.859 55.8716C258.147 55.8716 259.195 56.9192 259.195 58.2073C259.195 59.4955 258.147 60.5431 256.859 60.5431C255.571 60.5431 254.523 59.4955 254.523 58.2073Z" fill="#0F62FE"/>
<path d="M237.156 77.3748L247.795 66.7358" stroke="#0F62FE" stroke-width="1.24315" stroke-miterlimit="10"/>
<path d="M238.549 78.632C237.819 79.3614 236.632 79.3614 235.903 78.632C235.173 77.9025 235.173 76.7152 235.903 75.9858C236.632 75.2564 237.819 75.2564 238.549 75.9858C239.278 76.723 239.278 77.9025 238.549 78.632Z" fill="#0F62FE"/>
<path d="M253.098 105.505L278.55 80.0597V56.6401L343.409 -8.21802" stroke="#0F62FE" stroke-width="1.24315" stroke-miterlimit="10"/>
<path d="M254.832 107.08C253.917 107.996 252.442 107.996 251.527 107.08C250.611 106.164 250.611 104.69 251.527 103.774C252.442 102.859 253.917 102.859 254.832 103.774C255.74 104.682 255.74 106.164 254.832 107.08Z" fill="#0F62FE"/>
<path d="M253.098 105.505L278.55 80.0597V56.6401L343.409 -8.21802" stroke="#0F62FE" stroke-width="1.24315" stroke-miterlimit="10"/>
<path d="M254.832 107.08C253.917 107.996 252.442 107.996 251.527 107.08C250.611 106.164 250.611 104.69 251.527 103.774C252.442 102.859 253.917 102.859 254.832 103.774C255.74 104.682 255.74 106.164 254.832 107.08Z" fill="#0F62FE"/>
<path d="M253.098 105.505L278.55 80.0597V56.6401L343.409 -8.21802" stroke="#0F62FE" stroke-width="1.24315" stroke-miterlimit="10"/>
<path d="M254.832 107.08C253.917 107.996 252.442 107.996 251.527 107.08C250.611 106.164 250.611 104.69 251.527 103.774C252.442 102.859 253.917 102.859 254.832 103.774C255.74 104.682 255.74 106.164 254.832 107.08Z" fill="#0F62FE"/>
<path d="M291.285 59.3483L367.178 -16.5522" stroke="#0F62FE" stroke-width="1.24315" stroke-miterlimit="10"/>
<path d="M293.02 60.9159C292.104 61.8315 290.63 61.8315 289.714 60.9159C288.798 60.0002 288.798 58.5258 289.714 57.6101C290.63 56.6944 292.104 56.6944 293.02 57.6101C293.928 58.5258 293.928 60.0002 293.02 60.9159Z" fill="#0F62FE"/>
<path d="M262.348 111.231L279.07 94.5086H303.957L397.341 1.12476" stroke="#0F62FE" stroke-width="1.24315" stroke-miterlimit="10"/>
<path d="M264.082 112.806C263.167 113.722 261.692 113.722 260.777 112.806C259.861 111.891 259.861 110.416 260.777 109.501C261.692 108.585 263.167 108.585 264.082 109.501C264.998 110.409 264.998 111.891 264.082 112.806Z" fill="#0F62FE"/>
<path d="M291.945 75.3654H302.258L380.681 -3.05713" stroke="#0F62FE" stroke-width="1.24315" stroke-miterlimit="10"/>
<path d="M292.062 77.7091C290.774 77.7091 289.727 76.6615 289.727 75.3734C289.727 74.0852 290.774 73.0376 292.062 73.0376C293.35 73.0376 294.398 74.0852 294.398 75.3734C294.398 76.6615 293.35 77.7091 292.062 77.7091Z" fill="#0F62FE"/>
<path d="M291.945 75.3654H302.258L380.681 -3.05713" stroke="#0F62FE" stroke-width="1.24315" stroke-miterlimit="10"/>
<path d="M292.062 77.7091C290.774 77.7091 289.727 76.6615 289.727 75.3734C289.727 74.0852 290.774 73.0376 292.062 73.0376C293.35 73.0376 294.398 74.0852 294.398 75.3734C294.398 76.6615 293.35 77.7091 292.062 77.7091Z" fill="#0F62FE"/>
<path d="M291.945 75.3654H302.258L380.681 -3.05713" stroke="#0F62FE" stroke-width="1.24315" stroke-miterlimit="10"/>
<path d="M292.062 77.7091C290.774 77.7091 289.727 76.6615 289.727 75.3734C289.727 74.0852 290.774 73.0376 292.062 73.0376C293.35 73.0376 294.398 74.0852 294.398 75.3734C294.398 76.6615 293.35 77.7091 292.062 77.7091Z" fill="#0F62FE"/>
<path d="M269.656 119.209L284.028 104.83H303.808" stroke="#0F62FE" stroke-width="1.24315" stroke-miterlimit="10"/>
<path d="M271.391 120.776C270.475 121.692 269.001 121.692 268.085 120.776C267.17 119.861 267.17 118.386 268.085 117.471C269.001 116.555 270.475 116.555 271.391 117.471C272.307 118.386 272.299 119.861 271.391 120.776Z" fill="#0F62FE"/>
<path d="M269.656 119.209L284.028 104.83H303.808" stroke="#0F62FE" stroke-width="1.24315" stroke-miterlimit="10"/>
<path d="M271.391 120.776C270.475 121.692 269.001 121.692 268.085 120.776C267.17 119.861 267.17 118.386 268.085 117.471C269.001 116.555 270.475 116.555 271.391 117.471C272.307 118.386 272.299 119.861 271.391 120.776Z" fill="#0F62FE"/>
<path d="M269.656 119.209L284.028 104.83H303.808" stroke="#0F62FE" stroke-width="1.24315" stroke-miterlimit="10"/>
<path d="M271.391 120.776C270.475 121.692 269.001 121.692 268.085 120.776C267.17 119.861 267.17 118.386 268.085 117.471C269.001 116.555 270.475 116.555 271.391 117.471C272.307 118.386 272.299 119.861 271.391 120.776Z" fill="#0F62FE"/>
<path d="M288.156 115.321H308.068L402.95 20.4399" stroke="#0F62FE" stroke-width="1.24315" stroke-miterlimit="10"/>
<path d="M288.277 117.657C286.989 117.657 285.941 116.61 285.941 115.321C285.941 114.033 286.989 112.986 288.277 112.986C289.565 112.986 290.613 114.033 290.613 115.321C290.613 116.61 289.565 117.657 288.277 117.657Z" fill="#0F62FE"/>
<path d="M288.156 115.321H308.068L402.95 20.4399" stroke="#0F62FE" stroke-width="1.24315" stroke-miterlimit="10"/>
<path d="M288.277 117.657C286.989 117.657 285.941 116.61 285.941 115.321C285.941 114.033 286.989 112.986 288.277 112.986C289.565 112.986 290.613 114.033 290.613 115.321C290.613 116.61 289.565 117.657 288.277 117.657Z" fill="#0F62FE"/>
<path d="M326.711 84.3897L401.044 10.0645" stroke="#0F62FE" stroke-width="1.24315" stroke-miterlimit="10"/>
<path d="M328.446 85.9649C327.53 86.8806 326.056 86.8806 325.14 85.9649C324.224 85.0493 324.224 83.5749 325.14 82.6592C326.056 81.7435 327.53 81.7435 328.446 82.6592C329.354 83.5671 329.354 85.0493 328.446 85.9649Z" fill="#0F62FE"/>
<path d="M279.613 130.957L285.596 124.974H335.206L398.745 61.4355" stroke="#0F62FE" stroke-width="1.24315" stroke-miterlimit="10"/>
<path d="M281.352 132.525C280.436 133.441 278.962 133.441 278.046 132.525C277.13 131.609 277.13 130.135 278.046 129.219C278.962 128.304 280.436 128.304 281.352 129.219C282.268 130.135 282.268 131.609 281.352 132.525Z" fill="#0F62FE"/>
<path d="M332.035 111.232L399.19 44.0847" stroke="#0F62FE" stroke-width="1.24315" stroke-miterlimit="10"/>
<path d="M333.774 112.807C332.858 113.723 331.384 113.723 330.468 112.807C329.552 111.892 329.552 110.417 330.468 109.502C331.384 108.586 332.858 108.586 333.774 109.502C334.689 110.41 334.689 111.892 333.774 112.807Z" fill="#0F62FE"/>
<path d="M332.035 111.232L399.19 44.0847" stroke="#0F62FE" stroke-width="1.24315" stroke-miterlimit="10"/>
<path d="M333.774 112.807C332.858 113.723 331.384 113.723 330.468 112.807C329.552 111.892 329.552 110.417 330.468 109.502C331.384 108.586 332.858 108.586 333.774 109.502C334.689 110.41 334.689 111.892 333.774 112.807Z" fill="#0F62FE"/>
<path d="M332.035 111.232L399.19 44.0847" stroke="#0F62FE" stroke-width="1.24315" stroke-miterlimit="10"/>
<path d="M333.774 112.807C332.858 113.723 331.384 113.723 330.468 112.807C329.552 111.892 329.552 110.417 330.468 109.502C331.384 108.586 332.858 108.586 333.774 109.502C334.689 110.41 334.689 111.892 333.774 112.807Z" fill="#0F62FE"/>
<path d="M352.316 124.144L367.891 108.57H389.549" stroke="#0F62FE" stroke-width="1.24315" stroke-miterlimit="10"/>
<path d="M354.051 125.712C353.135 126.628 351.661 126.628 350.745 125.712C349.83 124.797 349.83 123.322 350.745 122.406C351.661 121.491 353.135 121.491 354.051 122.406C354.959 123.322 354.959 124.797 354.051 125.712Z" fill="#0F62FE"/>
<path d="M380.648 98.2024L397.79 81.0605" stroke="#0F62FE" stroke-width="1.24315" stroke-miterlimit="10"/>
<path d="M382.383 99.7699C381.467 100.686 379.993 100.686 379.077 99.7699C378.162 98.8542 378.162 97.3798 379.077 96.4641C379.993 95.5484 381.467 95.5484 382.383 96.4641C383.291 97.3798 383.291 98.862 382.383 99.7699Z" fill="#0F62FE"/>
<path d="M380.648 98.2024L397.79 81.0605" stroke="#0F62FE" stroke-width="1.24315" stroke-miterlimit="10"/>
<path d="M382.383 99.7699C381.467 100.686 379.993 100.686 379.077 99.7699C378.162 98.8542 378.162 97.3798 379.077 96.4641C379.993 95.5484 381.467 95.5484 382.383 96.4641C383.291 97.3798 383.291 98.862 382.383 99.7699Z" fill="#0F62FE"/>
<path d="M287.516 141.395L292.831 136.079H359.676L374.56 121.196H412.444" stroke="#0F62FE" stroke-width="1.24315" stroke-miterlimit="10"/>
<path d="M289.25 142.963C288.335 143.878 286.86 143.878 285.945 142.963C285.029 142.047 285.029 140.573 285.945 139.657C286.86 138.741 288.335 138.741 289.25 139.657C290.166 140.573 290.166 142.047 289.25 142.963Z" fill="#0F62FE"/>
<path d="M287.516 141.395L292.831 136.079H359.676L374.56 121.196H412.444" stroke="#0F62FE" stroke-width="1.24315" stroke-miterlimit="10"/>
<path d="M289.25 142.963C288.335 143.878 286.86 143.878 285.945 142.963C285.029 142.047 285.029 140.573 285.945 139.657C286.86 138.741 288.335 138.741 289.25 139.657C290.166 140.573 290.166 142.047 289.25 142.963Z" fill="#0F62FE"/>
</g>
<mask id="mask8_139_2625" style="mask-type:luminance" maskUnits="userSpaceOnUse" x="0" y="0" width="388" height="388">
<path d="M388 0H0V388H388V0Z" fill="white"/>
</mask>
<g mask="url(#mask8_139_2625)">
<path d="M172.848 88.5959V40.9961" stroke="#0F62FE" stroke-width="1.24323" stroke-miterlimit="10"/>
<path d="M170.215 88.5957C170.215 90.0468 171.394 91.2264 172.845 91.2264C174.297 91.2264 175.476 90.0468 175.476 88.5957C175.476 87.1446 174.297 85.9651 172.845 85.9651C171.394 85.9651 170.215 87.1368 170.215 88.5957Z" fill="#0F62FE"/>
<path d="M170.215 88.5959C170.215 90.0471 171.394 91.2266 172.845 91.2266C174.297 91.2266 175.476 90.0471 175.476 88.5959" fill="#0F62FE"/>
<path d="M170.215 88.5959C170.215 90.0471 171.394 91.2266 172.845 91.2266C174.297 91.2266 175.476 90.0471 175.476 88.5959" fill="#0F62FE"/>
<path d="M170.215 88.5959C170.215 90.0471 171.394 91.2266 172.845 91.2266C174.297 91.2266 175.476 90.0471 175.476 88.5959" fill="#0F62FE"/>
<path d="M170.215 88.5959C170.215 90.0471 171.394 91.2266 172.845 91.2266C174.297 91.2266 175.476 90.0471 175.476 88.5959" fill="#0F62FE"/>
<path d="M170.215 88.5959C170.215 90.0471 171.394 91.2266 172.845 91.2266C174.297 91.2266 175.476 90.0471 175.476 88.5959" fill="#0F62FE"/>
<path d="M182.582 75.3652V29.201L174.52 22.2791V-14.7439" stroke="#0F62FE" stroke-width="1.15166" stroke-miterlimit="10"/>
<path d="M180.309 75.365C180.309 76.5057 181.232 77.4214 182.365 77.4214C183.506 77.4214 184.421 76.498 184.421 75.365C184.421 74.232 183.498 73.3086 182.365 73.3086C181.232 73.3086 180.309 74.232 180.309 75.365Z" fill="#0F62FE"/>
<path d="M182.582 75.3652V29.201L174.52 22.2791V-14.7439" stroke="#0F62FE" stroke-width="1.15166" stroke-miterlimit="10"/>
<path d="M180.309 75.365C180.309 76.5057 181.232 77.4214 182.365 77.4214C183.506 77.4214 184.421 76.498 184.421 75.365C184.421 74.232 183.498 73.3086 182.365 73.3086C181.232 73.3086 180.309 74.232 180.309 75.365Z" fill="#0F62FE"/>
<path d="M157.771 93.2207V70.0959L74.3281 -13.3396" stroke="#0F62FE" stroke-width="1.24315" stroke-miterlimit="10"/>
<path d="M160.105 93.1043C160.105 94.3925 159.058 95.4401 157.769 95.4401C156.481 95.4401 155.434 94.3925 155.434 93.1043C155.434 91.8162 156.481 90.7686 157.769 90.7686C159.058 90.7686 160.105 91.8162 160.105 93.1043Z" fill="#0F62FE"/>
<path d="M157.771 93.2207V70.0959L74.3281 -13.3396" stroke="#0F62FE" stroke-width="1.24315" stroke-miterlimit="10"/>
<path d="M160.105 93.1043C160.105 94.3925 159.058 95.4401 157.769 95.4401C156.481 95.4401 155.434 94.3925 155.434 93.1043C155.434 91.8162 156.481 90.7686 157.769 90.7686C159.058 90.7686 160.105 91.8162 160.105 93.1043Z" fill="#0F62FE"/>
<path d="M157.771 93.2207V70.0959L74.3281 -13.3396" stroke="#0F62FE" stroke-width="1.24315" stroke-miterlimit="10"/>
<path d="M160.105 93.1043C160.105 94.3925 159.058 95.4401 157.769 95.4401C156.481 95.4401 155.434 94.3925 155.434 93.1043C155.434 91.8162 156.481 90.7686 157.769 90.7686C159.058 90.7686 160.105 91.8162 160.105 93.1043Z" fill="#0F62FE"/>
<path d="M164.986 76.4127V58.4561L123.711 17.1807" stroke="#0F62FE" stroke-width="1.24315" stroke-miterlimit="10"/>
<path d="M167.332 76.2965C167.332 77.5846 166.284 78.6322 164.996 78.6322C163.708 78.6322 162.66 77.5846 162.66 76.2965C162.66 75.0083 163.708 73.9607 164.996 73.9607C166.284 73.9607 167.332 75.0083 167.332 76.2965Z" fill="#0F62FE"/>
<path d="M164.98 42.641V-13.3396" stroke="#0F62FE" stroke-width="1.24315" stroke-miterlimit="10"/>
<path d="M166.387 42.5713C166.387 43.3473 165.759 43.9759 164.983 43.9759C164.207 43.9759 163.578 43.3473 163.578 42.5713C163.578 41.7953 164.207 41.1667 164.983 41.1667C165.759 41.1667 166.387 41.7953 166.387 42.5713Z" fill="#0F62FE"/>
<path d="M154.432 27.2527L132.891 5.71094" stroke="#0F62FE" stroke-width="1.24315" stroke-miterlimit="10"/>
<path d="M155.372 26.2128C155.923 26.7637 155.923 27.6484 155.372 28.1993C154.821 28.7503 153.937 28.7503 153.386 28.1993C152.835 27.6484 152.835 26.7637 153.386 26.2128C153.937 25.6618 154.821 25.6618 155.372 26.2128Z" fill="#0F62FE"/>
<path d="M141.096 100.523L117.902 77.3282V56.6478L49.668 -11.5781" stroke="#0F62FE" stroke-width="1.24315" stroke-miterlimit="10"/>
<path d="M142.668 98.7845C143.584 99.7001 143.584 101.175 142.668 102.09C141.753 103.006 140.278 103.006 139.363 102.09C138.447 101.175 138.447 99.7001 139.363 98.7845C140.278 97.8765 141.753 97.8765 142.668 98.7845Z" fill="#0F62FE"/>
<path d="M129.031 58.0916V73.3089L152.078 96.3561" stroke="#0F62FE" stroke-width="1.24315" stroke-miterlimit="10"/>
<path d="M126.691 58.2078C126.691 56.9197 127.739 55.8721 129.027 55.8721C130.315 55.8721 131.363 56.9197 131.363 58.2078C131.363 59.496 130.315 60.5436 129.027 60.5436C127.739 60.5436 126.691 59.496 126.691 58.2078Z" fill="#0F62FE"/>
<path d="M148.725 77.375L138.086 66.7361" stroke="#0F62FE" stroke-width="1.24315" stroke-miterlimit="10"/>
<path d="M149.982 75.9939C150.712 76.7233 150.712 77.9106 149.982 78.64C149.253 79.3695 148.066 79.3695 147.336 78.64C146.607 77.9106 146.607 76.7233 147.336 75.9939C148.066 75.2644 149.253 75.2644 149.982 75.9939Z" fill="#0F62FE"/>
<path d="M132.776 105.505L107.323 80.06V56.6403L42.4727 -8.21777" stroke="#0F62FE" stroke-width="1.24315" stroke-miterlimit="10"/>
<path d="M134.344 103.775C135.26 104.69 135.26 106.165 134.344 107.08C133.428 107.996 131.954 107.996 131.038 107.08C130.123 106.165 130.123 104.69 131.038 103.775C131.954 102.859 133.436 102.859 134.344 103.775Z" fill="#0F62FE"/>
<path d="M132.776 105.505L107.323 80.06V56.6403L42.4727 -8.21777" stroke="#0F62FE" stroke-width="1.24315" stroke-miterlimit="10"/>
<path d="M134.344 103.775C135.26 104.69 135.26 106.165 134.344 107.08C133.428 107.996 131.954 107.996 131.038 107.08C130.123 106.165 130.123 104.69 131.038 103.775C131.954 102.859 133.436 102.859 134.344 103.775Z" fill="#0F62FE"/>
<path d="M132.776 105.505L107.323 80.06V56.6403L42.4727 -8.21777" stroke="#0F62FE" stroke-width="1.24315" stroke-miterlimit="10"/>
<path d="M134.344 103.775C135.26 104.69 135.26 106.165 134.344 107.08C133.428 107.996 131.954 107.996 131.038 107.08C130.123 106.165 130.123 104.69 131.038 103.775C131.954 102.859 133.436 102.859 134.344 103.775Z" fill="#0F62FE"/>
<path d="M94.5959 59.3486L18.7031 -16.552" stroke="#0F62FE" stroke-width="1.24315" stroke-miterlimit="10"/>
<path d="M96.1644 57.6101C97.0801 58.5258 97.0801 60.0002 96.1644 60.9159C95.2487 61.8316 93.7743 61.8316 92.8586 60.9159C91.943 60.0002 91.943 58.5258 92.8586 57.6101C93.7743 56.7022 95.2565 56.7022 96.1644 57.6101Z" fill="#0F62FE"/>
<path d="M123.54 111.232L106.817 94.5088H81.9307L-11.4531 1.125" stroke="#0F62FE" stroke-width="1.24315" stroke-miterlimit="10"/>
<path d="M125.114 109.501C126.029 110.417 126.029 111.891 125.114 112.807C124.198 113.723 122.724 113.723 121.808 112.807C120.892 111.891 120.892 110.417 121.808 109.501C122.716 108.586 124.198 108.586 125.114 109.501Z" fill="#0F62FE"/>
<path d="M93.9387 75.3645H83.6257L5.20312 -3.05811" stroke="#0F62FE" stroke-width="1.24315" stroke-miterlimit="10"/>
<path d="M95.9794 76.2602C96.4731 75.0683 95.9072 73.7019 94.7153 73.2083C93.5235 72.7146 92.1571 73.2805 91.6634 74.4724C91.1697 75.6642 91.7357 77.0306 92.9275 77.5243C94.1194 78.018 95.4858 77.452 95.9794 76.2602Z" fill="#0F62FE"/>
<path d="M93.9387 75.3645H83.6257L5.20312 -3.05811" stroke="#0F62FE" stroke-width="1.24315" stroke-miterlimit="10"/>
<path d="M95.9794 76.2602C96.4731 75.0683 95.9072 73.7019 94.7153 73.2083C93.5235 72.7146 92.1571 73.2805 91.6634 74.4724C91.1697 75.6642 91.7357 77.0306 92.9275 77.5243C94.1194 78.018 95.4858 77.452 95.9794 76.2602Z" fill="#0F62FE"/>
<path d="M93.9387 75.3645H83.6257L5.20312 -3.05811" stroke="#0F62FE" stroke-width="1.24315" stroke-miterlimit="10"/>
<path d="M95.9794 76.2602C96.4731 75.0683 95.9072 73.7019 94.7153 73.2083C93.5235 72.7146 92.1571 73.2805 91.6634 74.4724C91.1697 75.6642 91.7357 77.0306 92.9275 77.5243C94.1194 78.018 95.4858 77.452 95.9794 76.2602Z" fill="#0F62FE"/>
<path d="M116.238 119.209L101.866 104.83H82.0859" stroke="#0F62FE" stroke-width="1.24315" stroke-miterlimit="10"/>
<path d="M117.805 117.471C118.721 118.387 118.721 119.861 117.805 120.777C116.889 121.692 115.415 121.692 114.499 120.777C113.584 119.861 113.584 118.387 114.499 117.471C115.415 116.555 116.897 116.555 117.805 117.471Z" fill="#0F62FE"/>
<path d="M116.238 119.209L101.866 104.83H82.0859" stroke="#0F62FE" stroke-width="1.24315" stroke-miterlimit="10"/>
<path d="M117.805 117.471C118.721 118.387 118.721 119.861 117.805 120.777C116.889 121.692 115.415 121.692 114.499 120.777C113.584 119.861 113.584 118.387 114.499 117.471C115.415 116.555 116.897 116.555 117.805 117.471Z" fill="#0F62FE"/>
<path d="M116.238 119.209L101.866 104.83H82.0859" stroke="#0F62FE" stroke-width="1.24315" stroke-miterlimit="10"/>
<path d="M117.805 117.471C118.721 118.387 118.721 119.861 117.805 120.777C116.889 121.692 115.415 121.692 114.499 120.777C113.584 119.861 113.584 118.387 114.499 117.471C115.415 116.555 116.897 116.555 117.805 117.471Z" fill="#0F62FE"/>
<path d="M97.7195 115.321H77.8073L-17.0742 20.4395" stroke="#0F62FE" stroke-width="1.24315" stroke-miterlimit="10"/>
<path d="M97.6014 112.985C98.8896 112.985 99.9372 114.033 99.9372 115.321C99.9372 116.609 98.8896 117.657 97.6014 117.657C96.3133 117.657 95.2657 116.609 95.2657 115.321C95.2579 114.033 96.3055 112.985 97.6014 112.985Z" fill="#0F62FE"/>
<path d="M97.7195 115.321H77.8073L-17.0742 20.4395" stroke="#0F62FE" stroke-width="1.24315" stroke-miterlimit="10"/>
<path d="M97.6014 112.985C98.8896 112.985 99.9372 114.033 99.9372 115.321C99.9372 116.609 98.8896 117.657 97.6014 117.657C96.3133 117.657 95.2657 116.609 95.2657 115.321C95.2579 114.033 96.3055 112.985 97.6014 112.985Z" fill="#0F62FE"/>
<path d="M59.1768 84.39L-15.1562 10.0647" stroke="#0F62FE" stroke-width="1.24315" stroke-miterlimit="10"/>
<path d="M60.7425 82.6594C61.6582 83.5751 61.6582 85.0495 60.7425 85.9652C59.8268 86.8809 58.3524 86.8809 57.4368 85.9652C56.5211 85.0495 56.5211 83.5751 57.4368 82.6594C58.3524 81.7437 59.8346 81.7437 60.7425 82.6594Z" fill="#0F62FE"/>
<path d="M106.272 130.957L100.289 124.974H50.6873L-12.8516 61.4355" stroke="#0F62FE" stroke-width="1.24315" stroke-miterlimit="10"/>
<path d="M107.84 129.219C108.756 130.135 108.756 131.609 107.84 132.525C106.924 133.441 105.45 133.441 104.534 132.525C103.619 131.609 103.619 130.135 104.534 129.219C105.45 128.311 106.924 128.311 107.84 129.219Z" fill="#0F62FE"/>
<path d="M53.8621 111.232L-13.293 44.085" stroke="#0F62FE" stroke-width="1.24315" stroke-miterlimit="10"/>
<path d="M55.4261 109.502C56.3418 110.418 56.3418 111.892 55.4261 112.808C54.5104 113.723 53.036 113.723 52.1204 112.808C51.2047 111.892 51.2047 110.418 52.1204 109.502C53.036 108.586 54.5104 108.586 55.4261 109.502Z" fill="#0F62FE"/>
<path d="M53.8621 111.232L-13.293 44.085" stroke="#0F62FE" stroke-width="1.24315" stroke-miterlimit="10"/>
<path d="M55.4261 109.502C56.3418 110.418 56.3418 111.892 55.4261 112.808C54.5104 113.723 53.036 113.723 52.1204 112.808C51.2047 111.892 51.2047 110.418 52.1204 109.502C53.036 108.586 54.5104 108.586 55.4261 109.502Z" fill="#0F62FE"/>
<path d="M53.8621 111.232L-13.293 44.085" stroke="#0F62FE" stroke-width="1.24315" stroke-miterlimit="10"/>
<path d="M55.4261 109.502C56.3418 110.418 56.3418 111.892 55.4261 112.808C54.5104 113.723 53.036 113.723 52.1204 112.808C51.2047 111.892 51.2047 110.418 52.1204 109.502C53.036 108.586 54.5104 108.586 55.4261 109.502Z" fill="#0F62FE"/>
<path d="M33.5606 124.145L17.9863 108.57H-3.67188" stroke="#0F62FE" stroke-width="1.24315" stroke-miterlimit="10"/>
<path d="M35.1253 122.406C36.041 123.322 36.041 124.796 35.1253 125.712C34.2097 126.628 32.7353 126.628 31.8196 125.712C30.9039 124.796 30.9039 123.322 31.8196 122.406C32.7353 121.498 34.2174 121.498 35.1253 122.406Z" fill="#0F62FE"/>
<path d="M5.2395 98.2026L-11.9023 81.0608" stroke="#0F62FE" stroke-width="1.24315" stroke-miterlimit="10"/>
<path d="M6.80502 96.4722C7.7207 97.3878 7.7207 98.8622 6.80502 99.7779C5.88934 100.694 4.41494 100.694 3.49926 99.7779C2.58358 98.8622 2.58358 97.3878 3.49926 96.4722C4.41494 95.5565 5.8971 95.5565 6.80502 96.4722Z" fill="#0F62FE"/>
<path d="M5.2395 98.2026L-11.9023 81.0608" stroke="#0F62FE" stroke-width="1.24315" stroke-miterlimit="10"/>
<path d="M6.80502 96.4722C7.7207 97.3878 7.7207 98.8622 6.80502 99.7779C5.88934 100.694 4.41494 100.694 3.49926 99.7779C2.58358 98.8622 2.58358 97.3878 3.49926 96.4722C4.41494 95.5565 5.8971 95.5565 6.80502 96.4722Z" fill="#0F62FE"/>
<path d="M98.3736 141.395L93.0579 136.079H26.2133L11.3296 121.196H-26.5547" stroke="#0F62FE" stroke-width="1.24315" stroke-miterlimit="10"/>
<path d="M99.9456 139.657C100.861 140.573 100.861 142.047 99.9456 142.963C99.03 143.878 97.5556 143.878 96.6399 142.963C95.7242 142.047 95.7242 140.573 96.6399 139.657C97.5478 138.741 99.03 138.741 99.9456 139.657Z" fill="#0F62FE"/>
<path d="M98.3736 141.395L93.0579 136.079H26.2133L11.3296 121.196H-26.5547" stroke="#0F62FE" stroke-width="1.24315" stroke-miterlimit="10"/>
<path d="M99.9456 139.657C100.861 140.573 100.861 142.047 99.9456 142.963C99.03 143.878 97.5556 143.878 96.6399 142.963C95.7242 142.047 95.7242 140.573 96.6399 139.657C97.5478 138.741 99.03 138.741 99.9456 139.657Z" fill="#0F62FE"/>
</g>
<mask id="mask9_139_2625" style="mask-type:luminance" maskUnits="userSpaceOnUse" x="0" y="0" width="388" height="388">
<path d="M388 0H0V388H388V0Z" fill="white"/>
</mask>
<g mask="url(#mask9_139_2625)">
<path d="M192.777 299.435V407.035" stroke="#0F62FE" stroke-width="1.24323" stroke-miterlimit="10"/>
<path d="M192.779 302.136C194.27 302.136 195.479 300.927 195.479 299.435C195.479 297.944 194.27 296.735 192.779 296.735C191.287 296.735 190.078 297.944 190.078 299.435C190.078 300.927 191.287 302.136 192.779 302.136Z" fill="#0F62FE"/>
<path d="M192.777 299.435V407.035" stroke="#0F62FE" stroke-width="1.24323" stroke-miterlimit="10"/>
<path d="M192.779 302.136C194.27 302.136 195.479 300.927 195.479 299.435C195.479 297.944 194.27 296.735 192.779 296.735C191.287 296.735 190.078 297.944 190.078 299.435C190.078 300.927 191.287 302.136 192.779 302.136Z" fill="#0F62FE"/>
<path d="M192.777 299.435V407.035" stroke="#0F62FE" stroke-width="1.24323" stroke-miterlimit="10"/>
<path d="M192.779 302.136C194.27 302.136 195.479 300.927 195.479 299.435C195.479 297.944 194.27 296.735 192.779 296.735C191.287 296.735 190.078 297.944 190.078 299.435C190.078 300.927 191.287 302.136 192.779 302.136Z" fill="#0F62FE"/>
<path d="M213.035 297.852V345.452" stroke="#0F62FE" stroke-width="1.24323" stroke-miterlimit="10"/>
<path d="M215.664 297.852C215.664 296.401 214.484 295.222 213.033 295.222C211.582 295.222 210.402 296.401 210.402 297.852C210.402 299.303 211.582 300.483 213.033 300.483C214.484 300.483 215.664 299.311 215.664 297.852Z" fill="#0F62FE"/>
<path d="M203.305 311.083V357.247L211.367 364.169V401.192" stroke="#0F62FE" stroke-width="1.15166" stroke-miterlimit="10"/>
<path d="M205.578 311.083C205.578 309.943 204.654 309.027 203.521 309.027C202.381 309.027 201.465 309.95 201.465 311.083C201.465 312.216 202.388 313.14 203.521 313.14C204.654 313.14 205.578 312.216 205.578 311.083Z" fill="#0F62FE"/>
<path d="M203.305 311.083V357.247L211.367 364.169V401.192" stroke="#0F62FE" stroke-width="1.15166" stroke-miterlimit="10"/>
<path d="M205.578 311.083C205.578 309.943 204.654 309.027 203.521 309.027C202.381 309.027 201.465 309.95 201.465 311.083C201.465 312.216 202.388 313.14 203.521 313.14C204.654 313.14 205.578 312.216 205.578 311.083Z" fill="#0F62FE"/>
<path d="M228.102 293.228V316.353L311.545 399.788" stroke="#0F62FE" stroke-width="1.24315" stroke-miterlimit="10"/>
<path d="M225.77 293.344C225.77 292.056 226.817 291.008 228.105 291.008C229.393 291.008 230.441 292.056 230.441 293.344C230.441 294.632 229.393 295.68 228.105 295.68C226.817 295.68 225.77 294.632 225.77 293.344Z" fill="#0F62FE"/>
<path d="M228.102 293.228V316.353L311.545 399.788" stroke="#0F62FE" stroke-width="1.24315" stroke-miterlimit="10"/>
<path d="M225.77 293.344C225.77 292.056 226.817 291.008 228.105 291.008C229.393 291.008 230.441 292.056 230.441 293.344C230.441 294.632 229.393 295.68 228.105 295.68C226.817 295.68 225.77 294.632 225.77 293.344Z" fill="#0F62FE"/>
<path d="M228.102 293.228V316.353L311.545 399.788" stroke="#0F62FE" stroke-width="1.24315" stroke-miterlimit="10"/>
<path d="M225.77 293.344C225.77 292.056 226.817 291.008 228.105 291.008C229.393 291.008 230.441 292.056 230.441 293.344C230.441 294.632 229.393 295.68 228.105 295.68C226.817 295.68 225.77 294.632 225.77 293.344Z" fill="#0F62FE"/>
<path d="M220.902 310.035V327.992L262.178 369.267" stroke="#0F62FE" stroke-width="1.24315" stroke-miterlimit="10"/>
<path d="M218.57 310.152C218.57 308.864 219.618 307.816 220.906 307.816C222.194 307.816 223.242 308.864 223.242 310.152C223.242 311.44 222.194 312.487 220.906 312.487C219.618 312.487 218.57 311.44 218.57 310.152Z" fill="#0F62FE"/>
<path d="M220.898 343.807V399.788" stroke="#0F62FE" stroke-width="1.24315" stroke-miterlimit="10"/>
<path d="M220.901 345.281C221.676 345.281 222.305 344.652 222.305 343.877C222.305 343.101 221.676 342.472 220.901 342.472C220.125 342.472 219.496 343.101 219.496 343.877C219.496 344.652 220.125 345.281 220.901 345.281Z" fill="#0F62FE"/>
<path d="M231.461 359.195L253.003 380.737" stroke="#0F62FE" stroke-width="1.24315" stroke-miterlimit="10"/>
<path d="M230.515 360.235C229.964 359.684 229.964 358.799 230.515 358.248C231.066 357.697 231.95 357.697 232.501 358.248C233.052 358.799 233.052 359.684 232.501 360.235C231.95 360.786 231.066 360.786 230.515 360.235Z" fill="#0F62FE"/>
<path d="M244.789 285.925L267.976 309.119V329.8L336.21 398.026" stroke="#0F62FE" stroke-width="1.24315" stroke-miterlimit="10"/>
<path d="M243.214 287.663C242.298 286.748 242.298 285.273 243.214 284.357C244.13 283.442 245.604 283.442 246.52 284.357C247.436 285.273 247.436 286.748 246.52 287.663C245.604 288.579 244.13 288.571 243.214 287.663Z" fill="#0F62FE"/>
<path d="M256.86 328.357V313.139L233.812 290.092" stroke="#0F62FE" stroke-width="1.24315" stroke-miterlimit="10"/>
<path d="M259.195 328.24C259.195 329.528 258.147 330.576 256.859 330.576C255.571 330.576 254.523 329.528 254.523 328.24C254.523 326.952 255.571 325.905 256.859 325.905C258.147 325.905 259.195 326.952 259.195 328.24Z" fill="#0F62FE"/>
<path d="M237.156 309.073L247.795 319.712" stroke="#0F62FE" stroke-width="1.24315" stroke-miterlimit="10"/>
<path d="M235.903 310.454C235.173 309.725 235.173 308.538 235.903 307.808C236.632 307.079 237.819 307.079 238.549 307.808C239.278 308.538 239.278 309.725 238.549 310.454C237.819 311.184 236.632 311.184 235.903 310.454Z" fill="#0F62FE"/>
<path d="M253.098 280.943L278.55 306.388V329.808L343.409 394.666" stroke="#0F62FE" stroke-width="1.24315" stroke-miterlimit="10"/>
<path d="M251.527 282.673C250.611 281.757 250.611 280.283 251.527 279.367C252.442 278.452 253.917 278.452 254.832 279.367C255.748 280.283 255.748 281.757 254.832 282.673C253.917 283.589 252.435 283.589 251.527 282.673Z" fill="#0F62FE"/>
<path d="M253.098 280.943L278.55 306.388V329.808L343.409 394.666" stroke="#0F62FE" stroke-width="1.24315" stroke-miterlimit="10"/>
<path d="M251.527 282.673C250.611 281.757 250.611 280.283 251.527 279.367C252.442 278.452 253.917 278.452 254.832 279.367C255.748 280.283 255.748 281.757 254.832 282.673C253.917 283.589 252.435 283.589 251.527 282.673Z" fill="#0F62FE"/>
<path d="M253.098 280.943L278.55 306.388V329.808L343.409 394.666" stroke="#0F62FE" stroke-width="1.24315" stroke-miterlimit="10"/>
<path d="M251.527 282.673C250.611 281.757 250.611 280.283 251.527 279.367C252.442 278.452 253.917 278.452 254.832 279.367C255.748 280.283 255.748 281.757 254.832 282.673C253.917 283.589 252.435 283.589 251.527 282.673Z" fill="#0F62FE"/>
<path d="M291.285 327.1L367.178 403" stroke="#0F62FE" stroke-width="1.24315" stroke-miterlimit="10"/>
<path d="M289.714 328.837C288.798 327.922 288.798 326.447 289.714 325.532C290.63 324.616 292.104 324.616 293.02 325.532C293.936 326.447 293.936 327.922 293.02 328.837C292.104 329.745 290.63 329.745 289.714 328.837Z" fill="#0F62FE"/>
<path d="M262.348 275.217L279.07 291.939H303.957L397.341 385.323" stroke="#0F62FE" stroke-width="1.24315" stroke-miterlimit="10"/>
<path d="M260.777 276.947C259.861 276.031 259.861 274.557 260.777 273.641C261.692 272.726 263.167 272.726 264.082 273.641C264.998 274.557 264.998 276.031 264.082 276.947C263.174 277.863 261.692 277.863 260.777 276.947Z" fill="#0F62FE"/>
<path d="M291.945 311.083H302.258L380.681 389.506" stroke="#0F62FE" stroke-width="1.24315" stroke-miterlimit="10"/>
<path d="M292.062 313.419C290.774 313.419 289.727 312.372 289.727 311.084C289.727 309.795 290.774 308.748 292.062 308.748C293.35 308.748 294.398 309.795 294.398 311.084C294.398 312.372 293.35 313.419 292.062 313.419Z" fill="#0F62FE"/>
<path d="M291.945 311.083H302.258L380.681 389.506" stroke="#0F62FE" stroke-width="1.24315" stroke-miterlimit="10"/>
<path d="M292.062 313.419C290.774 313.419 289.727 312.372 289.727 311.084C289.727 309.795 290.774 308.748 292.062 308.748C293.35 308.748 294.398 309.795 294.398 311.084C294.398 312.372 293.35 313.419 292.062 313.419Z" fill="#0F62FE"/>
<path d="M291.945 311.083H302.258L380.681 389.506" stroke="#0F62FE" stroke-width="1.24315" stroke-miterlimit="10"/>
<path d="M292.062 313.419C290.774 313.419 289.727 312.372 289.727 311.084C289.727 309.795 290.774 308.748 292.062 308.748C293.35 308.748 294.398 309.795 294.398 311.084C294.398 312.372 293.35 313.419 292.062 313.419Z" fill="#0F62FE"/>
<path d="M269.652 267.239L284.024 281.618H303.804" stroke="#0F62FE" stroke-width="1.24315" stroke-miterlimit="10"/>
<path d="M268.085 268.977C267.17 268.061 267.17 266.587 268.085 265.671C269.001 264.756 270.475 264.756 271.391 265.671C272.307 266.587 272.307 268.061 271.391 268.977C270.475 269.893 268.993 269.893 268.085 268.977Z" fill="#0F62FE"/>
<path d="M269.652 267.239L284.024 281.618H303.804" stroke="#0F62FE" stroke-width="1.24315" stroke-miterlimit="10"/>
<path d="M268.085 268.977C267.17 268.061 267.17 266.587 268.085 265.671C269.001 264.756 270.475 264.756 271.391 265.671C272.307 266.587 272.307 268.061 271.391 268.977C270.475 269.893 268.993 269.893 268.085 268.977Z" fill="#0F62FE"/>
<path d="M269.652 267.239L284.024 281.618H303.804" stroke="#0F62FE" stroke-width="1.24315" stroke-miterlimit="10"/>
<path d="M268.085 268.977C267.17 268.061 267.17 266.587 268.085 265.671C269.001 264.756 270.475 264.756 271.391 265.671C272.307 266.587 272.307 268.061 271.391 268.977C270.475 269.893 268.993 269.893 268.085 268.977Z" fill="#0F62FE"/>
<path d="M288.156 271.127H308.068L402.95 366.009" stroke="#0F62FE" stroke-width="1.24315" stroke-miterlimit="10"/>
<path d="M288.277 273.463C286.989 273.463 285.941 272.415 285.941 271.127C285.941 269.839 286.989 268.792 288.277 268.792C289.565 268.792 290.613 269.839 290.613 271.127C290.613 272.415 289.565 273.463 288.277 273.463Z" fill="#0F62FE"/>
<path d="M288.156 271.127H308.068L402.95 366.009" stroke="#0F62FE" stroke-width="1.24315" stroke-miterlimit="10"/>
<path d="M288.277 273.463C286.989 273.463 285.941 272.415 285.941 271.127C285.941 269.839 286.989 268.792 288.277 268.792C289.565 268.792 290.613 269.839 290.613 271.127C290.613 272.415 289.565 273.463 288.277 273.463Z" fill="#0F62FE"/>
<path d="M326.711 302.058L401.044 376.384" stroke="#0F62FE" stroke-width="1.24315" stroke-miterlimit="10"/>
<path d="M325.14 303.789C324.224 302.873 324.224 301.399 325.14 300.483C326.056 299.567 327.53 299.567 328.446 300.483C329.361 301.399 329.361 302.873 328.446 303.789C327.53 304.704 326.056 304.704 325.14 303.789Z" fill="#0F62FE"/>
<path d="M279.609 255.49L285.592 261.473H335.202L398.741 325.012" stroke="#0F62FE" stroke-width="1.24315" stroke-miterlimit="10"/>
<path d="M278.042 257.229C277.127 256.313 277.127 254.839 278.042 253.923C278.958 253.007 280.432 253.007 281.348 253.923C282.264 254.839 282.264 256.313 281.348 257.229C280.432 258.137 278.958 258.137 278.042 257.229Z" fill="#0F62FE"/>
<path d="M332.031 275.217L399.186 342.364" stroke="#0F62FE" stroke-width="1.24315" stroke-miterlimit="10"/>
<path d="M330.468 276.947C329.552 276.031 329.552 274.557 330.468 273.641C331.384 272.726 332.858 272.726 333.774 273.641C334.689 274.557 334.689 276.031 333.774 276.947C332.858 277.863 331.384 277.863 330.468 276.947Z" fill="#0F62FE"/>
<path d="M332.031 275.217L399.186 342.364" stroke="#0F62FE" stroke-width="1.24315" stroke-miterlimit="10"/>
<path d="M330.468 276.947C329.552 276.031 329.552 274.557 330.468 273.641C331.384 272.726 332.858 272.726 333.774 273.641C334.689 274.557 334.689 276.031 333.774 276.947C332.858 277.863 331.384 277.863 330.468 276.947Z" fill="#0F62FE"/>
<path d="M332.031 275.217L399.186 342.364" stroke="#0F62FE" stroke-width="1.24315" stroke-miterlimit="10"/>
<path d="M330.468 276.947C329.552 276.031 329.552 274.557 330.468 273.641C331.384 272.726 332.858 272.726 333.774 273.641C334.689 274.557 334.689 276.031 333.774 276.947C332.858 277.863 331.384 277.863 330.468 276.947Z" fill="#0F62FE"/>
<path d="M352.316 262.304L367.891 277.878H389.549" stroke="#0F62FE" stroke-width="1.24315" stroke-miterlimit="10"/>
<path d="M350.745 264.042C349.83 263.127 349.83 261.652 350.745 260.737C351.661 259.821 353.135 259.821 354.051 260.737C354.967 261.652 354.967 263.127 354.051 264.042C353.135 264.95 351.661 264.95 350.745 264.042Z" fill="#0F62FE"/>
<path d="M380.645 288.245L397.786 305.387" stroke="#0F62FE" stroke-width="1.24315" stroke-miterlimit="10"/>
<path d="M379.077 289.976C378.162 289.06 378.162 287.586 379.077 286.67C379.993 285.754 381.467 285.754 382.383 286.67C383.299 287.586 383.299 289.06 382.383 289.976C381.467 290.891 379.993 290.891 379.077 289.976Z" fill="#0F62FE"/>
<path d="M380.645 288.245L397.786 305.387" stroke="#0F62FE" stroke-width="1.24315" stroke-miterlimit="10"/>
<path d="M379.077 289.976C378.162 289.06 378.162 287.586 379.077 286.67C379.993 285.754 381.467 285.754 382.383 286.67C383.299 287.586 383.299 289.06 382.383 289.976C381.467 290.891 379.993 290.891 379.077 289.976Z" fill="#0F62FE"/>
<path d="M287.516 245.053L292.831 250.369H359.676L374.56 265.253H412.444" stroke="#0F62FE" stroke-width="1.24315" stroke-miterlimit="10"/>
<path d="M285.945 246.792C285.029 245.876 285.029 244.402 285.945 243.486C286.86 242.57 288.335 242.57 289.25 243.486C290.166 244.402 290.166 245.876 289.25 246.792C288.342 247.708 286.86 247.708 285.945 246.792Z" fill="#0F62FE"/>
<path d="M287.516 245.053L292.831 250.369H359.676L374.56 265.253H412.444" stroke="#0F62FE" stroke-width="1.24315" stroke-miterlimit="10"/>
<path d="M285.945 246.792C285.029 245.876 285.029 244.402 285.945 243.486C286.86 242.57 288.335 242.57 289.25 243.486C290.166 244.402 290.166 245.876 289.25 246.792C288.342 247.708 286.86 247.708 285.945 246.792Z" fill="#0F62FE"/>
</g>
<mask id="mask10_139_2625" style="mask-type:luminance" maskUnits="userSpaceOnUse" x="0" y="0" width="388" height="388">
<path d="M388 0H0V388H388V0Z" fill="white"/>
</mask>
<g mask="url(#mask10_139_2625)">
<path d="M172.848 297.852V345.452" stroke="#0F62FE" stroke-width="1.24323" stroke-miterlimit="10"/>
<path d="M170.215 297.852C170.215 296.401 171.394 295.222 172.845 295.222C174.297 295.222 175.476 296.401 175.476 297.852C175.476 299.303 174.297 300.483 172.845 300.483C171.394 300.483 170.215 299.311 170.215 297.852Z" fill="#0F62FE"/>
<path d="M182.582 311.083V357.247L174.52 364.169V401.192" stroke="#0F62FE" stroke-width="1.15166" stroke-miterlimit="10"/>
<path d="M180.309 311.083C180.309 309.943 181.232 309.027 182.365 309.027C183.506 309.027 184.421 309.95 184.421 311.083C184.421 312.216 183.498 313.14 182.365 313.14C181.232 313.14 180.309 312.216 180.309 311.083Z" fill="#0F62FE"/>
<path d="M182.582 311.083V357.247L174.52 364.169V401.192" stroke="#0F62FE" stroke-width="1.15166" stroke-miterlimit="10"/>
<path d="M180.309 311.083C180.309 309.943 181.232 309.027 182.365 309.027C183.506 309.027 184.421 309.95 184.421 311.083C184.421 312.216 183.498 313.14 182.365 313.14C181.232 313.14 180.309 312.216 180.309 311.083Z" fill="#0F62FE"/>
<path d="M157.771 293.228V316.353L74.3281 399.788" stroke="#0F62FE" stroke-width="1.24315" stroke-miterlimit="10"/>
<path d="M155.434 293.344C155.434 292.056 156.481 291.008 157.769 291.008C159.058 291.008 160.105 292.056 160.105 293.344C160.105 294.632 159.058 295.68 157.769 295.68C156.473 295.68 155.434 294.632 155.434 293.344Z" fill="#0F62FE"/>
<path d="M157.771 293.228V316.353L74.3281 399.788" stroke="#0F62FE" stroke-width="1.24315" stroke-miterlimit="10"/>
<path d="M155.434 293.344C155.434 292.056 156.481 291.008 157.769 291.008C159.058 291.008 160.105 292.056 160.105 293.344C160.105 294.632 159.058 295.68 157.769 295.68C156.473 295.68 155.434 294.632 155.434 293.344Z" fill="#0F62FE"/>
<path d="M157.771 293.228V316.353L74.3281 399.788" stroke="#0F62FE" stroke-width="1.24315" stroke-miterlimit="10"/>
<path d="M155.434 293.344C155.434 292.056 156.481 291.008 157.769 291.008C159.058 291.008 160.105 292.056 160.105 293.344C160.105 294.632 159.058 295.68 157.769 295.68C156.473 295.68 155.434 294.632 155.434 293.344Z" fill="#0F62FE"/>
<path d="M164.986 310.035V327.992L123.711 369.267" stroke="#0F62FE" stroke-width="1.24315" stroke-miterlimit="10"/>
<path d="M162.652 310.152C162.652 308.864 163.7 307.816 164.988 307.816C166.276 307.816 167.324 308.864 167.324 310.152C167.324 311.44 166.276 312.487 164.988 312.487C163.7 312.487 162.652 311.44 162.652 310.152Z" fill="#0F62FE"/>
<path d="M164.98 343.807V399.788" stroke="#0F62FE" stroke-width="1.24315" stroke-miterlimit="10"/>
<path d="M164.983 345.281C165.758 345.281 166.387 344.652 166.387 343.877C166.387 343.101 165.758 342.472 164.983 342.472C164.207 342.472 163.578 343.101 163.578 343.877C163.578 344.652 164.207 345.281 164.983 345.281Z" fill="#0F62FE"/>
<path d="M154.432 359.195L132.891 380.737" stroke="#0F62FE" stroke-width="1.24315" stroke-miterlimit="10"/>
<path d="M153.387 358.256C153.938 357.706 154.822 357.706 155.373 358.256C155.924 358.807 155.924 359.692 155.373 360.243C154.822 360.794 153.938 360.794 153.387 360.243C152.836 359.692 152.844 358.8 153.387 358.256Z" fill="#0F62FE"/>
<path d="M141.096 285.925L117.902 309.119V329.8L49.668 398.026" stroke="#0F62FE" stroke-width="1.24315" stroke-miterlimit="10"/>
<path d="M139.363 284.357C140.278 283.442 141.753 283.442 142.668 284.357C143.584 285.273 143.584 286.748 142.668 287.663C141.753 288.579 140.278 288.579 139.363 287.663C138.447 286.748 138.447 285.265 139.363 284.357Z" fill="#0F62FE"/>
<path d="M129.031 328.357V313.139L152.078 290.092" stroke="#0F62FE" stroke-width="1.24315" stroke-miterlimit="10"/>
<path d="M131.363 328.24C131.363 329.528 130.315 330.576 129.027 330.576C127.739 330.576 126.691 329.528 126.691 328.24C126.691 326.952 127.739 325.905 129.027 325.905C130.315 325.905 131.363 326.952 131.363 328.24Z" fill="#0F62FE"/>
<path d="M148.725 309.073L138.086 319.712" stroke="#0F62FE" stroke-width="1.24315" stroke-miterlimit="10"/>
<path d="M147.336 307.816C148.066 307.087 149.253 307.087 149.982 307.816C150.712 308.546 150.712 309.733 149.982 310.462C149.253 311.192 148.066 311.192 147.336 310.462C146.607 309.725 146.607 308.546 147.336 307.816Z" fill="#0F62FE"/>
<path d="M132.776 280.943L107.323 306.388V329.808L42.4727 394.666" stroke="#0F62FE" stroke-width="1.24315" stroke-miterlimit="10"/>
<path d="M131.04 279.367C131.956 278.452 133.43 278.452 134.346 279.367C135.262 280.283 135.262 281.757 134.346 282.673C133.43 283.589 131.956 283.589 131.04 282.673C130.132 281.765 130.132 280.283 131.04 279.367Z" fill="#0F62FE"/>
<path d="M132.776 280.943L107.323 306.388V329.808L42.4727 394.666" stroke="#0F62FE" stroke-width="1.24315" stroke-miterlimit="10"/>
<path d="M131.04 279.367C131.956 278.452 133.43 278.452 134.346 279.367C135.262 280.283 135.262 281.757 134.346 282.673C133.43 283.589 131.956 283.589 131.04 282.673C130.132 281.765 130.132 280.283 131.04 279.367Z" fill="#0F62FE"/>
<path d="M132.776 280.943L107.323 306.388V329.808L42.4727 394.666" stroke="#0F62FE" stroke-width="1.24315" stroke-miterlimit="10"/>
<path d="M131.04 279.367C131.956 278.452 133.43 278.452 134.346 279.367C135.262 280.283 135.262 281.757 134.346 282.673C133.43 283.589 131.956 283.589 131.04 282.673C130.132 281.765 130.132 280.283 131.04 279.367Z" fill="#0F62FE"/>
<path d="M94.5959 327.1L18.7031 403" stroke="#0F62FE" stroke-width="1.24315" stroke-miterlimit="10"/>
<path d="M92.8606 325.532C93.7763 324.616 95.2507 324.616 96.1664 325.532C97.0821 326.447 97.0821 327.922 96.1664 328.837C95.2507 329.753 93.7763 329.753 92.8606 328.837C91.9527 327.922 91.9527 326.447 92.8606 325.532Z" fill="#0F62FE"/>
<path d="M123.54 275.217L106.817 291.94H81.9307L-11.4531 385.323" stroke="#0F62FE" stroke-width="1.24315" stroke-miterlimit="10"/>
<path d="M121.808 273.641C122.724 272.726 124.198 272.726 125.114 273.641C126.029 274.557 126.029 276.031 125.114 276.947C124.198 277.863 122.724 277.863 121.808 276.947C120.892 276.039 120.892 274.557 121.808 273.641Z" fill="#0F62FE"/>
<path d="M93.9387 311.083H83.6257L5.20312 389.506" stroke="#0F62FE" stroke-width="1.24315" stroke-miterlimit="10"/>
<path d="M94.7232 313.246C95.915 312.752 96.4809 311.386 95.9873 310.194C95.4936 309.002 94.1272 308.436 92.9354 308.93C91.7435 309.423 91.1776 310.79 91.6712 311.982C92.1649 313.173 93.5313 313.739 94.7232 313.246Z" fill="#0F62FE"/>
<path d="M93.9387 311.083H83.6257L5.20312 389.506" stroke="#0F62FE" stroke-width="1.24315" stroke-miterlimit="10"/>
<path d="M94.7232 313.246C95.915 312.752 96.4809 311.386 95.9873 310.194C95.4936 309.002 94.1272 308.436 92.9354 308.93C91.7435 309.423 91.1776 310.79 91.6712 311.982C92.1649 313.173 93.5313 313.739 94.7232 313.246Z" fill="#0F62FE"/>
<path d="M93.9387 311.083H83.6257L5.20312 389.506" stroke="#0F62FE" stroke-width="1.24315" stroke-miterlimit="10"/>
<path d="M94.7232 313.246C95.915 312.752 96.4809 311.386 95.9873 310.194C95.4936 309.002 94.1272 308.436 92.9354 308.93C91.7435 309.423 91.1776 310.79 91.6712 311.982C92.1649 313.173 93.5313 313.739 94.7232 313.246Z" fill="#0F62FE"/>
<path d="M116.238 267.239L101.866 281.618H82.0859" stroke="#0F62FE" stroke-width="1.24315" stroke-miterlimit="10"/>
<path d="M114.497 265.671C115.413 264.755 116.887 264.755 117.803 265.671C118.719 266.587 118.719 268.061 117.803 268.977C116.887 269.893 115.413 269.893 114.497 268.977C113.589 268.061 113.589 266.587 114.497 265.671Z" fill="#0F62FE"/>
<path d="M116.238 267.239L101.866 281.618H82.0859" stroke="#0F62FE" stroke-width="1.24315" stroke-miterlimit="10"/>
<path d="M114.497 265.671C115.413 264.755 116.887 264.755 117.803 265.671C118.719 266.587 118.719 268.061 117.803 268.977C116.887 269.893 115.413 269.893 114.497 268.977C113.589 268.061 113.589 266.587 114.497 265.671Z" fill="#0F62FE"/>
<path d="M116.238 267.239L101.866 281.618H82.0859" stroke="#0F62FE" stroke-width="1.24315" stroke-miterlimit="10"/>
<path d="M114.497 265.671C115.413 264.755 116.887 264.755 117.803 265.671C118.719 266.587 118.719 268.061 117.803 268.977C116.887 269.893 115.413 269.893 114.497 268.977C113.589 268.061 113.589 266.587 114.497 265.671Z" fill="#0F62FE"/>
<path d="M97.7195 271.127H77.8073L-17.0742 366.009" stroke="#0F62FE" stroke-width="1.24315" stroke-miterlimit="10"/>
<path d="M97.6014 268.792C98.8896 268.792 99.9372 269.839 99.9372 271.127C99.9372 272.415 98.8896 273.463 97.6014 273.463C96.3133 273.463 95.2657 272.415 95.2657 271.127C95.2579 269.839 96.3055 268.792 97.6014 268.792Z" fill="#0F62FE"/>
<path d="M97.7195 271.127H77.8073L-17.0742 366.009" stroke="#0F62FE" stroke-width="1.24315" stroke-miterlimit="10"/>
<path d="M97.6014 268.792C98.8896 268.792 99.9372 269.839 99.9372 271.127C99.9372 272.415 98.8896 273.463 97.6014 273.463C96.3133 273.463 95.2657 272.415 95.2657 271.127C95.2579 269.839 96.3055 268.792 97.6014 268.792Z" fill="#0F62FE"/>
<path d="M59.1768 302.058L-15.1562 376.384" stroke="#0F62FE" stroke-width="1.24315" stroke-miterlimit="10"/>
<path d="M61.3249 302.847C61.7175 301.618 61.0395 300.304 59.8107 299.911C58.5818 299.519 57.2674 300.197 56.8748 301.426C56.4823 302.654 57.1603 303.969 58.3891 304.361C59.618 304.754 60.9324 304.076 61.3249 302.847Z" fill="#0F62FE"/>
<path d="M106.272 255.49L100.289 261.473H50.6873L-12.8516 325.012" stroke="#0F62FE" stroke-width="1.24315" stroke-miterlimit="10"/>
<path d="M104.533 253.923C105.448 253.007 106.923 253.007 107.838 253.923C108.754 254.839 108.754 256.313 107.838 257.229C106.923 258.145 105.448 258.145 104.533 257.229C103.625 256.313 103.625 254.839 104.533 253.923Z" fill="#0F62FE"/>
<path d="M53.8621 275.217L-13.293 342.364" stroke="#0F62FE" stroke-width="1.24315" stroke-miterlimit="10"/>
<path d="M52.1263 273.641C53.0419 272.726 54.5163 272.726 55.432 273.641C56.3477 274.557 56.3477 276.031 55.432 276.947C54.5163 277.863 53.0419 277.863 52.1263 276.947C51.2183 276.039 51.2183 274.557 52.1263 273.641Z" fill="#0F62FE"/>
<path d="M53.8621 275.217L-13.293 342.364" stroke="#0F62FE" stroke-width="1.24315" stroke-miterlimit="10"/>
<path d="M52.1263 273.641C53.0419 272.726 54.5163 272.726 55.432 273.641C56.3477 274.557 56.3477 276.031 55.432 276.947C54.5163 277.863 53.0419 277.863 52.1263 276.947C51.2183 276.039 51.2183 274.557 52.1263 273.641Z" fill="#0F62FE"/>
<path d="M53.8621 275.217L-13.293 342.364" stroke="#0F62FE" stroke-width="1.24315" stroke-miterlimit="10"/>
<path d="M52.1263 273.641C53.0419 272.726 54.5163 272.726 55.432 273.641C56.3477 274.557 56.3477 276.031 55.432 276.947C54.5163 277.863 53.0419 277.863 52.1263 276.947C51.2183 276.039 51.2183 274.557 52.1263 273.641Z" fill="#0F62FE"/>
<path d="M33.5606 262.304L17.9863 277.878H-3.67188" stroke="#0F62FE" stroke-width="1.24315" stroke-miterlimit="10"/>
<path d="M31.8255 260.737C32.7412 259.821 34.2156 259.821 35.1312 260.737C36.0469 261.652 36.0469 263.127 35.1312 264.042C34.2156 264.958 32.7412 264.958 31.8255 264.042C30.9176 263.127 30.9176 261.652 31.8255 260.737Z" fill="#0F62FE"/>
<path d="M5.2395 288.246L-11.9023 305.387" stroke="#0F62FE" stroke-width="1.24315" stroke-miterlimit="10"/>
<path d="M3.50125 286.678C4.41693 285.763 5.89133 285.763 6.80701 286.678C7.72269 287.594 7.72269 289.068 6.80701 289.984C5.89133 290.9 4.41693 290.9 3.50125 289.984C2.59333 289.068 2.59333 287.586 3.50125 286.678Z" fill="#0F62FE"/>
<path d="M5.2395 288.246L-11.9023 305.387" stroke="#0F62FE" stroke-width="1.24315" stroke-miterlimit="10"/>
<path d="M3.50125 286.678C4.41693 285.763 5.89133 285.763 6.80701 286.678C7.72269 287.594 7.72269 289.068 6.80701 289.984C5.89133 290.9 4.41693 290.9 3.50125 289.984C2.59333 289.068 2.59333 287.586 3.50125 286.678Z" fill="#0F62FE"/>
<path d="M98.3736 245.053L93.0579 250.369H26.2133L11.3296 265.253H-26.5547" stroke="#0F62FE" stroke-width="1.24315" stroke-miterlimit="10"/>
<path d="M96.6399 243.486C97.5556 242.57 99.03 242.57 99.9456 243.486C100.861 244.402 100.861 245.876 99.9456 246.792C99.03 247.708 97.5556 247.708 96.6399 246.792C95.7242 245.876 95.7242 244.402 96.6399 243.486Z" fill="#0F62FE"/>
<path d="M98.3736 245.053L93.0579 250.369H26.2133L11.3296 265.253H-26.5547" stroke="#0F62FE" stroke-width="1.24315" stroke-miterlimit="10"/>
<path d="M96.6399 243.486C97.5556 242.57 99.03 242.57 99.9456 243.486C100.861 244.402 100.861 245.876 99.9456 246.792C99.03 247.708 97.5556 247.708 96.6399 246.792C95.7242 245.876 95.7242 244.402 96.6399 243.486Z" fill="#0F62FE"/>
</g>
<mask id="mask11_139_2625" style="mask-type:luminance" maskUnits="userSpaceOnUse" x="0" y="0" width="388" height="388">
<path d="M388 0H0V388H388V0Z" fill="white"/>
</mask>
<g mask="url(#mask11_139_2625)">
<path d="M296.602 175.919H355.05" stroke="#0F62FE" stroke-width="5.432" stroke-miterlimit="10" stroke-dasharray="3.88 3.88"/>
</g>
<mask id="mask12_139_2625" style="mask-type:luminance" maskUnits="userSpaceOnUse" x="0" y="0" width="388" height="388">
<path d="M388 0H0V388H388V0Z" fill="white"/>
</mask>
<g mask="url(#mask12_139_2625)">
<path d="M299.477 199.036H390.719" stroke="#0F62FE" stroke-width="5.432" stroke-miterlimit="10" stroke-dasharray="3.88 3.88"/>
</g>
<mask id="mask13_139_2625" style="mask-type:luminance" maskUnits="userSpaceOnUse" x="0" y="0" width="388" height="388">
<path d="M388 0H0V388H388V0Z" fill="white"/>
</mask>
<g mask="url(#mask13_139_2625)">
<path d="M294.555 223.667H429.385" stroke="#0F62FE" stroke-width="5.432" stroke-miterlimit="10" stroke-dasharray="3.88 3.88"/>
</g>
<mask id="mask14_139_2625" style="mask-type:luminance" maskUnits="userSpaceOnUse" x="0" y="0" width="388" height="388">
<path d="M388 0H0V388H388V0Z" fill="white"/>
</mask>
<g mask="url(#mask14_139_2625)">
<path d="M15.2656 151.84H95.4264" stroke="#0F62FE" stroke-width="5.432" stroke-miterlimit="10" stroke-dasharray="3.88 3.88"/>
</g>
<mask id="mask15_139_2625" style="mask-type:luminance" maskUnits="userSpaceOnUse" x="0" y="0" width="388" height="388">
<path d="M388 0H0V388H388V0Z" fill="white"/>
</mask>
<g mask="url(#mask15_139_2625)">
<path d="M-2.85156 176.618H87.7464" stroke="#0F62FE" stroke-width="5.432" stroke-miterlimit="10" stroke-dasharray="3.88 3.88"/>
</g>
<mask id="mask16_139_2625" style="mask-type:luminance" maskUnits="userSpaceOnUse" x="0" y="0" width="388" height="388">
<path d="M388 0H0V388H388V0Z" fill="white"/>
</mask>
<g mask="url(#mask16_139_2625)">
<path d="M29.0156 204.592H88.0537" stroke="#0F62FE" stroke-width="5.432" stroke-miterlimit="10" stroke-dasharray="3.88 3.88"/>
</g>
<mask id="mask17_139_2625" style="mask-type:luminance" maskUnits="userSpaceOnUse" x="0" y="0" width="388" height="388">
<path d="M388 0H0V388H388V0Z" fill="white"/>
</mask>
<g mask="url(#mask17_139_2625)">
<path d="M296.602 175.919H355.05" stroke="#0F62FE" stroke-width="5.432" stroke-miterlimit="10" stroke-dasharray="3.88 3.88"/>
</g>
<mask id="mask18_139_2625" style="mask-type:luminance" maskUnits="userSpaceOnUse" x="0" y="0" width="388" height="388">
<path d="M388 0H0V388H388V0Z" fill="white"/>
</mask>
<g mask="url(#mask18_139_2625)">
<path d="M29.0156 204.592H88.0537" stroke="#0F62FE" stroke-width="5.432" stroke-miterlimit="10" stroke-dasharray="3.88 3.88"/>
</g>
<mask id="mask19_139_2625" style="mask-type:luminance" maskUnits="userSpaceOnUse" x="0" y="0" width="388" height="388">
<path d="M388 0H0V388H388V0Z" fill="white"/>
</mask>
<g mask="url(#mask19_139_2625)">
<path d="M296.602 175.919H355.05" stroke="#0F62FE" stroke-width="5.432" stroke-miterlimit="10" stroke-dasharray="3.88 3.88"/>
</g>
<mask id="mask20_139_2625" style="mask-type:luminance" maskUnits="userSpaceOnUse" x="0" y="0" width="388" height="388">
<path d="M388 0H0V388H388V0Z" fill="white"/>
</mask>
<g mask="url(#mask20_139_2625)">
<path d="M29.0156 204.592H88.0537" stroke="#0F62FE" stroke-width="5.432" stroke-miterlimit="10" stroke-dasharray="3.88 3.88"/>
</g>
<mask id="mask21_139_2625" style="mask-type:luminance" maskUnits="userSpaceOnUse" x="0" y="0" width="388" height="388">
<path d="M388 0H0V388H388V0Z" fill="white"/>
</mask>
<g mask="url(#mask21_139_2625)">
<path d="M-25.7188 226.049H91.6668" stroke="#0F62FE" stroke-width="5.432" stroke-miterlimit="10" stroke-dasharray="3.88 3.88"/>
</g>
<mask id="mask22_139_2625" style="mask-type:luminance" maskUnits="userSpaceOnUse" x="0" y="0" width="388" height="388">
<path d="M388 0H0V388H388V0Z" fill="white"/>
</mask>
<g mask="url(#mask22_139_2625)">
<path d="M291.328 154.541H395.242" stroke="#0F62FE" stroke-width="5.432" stroke-miterlimit="10" stroke-dasharray="3.88 3.88"/>
</g>
<mask id="mask23_139_2625" style="mask-type:luminance" maskUnits="userSpaceOnUse" x="0" y="0" width="388" height="388">
<path d="M388 0H0V388H388V0Z" fill="white"/>
</mask>
<g mask="url(#mask23_139_2625)">
<path d="M299.477 199.036H390.719" stroke="#0F62FE" stroke-width="5.432" stroke-miterlimit="10" stroke-dasharray="3.88 3.88"/>
</g>
<mask id="mask24_139_2625" style="mask-type:luminance" maskUnits="userSpaceOnUse" x="0" y="0" width="388" height="388">
<path d="M388 0H0V388H388V0Z" fill="white"/>
</mask>
<g mask="url(#mask24_139_2625)">
<path d="M-2.85156 176.618H87.7464" stroke="#0F62FE" stroke-width="5.432" stroke-miterlimit="10" stroke-dasharray="3.88 3.88"/>
</g>
<mask id="mask25_139_2625" style="mask-type:luminance" maskUnits="userSpaceOnUse" x="0" y="0" width="388" height="388">
<path d="M388 0H0V388H388V0Z" fill="white"/>
</mask>
<g mask="url(#mask25_139_2625)">
<path d="M-25.7188 226.049H91.6668" stroke="#0F62FE" stroke-width="5.432" stroke-miterlimit="10" stroke-dasharray="3.88 3.88"/>
</g>
<mask id="mask26_139_2625" style="mask-type:luminance" maskUnits="userSpaceOnUse" x="0" y="0" width="388" height="388">
<path d="M388 0H0V388H388V0Z" fill="white"/>
</mask>
<g mask="url(#mask26_139_2625)">
<path d="M291.328 154.541H395.242" stroke="#0F62FE" stroke-width="5.432" stroke-miterlimit="10" stroke-dasharray="3.88 3.88"/>
</g>
</g>
<path d="M149.62 195L153.58 202.02L149.62 209H135.6V195H149.62ZM149 202.02L146.82 198.14H139.82V205.86H146.82L149 202.02ZM155.237 205.86V200.62L158.417 197.42H170.937V208.98H166.717V207.48L165.197 209H158.417L155.237 205.86ZM159.457 205.86H166.717V200.56H159.457V205.86ZM177.958 192.58V197.42H185.798L182.698 200.56H177.958V205.86H188.198L185.058 209H176.918L173.738 205.86V195.02L177.958 192.58ZM189.69 205.86V200.62L192.87 197.42H205.39V208.98H201.17V207.48L199.65 209H192.87L189.69 205.86ZM193.91 205.86H201.17V200.56H193.91V205.86ZM208.411 197.42H220.931L224.111 200.62V205.86L220.931 209H214.151L212.631 207.48V211.38L208.411 213.82V197.42ZM212.631 200.56V205.86H219.891V200.56H212.631ZM226.711 208.98V197.42H230.931V208.98H226.711ZM230.931 192.88V196.18H226.711V192.88H230.931ZM232.877 208.98L238.277 203.2L232.877 197.42H237.777L240.717 200.58L243.677 197.42H248.577L243.177 203.2L248.577 208.98H243.677L240.717 205.82L237.777 208.98H232.877ZM254.72 192.58V209L250.5 208.98V195.02L254.72 192.58Z" fill="#0F62FE"/>
<defs>
<clipPath id="clip0_139_2625">
<rect width="388" height="388" fill="white"/>
</clipPath>
</defs>
</svg>
