<svg width="22" height="22" viewBox="0 0 22 22" fill="none" xmlns="http://www.w3.org/2000/svg">
<g clip-path="url(#clip0_119_1124)">
<path fill-rule="evenodd" clip-rule="evenodd" d="M8.46214 8.23738L10.6684 6.24166C11.1758 5.78358 11.7768 5.44132 12.4297 5.23863C13.0825 5.03593 13.7717 4.97764 14.4493 5.06781L17.369 5.45438L21.4201 3.26538C21.48 3.23298 21.5473 3.21669 21.6153 3.2181C21.6833 3.21952 21.7499 3.23858 21.8083 3.27344C21.8668 3.30829 21.9152 3.35774 21.9488 3.41693C21.9824 3.47612 22 3.54303 22 3.61109V11.0565C22 11.3064 21.9403 11.5526 21.8261 11.7748C21.7119 11.9969 21.5463 12.1887 21.3431 12.3341L18.6151 14.2842L15.6609 11.8077C16.2371 11.6005 16.7569 11.2615 17.1789 10.8177C17.2685 10.7248 17.339 10.6152 17.3863 10.4951C17.4336 10.375 17.4568 10.2467 17.4545 10.1177C17.4523 9.98859 17.4246 9.86123 17.3731 9.74285C17.3217 9.62448 17.2474 9.5174 17.1545 9.42773C17.0616 9.33807 16.952 9.26757 16.8319 9.22027C16.7118 9.17297 16.5836 9.14979 16.4545 9.15205C16.3254 9.15431 16.1981 9.18197 16.0797 9.23345C15.9613 9.28494 15.8542 9.35923 15.7646 9.45209C15.4739 9.75538 15.136 9.95024 14.74 10.0272C14.3959 10.0948 13.9574 10.0838 13.4059 9.91409L12.705 9.32481L10.7486 10.9104C10.3917 11.193 9.93913 11.3264 9.486 11.2824C9.03287 11.2384 8.6144 11.0206 8.31847 10.6747C8.02255 10.3287 7.87219 9.88152 7.89898 9.42705C7.92577 8.97258 8.12762 8.54617 8.46214 8.23738ZM7.14529 6.77909L8.72929 5.34752C8.0483 5.16172 7.33479 5.12792 6.63929 5.24852L3.75572 5.74824L0.590858 4.04481C0.529751 4.01187 0.461135 3.99537 0.391732 3.99692C0.322329 3.99848 0.254521 4.01804 0.194952 4.05368C0.135383 4.08933 0.0860961 4.13984 0.051921 4.20027C0.0177459 4.26069 -0.000145167 4.32896 8.87114e-07 4.39838V11.0549C8.87114e-07 11.5861 0.262429 12.0827 0.700858 12.3812L9.273 18.2254C9.81488 18.5946 10.4568 18.7891 11.1125 18.7827C11.7682 18.7762 12.4062 18.5691 12.9407 18.1892L16.8787 15.3937L12.683 11.8737L11.9837 12.4362C11.2292 13.0426 10.2683 13.3314 9.3046 13.2415C8.34086 13.1515 7.44999 12.6899 6.82074 11.9544C6.19149 11.2189 5.8733 10.2674 5.93359 9.30132C5.99388 8.33527 6.42948 7.43064 7.14529 6.77909Z" fill="white"/>
</g>
<defs>
<clipPath id="clip0_119_1124">
<rect width="22" height="22" fill="white"/>
</clipPath>
</defs>
</svg>
