<svg width="24" height="22" viewBox="0 0 24 22" fill="none" xmlns="http://www.w3.org/2000/svg">
<path d="M15.8304 16.6L18.6016 21.4H16.7552L13.984 16.6H10.0256L7.2544 21.4H5.408L8.1792 16.6H3.2C2.98783 16.6 2.78434 16.5157 2.63431 16.3657C2.48429 16.2156 2.4 16.0121 2.4 15.8V2.19998H0.8C0.587827 2.19998 0.384344 2.11569 0.234315 1.96566C0.0842854 1.81563 0 1.61215 0 1.39998C0 1.1878 0.0842854 0.984319 0.234315 0.83429C0.384344 0.684261 0.587827 0.599976 0.8 0.599976H23.2C23.4122 0.599976 23.6157 0.684261 23.7657 0.83429C23.9157 0.984319 24 1.1878 24 1.39998C24 1.61215 23.9157 1.81563 23.7657 1.96566C23.6157 2.11569 23.4122 2.19998 23.2 2.19998H21.6V15.8C21.6 16.0121 21.5157 16.2156 21.3657 16.3657C21.2157 16.5157 21.0122 16.6 20.8 16.6H15.8304ZM20 2.19998H4V15H20V2.19998ZM8 8.59998C8.21217 8.59998 8.41566 8.68426 8.56569 8.83429C8.71571 8.98432 8.8 9.1878 8.8 9.39998V11C8.8 11.2121 8.71571 11.4156 8.56569 11.5657C8.41566 11.7157 8.21217 11.8 8 11.8C7.78783 11.8 7.58434 11.7157 7.43431 11.5657C7.28429 11.4156 7.2 11.2121 7.2 11V9.39998C7.2 9.1878 7.28429 8.98432 7.43431 8.83429C7.58434 8.68426 7.78783 8.59998 8 8.59998ZM12 6.99998C12.2122 6.99998 12.4157 7.08426 12.5657 7.23429C12.7157 7.38432 12.8 7.5878 12.8 7.79998V11C12.8 11.2121 12.7157 11.4156 12.5657 11.5657C12.4157 11.7157 12.2122 11.8 12 11.8C11.7878 11.8 11.5843 11.7157 11.4343 11.5657C11.2843 11.4156 11.2 11.2121 11.2 11V7.79998C11.2 7.5878 11.2843 7.38432 11.4343 7.23429C11.5843 7.08426 11.7878 6.99998 12 6.99998ZM16 5.39998C16.2122 5.39998 16.4157 5.48426 16.5657 5.63429C16.7157 5.78432 16.8 5.9878 16.8 6.19998V11C16.8 11.2121 16.7157 11.4156 16.5657 11.5657C16.4157 11.7157 16.2122 11.8 16 11.8C15.7878 11.8 15.5843 11.7157 15.4343 11.5657C15.2843 11.4156 15.2 11.2121 15.2 11V6.19998C15.2 5.9878 15.2843 5.78432 15.4343 5.63429C15.5843 5.48426 15.7878 5.39998 16 5.39998Z" fill="white"/>
</svg>
