<svg width="26" height="31" viewBox="0 0 26 31" fill="none" xmlns="http://www.w3.org/2000/svg">
<g filter="url(#filter0_d_365_1578)">
<path d="M13 1.98718C10.8128 1.98976 8.71584 2.85979 7.16923 4.4064C5.62261 5.95302 4.75259 8.04994 4.75001 10.2372C4.74739 12.0246 5.33124 13.7635 6.41201 15.1872C6.41201 15.1872 6.63701 15.4834 6.67376 15.5262L13 22.9872L19.3293 15.5224C19.3623 15.4827 19.588 15.1872 19.588 15.1872L19.5888 15.1849C20.669 13.7619 21.2526 12.0238 21.25 10.2372C21.2474 8.04994 20.3774 5.95302 18.8308 4.4064C17.2842 2.85979 15.1873 1.98976 13 1.98718ZM13 13.2372C12.4067 13.2372 11.8266 13.0612 11.3333 12.7316C10.84 12.4019 10.4554 11.9334 10.2284 11.3852C10.0013 10.8371 9.9419 10.2339 10.0577 9.65191C10.1734 9.06997 10.4591 8.53542 10.8787 8.11586C11.2982 7.6963 11.8328 7.41058 12.4147 7.29483C12.9967 7.17907 13.5999 7.23848 14.1481 7.46554C14.6962 7.69261 15.1648 8.07712 15.4944 8.57047C15.8241 9.06382 16 9.64384 16 10.2372C15.999 11.0325 15.6826 11.795 15.1202 12.3574C14.5578 12.9198 13.7954 13.2362 13 13.2372Z" fill="white"/>
</g>
<defs>
<filter id="filter0_d_365_1578" x="-3" y="0.487183" width="32" height="32" filterUnits="userSpaceOnUse" color-interpolation-filters="sRGB">
<feFlood flood-opacity="0" result="BackgroundImageFix"/>
<feColorMatrix in="SourceAlpha" type="matrix" values="0 0 0 0 0 0 0 0 0 0 0 0 0 0 0 0 0 0 127 0" result="hardAlpha"/>
<feOffset dy="4"/>
<feGaussianBlur stdDeviation="2"/>
<feComposite in2="hardAlpha" operator="out"/>
<feColorMatrix type="matrix" values="0 0 0 0 0 0 0 0 0 0 0 0 0 0 0 0 0 0 0.25 0"/>
<feBlend mode="normal" in2="BackgroundImageFix" result="effect1_dropShadow_365_1578"/>
<feBlend mode="normal" in="SourceGraphic" in2="effect1_dropShadow_365_1578" result="shape"/>
</filter>
</defs>
</svg>
