<svg width="85" height="84" viewBox="0 0 85 84" fill="none" xmlns="http://www.w3.org/2000/svg">
<ellipse cx="42.2641" cy="41.7309" rx="13.2236" ry="13.4048" fill="#1A2AEA"/>
<path d="M48.6113 26.2572L47.7572 27.6459L50.5346 29.3541L51.3887 27.9654L48.6113 26.2572ZM56.5862 16.4028C60.6766 18.9185 66.0319 17.6421 68.5476 13.5517C71.0634 9.46129 69.7869 4.10596 65.6965 1.59021C61.6062 -0.925539 56.2508 0.350952 53.7351 4.44133C51.2193 8.53171 52.4958 13.887 56.5862 16.4028ZM51.3887 27.9654L62.53 9.8506L59.7527 8.14241L48.6113 26.2572L51.3887 27.9654Z" fill="#00AB1B"/>
<path d="M59.627 3.28172C61.3314 2.72672 62.5609 3.28169 60.7744 4.10942C60.3261 4.31713 59.1619 5.26616 59.1619 5.26616C59.1619 5.26616 58.0836 6.34184 57.3697 7.17495C57.114 7.47331 56.6388 7.43477 56.6303 7.04196C56.6015 5.71492 57.8871 3.84825 59.627 3.28172Z" fill="white"/>
<path d="M59.3522 43.8578L57.919 43.6433L57.49 46.5097L58.9232 46.7242L59.3522 43.8578ZM68.8663 46.7472C68.2344 50.9687 71.1444 54.9031 75.3659 55.535C79.5874 56.1669 83.5219 53.2569 84.1537 49.0354C84.7856 44.8139 81.8756 40.8795 77.6541 40.2476C73.4326 39.6157 69.4982 42.5257 68.8663 46.7472ZM58.9232 46.7242L76.2955 49.3245L76.7245 46.4581L59.3522 43.8578L58.9232 46.7242Z" fill="#FC3C00"/>
<path d="M77.1643 41.7509C78.6824 42.0251 79.388 42.947 77.6965 42.8461C77.272 42.8207 76.0027 43.0654 76.0027 43.0654C76.0027 43.0654 74.7468 43.4411 73.8661 43.7815C73.5507 43.9034 73.2062 43.6805 73.3599 43.3792C73.8791 42.3617 75.6146 41.471 77.1643 41.7509Z" fill="white"/>
<path d="M47.7635 58.5087L47.4636 57.0909L44.628 57.6907L44.9279 59.1085L47.7635 58.5087ZM48.3927 68.4856C44.2166 69.369 41.5473 73.4705 42.4307 77.6466C43.3141 81.8228 47.4156 84.4921 51.5917 83.6087C55.7679 82.7253 58.4372 78.6237 57.5538 74.4476C56.6704 70.2715 52.5688 67.6022 48.3927 68.4856ZM44.9279 59.1085L48.5744 76.347L51.41 75.7472L47.7635 58.5087L44.9279 59.1085Z" fill="#7145FF"/>
<path d="M46.4621 70.8674C47.8192 70.1942 48.9153 70.5074 47.5231 71.4188C47.1738 71.6474 46.3167 72.5839 46.3167 72.5839C46.3167 72.5839 45.5803 73.5798 45.0717 74.3735C44.8597 74.7043 44.3913 74.7236 44.3578 74.3321C44.261 73.2035 45.1262 71.5301 46.4621 70.8674Z" fill="white" stroke="white" stroke-width="0.181145" stroke-linecap="round"/>
<path d="M26.0874 48.9395L27.4644 48.4879L26.5611 45.7339L25.1841 46.1855L26.0874 48.9395ZM15.3717 50.929C14.0414 46.873 9.67497 44.6635 5.61902 45.9938C1.56308 47.3241 -0.646495 51.6905 0.683808 55.7464C2.01411 59.8024 6.38053 62.012 10.4365 60.6817C14.4924 59.3514 16.702 54.9849 15.3717 50.929ZM25.1841 46.1855L7.57611 51.9607L8.47939 54.7147L26.0874 48.9395L25.1841 46.1855Z" fill="#46D9E4"/>
<path d="M3.91651 51.4353L3.92036 51.4265L3.93679 51.3893C3.95109 51.357 3.97182 51.3104 3.99751 51.2535C4.0489 51.1397 4.12005 50.9846 4.19913 50.8193C4.35926 50.4847 4.546 50.1212 4.66698 49.9657C4.92398 49.6354 5.05802 49.3763 5.08156 49.1881C5.09365 49.0915 5.07786 49.0016 5.02038 48.9341C4.9632 48.8669 4.87927 48.839 4.79176 48.8345C4.62052 48.8257 4.39166 48.9034 4.14649 49.0424C3.89776 49.1834 3.62027 49.3943 3.34873 49.6686C2.81048 50.2123 2.47569 50.9437 2.33314 51.666C2.19083 52.3872 2.23803 53.1104 2.47705 53.6387C2.52525 53.7453 2.59799 53.82 2.68736 53.8586C2.77613 53.8968 2.87217 53.8954 2.96044 53.8667C3.13501 53.8099 3.28859 53.6447 3.34234 53.4269C3.45115 52.986 3.59497 52.4872 3.71179 52.098C3.77017 51.9035 3.82172 51.7367 3.85867 51.6185C3.87715 51.5594 3.89197 51.5124 3.90217 51.4803L3.91387 51.4435L3.91651 51.4353Z" fill="white" stroke="white" stroke-width="0.181145"/>
<path d="M28.5873 30.4628L29.6029 31.4966L31.6704 29.4655L30.6549 28.4317L28.5873 30.4628ZM25.0259 24.7697C28.0709 21.7783 28.1143 16.8848 25.1229 13.8399C22.1315 10.7949 17.2381 10.7514 14.1931 13.7428C11.1481 16.7342 11.1046 21.6277 14.096 24.6727C17.0874 27.7176 21.9809 27.7611 25.0259 24.7697ZM30.6549 28.4317L20.6432 18.2407L18.5757 20.2718L28.5873 30.4628L30.6549 28.4317Z" fill="#FBB500"/>
<path d="M16.569 13.434C17.9832 12.891 19.0451 13.3057 17.5736 14.0824C17.2043 14.2773 16.2631 15.1292 16.2631 15.1292C16.2631 15.1292 15.4773 15.9988 14.9135 16.7164C14.6707 17.0254 14.1998 17.0023 14.1994 16.6094C14.1984 15.4979 15.1799 13.9672 16.569 13.434Z" fill="white"/>
<path d="M35.8372 34.8382L35.842 34.8336L35.8751 34.8017C35.9039 34.7741 35.9456 34.7343 35.9969 34.6858C36.0996 34.5887 36.2407 34.457 36.3943 34.3181C36.7084 34.0342 37.0544 33.7396 37.2395 33.6336C37.6534 33.3965 37.9221 33.1736 38.0389 32.9665C38.0999 32.8586 38.1307 32.7342 38.0904 32.6107C38.0503 32.4882 37.9539 32.4091 37.8523 32.3612C37.6558 32.2685 37.3638 32.2537 37.0421 32.2945C36.7124 32.3363 36.3233 32.4403 35.9144 32.6136C35.0983 32.9596 34.4207 33.5946 33.9531 34.3015C33.487 35.0064 33.2174 35.8017 33.2414 36.48C33.2467 36.6288 33.2967 36.7583 33.3897 36.8534C33.4818 36.9475 33.6022 36.9938 33.723 37.0029C33.9605 37.0207 34.218 36.8988 34.3824 36.6739C34.6854 36.2596 35.0503 35.7992 35.3403 35.4414C35.4851 35.2627 35.6109 35.11 35.7005 35.0021C35.7453 34.9481 35.781 34.9053 35.8054 34.8761L35.8335 34.8426L35.8372 34.8382Z" fill="white" stroke="white" stroke-width="0.362291"/>
</svg>
