<svg width="17" height="18" viewBox="0 0 17 18" fill="none" xmlns="http://www.w3.org/2000/svg">
<path d="M0.843919 0.0688677L16.7129 8.53313C16.8 8.57997 16.8725 8.6479 16.923 8.72999C16.9734 8.81208 17 8.90538 17 9.00038C17 9.09539 16.9734 9.18869 16.923 9.27078C16.8725 9.35287 16.8 9.4208 16.7129 9.46764L0.843919 17.9319C0.742185 17.9857 0.625417 18.0085 0.509528 17.9971C0.39364 17.9858 0.28427 17.9408 0.19633 17.8683C0.108388 17.7959 0.0461532 17.6994 0.0181056 17.5922C-0.00994196 17.485 -0.00243654 17.3722 0.0395976 17.2692L3.34978 9.1948C3.401 9.06974 3.401 8.93103 3.34978 8.80596L0.0384665 0.731615C-0.00381368 0.628456 -0.0114526 0.515431 0.0165988 0.407999C0.044652 0.300568 0.107022 0.203977 0.19518 0.131439C0.283338 0.058901 0.392978 0.013958 0.509103 0.00275777C0.625226 -0.0084425 0.742164 0.0146469 0.843919 0.0688677Z" fill="#1A2AEA"/>
</svg>
