<svg width="30" height="27" viewBox="0 0 30 27" fill="none" xmlns="http://www.w3.org/2000/svg">
<g filter="url(#filter0_d_356_5214)">
<path fill-rule="evenodd" clip-rule="evenodd" d="M15 23.25C16.4774 23.25 17.9403 22.959 19.3052 22.3936C20.6701 21.8283 21.9103 20.9996 22.955 19.955C23.9996 18.9103 24.8283 17.6701 25.3936 16.3052C25.959 14.9403 26.25 13.4774 26.25 12C26.25 10.5226 25.959 9.05972 25.3936 7.69481C24.8283 6.3299 23.9996 5.08971 22.955 4.04505C21.9103 3.00039 20.6701 2.17172 19.3052 1.60636C17.9403 1.04099 16.4774 0.75 15 0.75C12.0163 0.75 9.15483 1.93526 7.04505 4.04505C4.93526 6.15483 3.75 9.01631 3.75 12C3.75 14.9837 4.93526 17.8452 7.04505 19.955C9.15483 22.0647 12.0163 23.25 15 23.25ZM14.71 16.55L20.96 9.05L19.04 7.45L13.665 13.8988L10.8837 11.1163L9.11625 12.8837L12.8663 16.6337L13.8338 17.6013L14.71 16.55Z" fill="#2ECC71"/>
</g>
<defs>
<filter id="filter0_d_356_5214" x="-0.25" y="0.75" width="30.5" height="30.5" filterUnits="userSpaceOnUse" color-interpolation-filters="sRGB">
<feFlood flood-opacity="0" result="BackgroundImageFix"/>
<feColorMatrix in="SourceAlpha" type="matrix" values="0 0 0 0 0 0 0 0 0 0 0 0 0 0 0 0 0 0 127 0" result="hardAlpha"/>
<feOffset dy="4"/>
<feGaussianBlur stdDeviation="2"/>
<feComposite in2="hardAlpha" operator="out"/>
<feColorMatrix type="matrix" values="0 0 0 0 0 0 0 0 0 0 0 0 0 0 0 0 0 0 0.25 0"/>
<feBlend mode="normal" in2="BackgroundImageFix" result="effect1_dropShadow_356_5214"/>
<feBlend mode="normal" in="SourceGraphic" in2="effect1_dropShadow_356_5214" result="shape"/>
</filter>
</defs>
</svg>
