<svg width="491" height="103" viewBox="0 0 491 103" fill="none" xmlns="http://www.w3.org/2000/svg">
<path d="M125 18.375C127.844 18.375 130.484 18.7344 132.922 19.4531C135.391 20.1719 137.531 21.25 139.344 22.6875C141.188 24.0938 142.625 25.8594 143.656 27.9844C144.719 30.1094 145.25 32.5938 145.25 35.4375V64.5C145.25 66.9375 144.984 69.0938 144.453 70.9688C143.922 72.8125 143.219 74.4219 142.344 75.7969C141.5 77.1406 140.531 78.2969 139.438 79.2656C138.344 80.2031 137.234 80.9688 136.109 81.5625C133.422 83 130.375 83.8125 126.969 84H111.406C109.625 84 108.25 83.7031 107.281 83.1094C106.312 82.4844 105.609 81.6719 105.172 80.6719C104.734 79.6406 104.469 78.4844 104.375 77.2031C104.312 75.9219 104.281 74.5938 104.281 73.2188V29.0625C104.281 27.7187 104.312 26.4062 104.375 25.125C104.469 23.8438 104.734 22.7031 105.172 21.7031C105.609 20.7031 106.312 19.9063 107.281 19.3125C108.25 18.6875 109.625 18.375 111.406 18.375H125ZM118.531 29.3438V72.8438H124.625C125.969 72.7812 127.172 72.4688 128.234 71.9062C128.672 71.6875 129.109 71.3906 129.547 71.0156C129.984 70.6406 130.375 70.2031 130.719 69.7031C131.062 69.1719 131.328 68.5469 131.516 67.8281C131.734 67.1094 131.844 66.2812 131.844 65.3438V37.6875C131.844 36.6562 131.734 35.75 131.516 34.9688C131.328 34.1562 131.062 33.4531 130.719 32.8594C130.375 32.2656 129.984 31.7656 129.547 31.3594C129.109 30.9531 128.672 30.625 128.234 30.375C127.172 29.7812 125.969 29.4375 124.625 29.3438H118.531ZM199.711 73.4062C199.711 74.7188 199.664 76.0156 199.571 77.2969C199.477 78.5469 199.196 79.6719 198.727 80.6719C198.258 81.6719 197.555 82.4844 196.618 83.1094C195.68 83.7031 194.368 84 192.68 84C190.961 84 189.618 83.7188 188.649 83.1562C187.68 82.5625 186.961 81.8594 186.493 81.0469C186.024 80.2031 185.727 79.3281 185.602 78.4219C185.508 77.5156 185.461 76.75 185.461 76.125C185.18 77.0312 184.774 77.9531 184.243 78.8906C183.743 79.8281 183.086 80.6719 182.274 81.4219C181.461 82.1719 180.477 82.7969 179.321 83.2969C178.196 83.7656 176.868 84 175.336 84C173.618 84 171.899 83.7188 170.18 83.1562C168.461 82.5938 166.914 81.6562 165.539 80.3438C164.164 79.0312 163.039 77.3281 162.164 75.2344C161.321 73.1094 160.899 70.5 160.899 67.4062V53.8125C160.899 50.6875 161.321 48.0781 162.164 45.9844C163.039 43.8594 164.164 42.1562 165.539 40.875C166.914 39.5625 168.461 38.625 170.18 38.0625C171.899 37.5 173.618 37.2188 175.336 37.2188C176.868 37.2188 178.196 37.4531 179.321 37.9219C180.477 38.3906 181.461 39 182.274 39.75C183.086 40.5 183.743 41.3438 184.243 42.2812C184.774 43.2188 185.18 44.1562 185.461 45.0938C185.461 43.5312 185.68 42.2344 186.118 41.2031C186.555 40.1719 187.118 39.3594 187.805 38.7656C188.493 38.1406 189.258 37.7188 190.102 37.5C190.977 37.25 191.836 37.125 192.68 37.125C194.243 37.125 195.493 37.4375 196.43 38.0625C197.368 38.6562 198.071 39.4531 198.539 40.4531C199.039 41.4219 199.352 42.5625 199.477 43.875C199.633 45.1562 199.711 46.4688 199.711 47.8125V73.4062ZM175.336 66.1875C175.336 67.0312 175.368 67.8594 175.43 68.6719C175.493 69.4844 175.664 70.2188 175.946 70.875C176.227 71.5312 176.633 72.0625 177.164 72.4688C177.727 72.8438 178.493 73.0312 179.461 73.0312C180.68 73.0312 181.664 72.7656 182.414 72.2344C183.196 71.6719 183.805 70.8281 184.243 69.7031C184.68 68.5469 184.977 67.1094 185.133 65.3906C185.321 63.6406 185.43 61.5625 185.461 59.1562C185.461 58.1875 185.368 57.0781 185.18 55.8281C185.024 54.5469 184.727 53.3438 184.289 52.2188C183.852 51.0938 183.243 50.1406 182.461 49.3594C181.68 48.5781 180.68 48.1875 179.461 48.1875C178.493 48.1875 177.727 48.3906 177.164 48.7969C176.633 49.1719 176.227 49.6719 175.946 50.2969C175.664 50.9219 175.493 51.6406 175.43 52.4531C175.368 53.2344 175.336 54.0312 175.336 54.8438V66.1875ZM224.548 37.125V28.875C224.548 27.5625 224.61 26.2813 224.735 25.0312C224.891 23.7812 225.219 22.6719 225.719 21.7031C226.219 20.7031 226.938 19.9063 227.876 19.3125C228.813 18.6875 230.079 18.375 231.673 18.375C233.235 18.375 234.485 18.6875 235.423 19.3125C236.36 19.9063 237.063 20.7031 237.532 21.7031C238.032 22.6719 238.344 23.7812 238.469 25.0312C238.626 26.2813 238.704 27.5625 238.704 28.875V37.125H242.548C243.36 37.125 244.173 37.1719 244.985 37.2656C245.798 37.3281 246.516 37.5469 247.141 37.9219C247.798 38.2969 248.313 38.8594 248.688 39.6094C249.094 40.3594 249.298 41.4062 249.298 42.75C249.298 44.0312 249.094 45.0469 248.688 45.7969C248.313 46.5469 247.798 47.1094 247.141 47.4844C246.516 47.8594 245.798 48.1094 244.985 48.2344C244.173 48.3281 243.36 48.375 242.548 48.375H238.704V64.7812C238.704 65.4062 238.719 66.0781 238.751 66.7969C238.813 67.4844 238.985 68.125 239.266 68.7188C239.548 69.3125 239.969 69.8125 240.532 70.2188C241.094 70.5938 241.891 70.7812 242.923 70.7812C244.048 70.7812 245.001 70.875 245.782 71.0625C246.594 71.2188 247.251 71.5156 247.751 71.9531C248.282 72.3906 248.673 73 248.923 73.7812C249.173 74.5625 249.298 75.5625 249.298 76.7812C249.298 78.0312 249.001 79.1094 248.407 80.0156C247.844 80.9219 247.079 81.6719 246.11 82.2656C245.141 82.8594 244.016 83.2969 242.735 83.5781C241.454 83.8594 240.11 84 238.704 84C236.485 84 234.579 83.7656 232.985 83.2969C231.423 82.8281 230.11 82.1719 229.048 81.3281C228.016 80.4531 227.188 79.4219 226.563 78.2344C225.969 77.0156 225.516 75.6562 225.204 74.1562C224.923 72.6562 224.735 71.0469 224.641 69.3281C224.579 67.5781 224.548 65.75 224.548 63.8438V48.375H221.923C221.11 48.375 220.298 48.3281 219.485 48.2344C218.704 48.1094 218.001 47.8594 217.376 47.4844C216.751 47.1094 216.235 46.5469 215.829 45.7969C215.454 45.0469 215.266 44.0312 215.266 42.75C215.266 41.4062 215.454 40.3594 215.829 39.6094C216.235 38.8594 216.751 38.2969 217.376 37.9219C218.001 37.5469 218.704 37.3281 219.485 37.2656C220.298 37.1719 221.11 37.125 221.923 37.125H224.548ZM322.595 47.7188C322.595 46.4062 322.642 45.125 322.736 43.875C322.829 42.5938 323.111 41.4531 323.579 40.4531C324.048 39.4531 324.751 38.6562 325.689 38.0625C326.626 37.4375 327.939 37.125 329.626 37.125C331.345 37.125 332.689 37.4219 333.658 38.0156C334.626 38.5781 335.345 39.2812 335.814 40.125C336.283 40.9375 336.564 41.7969 336.658 42.7031C336.783 43.6094 336.845 44.375 336.845 45C337.126 44.0938 337.517 43.1719 338.017 42.2344C338.548 41.2969 339.22 40.4531 340.033 39.7031C340.845 38.9531 341.814 38.3438 342.939 37.875C344.095 37.375 345.439 37.125 346.97 37.125C348.689 37.125 350.408 37.4062 352.126 37.9688C353.845 38.5312 355.392 39.4688 356.767 40.7812C358.142 42.0938 359.251 43.8125 360.095 45.9375C360.97 48.0312 361.408 50.625 361.408 53.7188V67.3125C361.408 70.4375 360.97 73.0625 360.095 75.1875C359.251 77.2812 358.142 78.9844 356.767 80.2969C355.392 81.5781 353.845 82.5 352.126 83.0625C350.408 83.625 348.689 83.9062 346.97 83.9062C345.439 83.9062 344.095 83.6719 342.939 83.2031C341.814 82.7344 340.845 82.125 340.033 81.375C339.22 80.625 338.548 79.7812 338.017 78.8438C337.517 77.9062 337.126 76.9688 336.845 76.0312V92.0625C336.845 93.4375 336.767 94.7656 336.611 96.0469C336.486 97.3281 336.173 98.4531 335.673 99.4219C335.204 100.422 334.486 101.219 333.517 101.812C332.548 102.438 331.251 102.75 329.626 102.75C328.064 102.75 326.814 102.438 325.876 101.812C324.939 101.219 324.22 100.422 323.72 99.4219C323.251 98.4531 322.939 97.3281 322.783 96.0469C322.658 94.7656 322.595 93.4375 322.595 92.0625V47.7188ZM346.97 54.9375C346.97 54.0938 346.939 53.2656 346.876 52.4531C346.814 51.6406 346.642 50.9062 346.361 50.25C346.079 49.5938 345.658 49.0781 345.095 48.7031C344.564 48.2969 343.814 48.0938 342.845 48.0938C341.626 48.0938 340.626 48.375 339.845 48.9375C339.095 49.4688 338.501 50.3125 338.064 51.4688C337.626 52.5938 337.314 54.0312 337.126 55.7812C336.97 57.5312 336.876 59.5938 336.845 61.9688C336.845 62.9688 336.923 64.1094 337.079 65.3906C337.267 66.6406 337.579 67.8281 338.017 68.9531C338.454 70.0781 339.064 71.0312 339.845 71.8125C340.626 72.5625 341.626 72.9375 342.845 72.9375C343.814 72.9375 344.564 72.75 345.095 72.375C345.658 71.9688 346.079 71.4531 346.361 70.8281C346.642 70.2031 346.814 69.5 346.876 68.7188C346.939 67.9062 346.97 67.0938 346.97 66.2812V54.9375ZM445.017 37.125C445.549 37.125 446.111 37.2188 446.705 37.4062C447.299 37.5938 447.924 37.9062 448.58 38.3438C449.517 38.9688 450.189 39.6406 450.596 40.3594C451.002 41.0781 451.205 41.8438 451.205 42.6562C451.205 43.6875 450.955 44.7656 450.455 45.8906C449.955 47.0156 449.33 48.0938 448.58 49.125L440.236 60.5625L448.58 71.9062C449.299 73 449.908 74.0938 450.408 75.1875C450.939 76.2812 451.205 77.3438 451.205 78.375C451.205 79.1875 451.002 79.9688 450.596 80.7188C450.189 81.4688 449.517 82.1562 448.58 82.7812C447.33 83.5938 446.174 84 445.111 84C444.455 84 443.83 83.8594 443.236 83.5781C442.674 83.2969 442.127 82.9219 441.596 82.4531C441.096 81.9844 440.596 81.4375 440.096 80.8125C439.627 80.1875 439.142 79.5312 438.642 78.8438L433.017 70.9688L427.205 78.8438C426.767 79.5625 426.314 80.2344 425.846 80.8594C425.377 81.4844 424.877 82.0312 424.346 82.5C423.846 82.9688 423.314 83.3438 422.752 83.625C422.189 83.875 421.58 84 420.924 84C419.861 84 418.705 83.5938 417.455 82.7812C416.517 82.125 415.846 81.4375 415.439 80.7188C415.033 79.9688 414.83 79.1875 414.83 78.375C414.83 77.3438 415.08 76.2812 415.58 75.1875C416.111 74.0938 416.736 73 417.455 71.9062L425.33 60.5625L417.455 49.125C416.736 48.0312 416.111 46.9531 415.58 45.8906C415.08 44.8281 414.83 43.7812 414.83 42.75C414.83 41.9375 415.033 41.1719 415.439 40.4531C415.846 39.7031 416.517 39 417.455 38.3438C418.705 37.5312 419.861 37.125 420.924 37.125C421.58 37.125 422.189 37.2656 422.752 37.5469C423.314 37.7969 423.846 38.1562 424.346 38.625C424.877 39.0938 425.377 39.6406 425.846 40.2656C426.314 40.8594 426.767 41.5 427.205 42.1875L433.017 50.0625L438.642 42.1875C439.111 41.5 439.58 40.8594 440.049 40.2656C440.517 39.6406 441.002 39.0938 441.502 38.625C442.033 38.1562 442.58 37.7969 443.142 37.5469C443.736 37.2656 444.361 37.125 445.017 37.125ZM469.104 28.7812C469.104 27.4688 469.166 26.1875 469.291 24.9375C469.448 23.6875 469.776 22.5781 470.276 21.6094C470.776 20.6406 471.494 19.8594 472.432 19.2656C473.369 18.6719 474.635 18.375 476.229 18.375C477.854 18.375 479.135 18.6719 480.073 19.2656C481.01 19.8594 481.713 20.6406 482.182 21.6094C482.682 22.5781 482.994 23.6875 483.119 24.9375C483.276 26.1875 483.354 27.4688 483.354 28.7812V73.5C483.354 74.8125 483.276 76.1094 483.119 77.3906C482.994 78.6406 482.682 79.7656 482.182 80.7656C481.713 81.7344 481.01 82.5156 480.073 83.1094C479.135 83.7031 477.854 84 476.229 84C474.635 84 473.369 83.7031 472.432 83.1094C471.494 82.5156 470.776 81.7344 470.276 80.7656C469.776 79.7656 469.448 78.6406 469.291 77.3906C469.166 76.1094 469.104 74.8125 469.104 73.5V28.7812Z" fill="black"/>
<path d="M303.665 73.4062C303.665 74.7188 303.618 76.0156 303.524 77.2969C303.431 78.5469 303.149 79.6719 302.681 80.6719C302.212 81.6719 301.509 82.4844 300.571 83.1094C299.634 83.7031 298.321 84 296.634 84C294.915 84 293.571 83.7188 292.602 83.1562C291.634 82.5625 290.915 81.8594 290.446 81.0469C289.977 80.2031 289.681 79.3281 289.556 78.4219C289.462 77.5156 289.415 76.75 289.415 76.125C289.134 77.0312 288.727 77.9531 288.196 78.8906C287.696 79.8281 287.04 80.6719 286.227 81.4219C285.415 82.1719 284.431 82.7969 283.274 83.2969C282.149 83.7656 280.821 84 279.29 84C277.571 84 275.852 83.7188 274.134 83.1562C272.415 82.5938 270.868 81.6562 269.493 80.3438C268.118 79.0312 266.993 77.3281 266.118 75.2344C265.274 73.1094 264.852 70.5 264.852 67.4062V53.8125C264.852 50.6875 265.274 48.0781 266.118 45.9844C266.993 43.8594 268.118 42.1562 269.493 40.875C270.868 39.5625 272.415 38.625 274.134 38.0625C275.852 37.5 277.571 37.2188 279.29 37.2188C280.821 37.2188 282.149 37.4531 283.274 37.9219C284.431 38.3906 285.415 39 286.227 39.75C287.04 40.5 287.696 41.3438 288.196 42.2812C288.727 43.2188 289.134 44.1562 289.415 45.0938C289.415 43.5312 289.634 42.2344 290.071 41.2031C290.509 40.1719 291.071 39.3594 291.759 38.7656C292.446 38.1406 293.212 37.7188 294.056 37.5C294.931 37.25 295.79 37.125 296.634 37.125C298.196 37.125 299.446 37.4375 300.384 38.0625C301.321 38.6562 302.024 39.4531 302.493 40.4531C302.993 41.4219 303.306 42.5625 303.431 43.875C303.587 45.1562 303.665 46.4688 303.665 47.8125V73.4062ZM279.29 66.1875C279.29 67.0312 279.321 67.8594 279.384 68.6719C279.446 69.4844 279.618 70.2188 279.899 70.875C280.181 71.5312 280.587 72.0625 281.118 72.4688C281.681 72.8438 282.446 73.0312 283.415 73.0312C284.634 73.0312 285.618 72.7656 286.368 72.2344C287.149 71.6719 287.759 70.8281 288.196 69.7031C288.634 68.5469 288.931 67.1094 289.087 65.3906C289.274 63.6406 289.384 61.5625 289.415 59.1562C289.415 58.1875 289.321 57.0781 289.134 55.8281C288.977 54.5469 288.681 53.3438 288.243 52.2188C287.806 51.0938 287.196 50.1406 286.415 49.3594C285.634 48.5781 284.634 48.1875 283.415 48.1875C282.446 48.1875 281.681 48.3906 281.118 48.7969C280.587 49.1719 280.181 49.6719 279.899 50.2969C279.618 50.9219 279.446 51.6406 279.384 52.4531C279.321 53.2344 279.29 54.0312 279.29 54.8438V66.1875ZM381.087 47.625C381.087 46.3125 381.15 45.0312 381.275 43.7812C381.431 42.5312 381.759 41.4219 382.259 40.4531C382.759 39.4531 383.478 38.6562 384.416 38.0625C385.353 37.4375 386.619 37.125 388.212 37.125C389.806 37.125 391.072 37.4375 392.009 38.0625C392.947 38.6562 393.666 39.4531 394.166 40.4531C394.666 41.4219 394.978 42.5312 395.103 43.7812C395.259 45.0312 395.337 46.3125 395.337 47.625V73.5C395.337 74.8125 395.259 76.1094 395.103 77.3906C394.978 78.6406 394.666 79.7656 394.166 80.7656C393.666 81.7344 392.947 82.5156 392.009 83.1094C391.072 83.7031 389.806 84 388.212 84C386.619 84 385.353 83.7031 384.416 83.1094C383.478 82.5156 382.759 81.7344 382.259 80.7656C381.759 79.7656 381.431 78.6406 381.275 77.3906C381.15 76.1094 381.087 74.8125 381.087 73.5V47.625ZM395.431 25.5C395.431 27.9062 394.806 29.7031 393.556 30.8906C392.306 32.0469 390.556 32.625 388.306 32.625C386.056 32.625 384.306 32.0469 383.056 30.8906C381.806 29.7031 381.181 27.9062 381.181 25.5C381.181 23 381.806 21.1875 383.056 20.0625C384.306 18.9375 386.056 18.375 388.306 18.375C390.712 18.375 392.494 18.9375 393.65 20.0625C394.837 21.1875 395.431 23 395.431 25.5Z" fill="#1A2AEA"/>
<ellipse cx="42.2641" cy="49.7309" rx="13.2236" ry="13.4048" fill="#1A2AEA"/>
<path d="M48.6113 34.2572L47.7572 35.6459L50.5346 37.3541L51.3887 35.9654L48.6113 34.2572ZM56.5862 24.4028C60.6766 26.9185 66.0319 25.6421 68.5476 21.5517C71.0634 17.4613 69.7869 12.106 65.6965 9.59021C61.6062 7.07446 56.2508 8.35095 53.7351 12.4413C51.2193 16.5317 52.4958 21.887 56.5862 24.4028ZM51.3887 35.9654L62.53 17.8506L59.7527 16.1424L48.6113 34.2572L51.3887 35.9654Z" fill="#00AB1B"/>
<path d="M59.627 11.2817C61.3314 10.7267 62.5609 11.2817 60.7744 12.1094C60.3261 12.3171 59.1619 13.2662 59.1619 13.2662C59.1619 13.2662 58.0836 14.3418 57.3697 15.175C57.114 15.4733 56.6388 15.4348 56.6303 15.042C56.6015 13.7149 57.8871 11.8483 59.627 11.2817Z" fill="white"/>
<path d="M59.3522 51.8578L57.919 51.6433L57.49 54.5097L58.9232 54.7242L59.3522 51.8578ZM68.8663 54.7472C68.2344 58.9687 71.1444 62.9031 75.3659 63.535C79.5874 64.1669 83.5219 61.2569 84.1537 57.0354C84.7856 52.8139 81.8756 48.8795 77.6541 48.2476C73.4326 47.6157 69.4982 50.5257 68.8663 54.7472ZM58.9232 54.7242L76.2955 57.3245L76.7245 54.4581L59.3522 51.8578L58.9232 54.7242Z" fill="#FC3C00"/>
<path d="M77.1643 49.7509C78.6824 50.0251 79.388 50.947 77.6965 50.8461C77.272 50.8207 76.0027 51.0654 76.0027 51.0654C76.0027 51.0654 74.7468 51.4411 73.8661 51.7815C73.5507 51.9034 73.2062 51.6805 73.3599 51.3792C73.8791 50.3617 75.6146 49.471 77.1643 49.7509Z" fill="white"/>
<path d="M47.7635 66.5087L47.4636 65.0909L44.628 65.6907L44.9279 67.1085L47.7635 66.5087ZM48.3927 76.4856C44.2166 77.369 41.5473 81.4705 42.4307 85.6466C43.3141 89.8228 47.4156 92.4921 51.5917 91.6087C55.7679 90.7253 58.4372 86.6237 57.5538 82.4476C56.6704 78.2715 52.5688 75.6022 48.3927 76.4856ZM44.9279 67.1085L48.5744 84.347L51.41 83.7472L47.7635 66.5087L44.9279 67.1085Z" fill="#7145FF"/>
<path d="M46.4621 78.8674C47.8192 78.1942 48.9153 78.5074 47.5231 79.4188C47.1738 79.6474 46.3167 80.5839 46.3167 80.5839C46.3167 80.5839 45.5803 81.5798 45.0717 82.3735C44.8597 82.7043 44.3913 82.7236 44.3578 82.3321C44.261 81.2035 45.1262 79.5301 46.4621 78.8674Z" fill="white" stroke="white" stroke-width="0.181145" stroke-linecap="round"/>
<path d="M26.0874 56.9395L27.4644 56.4879L26.5611 53.7339L25.1841 54.1855L26.0874 56.9395ZM15.3717 58.929C14.0414 54.873 9.67497 52.6635 5.61902 53.9938C1.56308 55.3241 -0.646495 59.6905 0.683808 63.7464C2.01411 67.8024 6.38053 70.012 10.4365 68.6817C14.4924 67.3514 16.702 62.9849 15.3717 58.929ZM25.1841 54.1855L7.57611 59.9607L8.47939 62.7147L26.0874 56.9395L25.1841 54.1855Z" fill="#01B3CC"/>
<path d="M3.91651 59.4353L3.92036 59.4265L3.93679 59.3893C3.95109 59.357 3.97182 59.3104 3.99751 59.2535C4.0489 59.1397 4.12005 58.9846 4.19913 58.8193C4.35926 58.4847 4.546 58.1212 4.66698 57.9657C4.92398 57.6354 5.05802 57.3763 5.08156 57.1881C5.09365 57.0915 5.07786 57.0016 5.02038 56.9341C4.9632 56.8669 4.87927 56.839 4.79176 56.8345C4.62052 56.8257 4.39166 56.9034 4.14649 57.0424C3.89776 57.1834 3.62027 57.3943 3.34873 57.6686C2.81048 58.2123 2.47569 58.9437 2.33314 59.666C2.19083 60.3872 2.23803 61.1104 2.47705 61.6387C2.52525 61.7453 2.59799 61.82 2.68736 61.8586C2.77613 61.8968 2.87217 61.8954 2.96044 61.8667C3.13501 61.8099 3.28859 61.6447 3.34234 61.4269C3.45115 60.986 3.59497 60.4872 3.71179 60.098C3.77017 59.9035 3.82172 59.7367 3.85867 59.6185C3.87715 59.5594 3.89197 59.5124 3.90217 59.4803L3.91387 59.4435L3.91651 59.4353Z" fill="white" stroke="white" stroke-width="0.181145"/>
<path d="M28.5873 38.4628L29.6029 39.4966L31.6704 37.4655L30.6549 36.4317L28.5873 38.4628ZM25.0259 32.7697C28.0709 29.7783 28.1143 24.8848 25.1229 21.8399C22.1315 18.7949 17.2381 18.7514 14.1931 21.7428C11.1481 24.7342 11.1046 29.6277 14.096 32.6727C17.0874 35.7176 21.9809 35.7611 25.0259 32.7697ZM30.6549 36.4317L20.6432 26.2407L18.5757 28.2718L28.5873 38.4628L30.6549 36.4317Z" fill="#FBB500"/>
<path d="M16.569 21.434C17.9832 20.891 19.0451 21.3057 17.5736 22.0824C17.2043 22.2773 16.2631 23.1292 16.2631 23.1292C16.2631 23.1292 15.4773 23.9988 14.9135 24.7164C14.6707 25.0254 14.1998 25.0023 14.1994 24.6094C14.1984 23.4979 15.1799 21.9672 16.569 21.434Z" fill="white"/>
<path d="M35.8372 42.8382L35.842 42.8336L35.8751 42.8017C35.9039 42.7741 35.9456 42.7343 35.9969 42.6858C36.0996 42.5887 36.2407 42.457 36.3943 42.3181C36.7084 42.0342 37.0544 41.7396 37.2395 41.6336C37.6534 41.3965 37.9221 41.1736 38.0389 40.9665C38.0999 40.8586 38.1307 40.7342 38.0904 40.6107C38.0503 40.4882 37.9539 40.4091 37.8523 40.3612C37.6558 40.2685 37.3638 40.2537 37.0421 40.2945C36.7124 40.3363 36.3233 40.4403 35.9144 40.6136C35.0983 40.9596 34.4207 41.5946 33.9531 42.3015C33.487 43.0064 33.2174 43.8017 33.2414 44.48C33.2467 44.6288 33.2967 44.7583 33.3897 44.8534C33.4818 44.9475 33.6022 44.9938 33.723 45.0029C33.9605 45.0207 34.218 44.8988 34.3824 44.6739C34.6854 44.2596 35.0503 43.7992 35.3403 43.4414C35.4851 43.2627 35.6109 43.11 35.7005 43.0021C35.7453 42.9481 35.781 42.9053 35.8054 42.8761L35.8335 42.8426L35.8372 42.8382Z" fill="white" stroke="white" stroke-width="0.362291"/>
</svg>
