<svg width="191" height="39" viewBox="0 0 191 39" fill="none" xmlns="http://www.w3.org/2000/svg">
<path d="M13.7232 11.9409V3.95189C13.7232 3.48262 13.8835 3.08203 14.2039 2.75583C14.5244 2.42963 14.9136 2.26367 15.3714 2.26367C15.8292 2.26367 16.247 2.42963 16.5903 2.75583C16.9337 3.08203 17.1054 3.48262 17.1054 3.95189V27.3123C17.1054 27.7816 16.9394 28.1821 16.6018 28.5083C16.2641 28.8345 15.8693 29.0005 15.4172 29.0005C14.9365 29.0005 14.5301 28.8345 14.2097 28.5083C13.8892 28.1821 13.729 27.7816 13.729 27.3123V26.5683C12.0808 28.1936 10.5356 29.0005 9.09922 29.0005H6.22066C5.06466 29.0005 3.91438 28.5026 2.75838 27.5126L1.35058 26.328C1.0301 26.0189 0.72107 25.5039 0.43493 24.7771C0.148791 24.0503 0 23.375 0 22.7455V15.8667C0 15.0999 0.160238 14.3616 0.480714 13.6463C0.80119 12.9309 1.17889 12.3873 1.6081 12.0267L2.99874 10.8421C3.98878 9.9837 5.15623 9.55449 6.50108 9.55449H8.93326C10.2609 9.55449 11.4685 10.0238 12.5558 10.9623L13.7232 11.9466V11.9409ZM8.81309 12.971H6.46102C5.96314 12.971 5.51676 13.1541 5.11044 13.5147L4.02312 14.4589C3.64541 14.7966 3.46228 15.2258 3.46228 15.7465V22.9115C3.46228 23.3807 3.68547 23.8042 4.12613 24.1762L5.23062 25.1205C5.57971 25.4295 5.94597 25.584 6.33512 25.584H9.0935C9.45404 25.584 9.88324 25.378 10.3811 24.9602L13.0594 22.7455C13.5 22.3564 13.7232 21.8756 13.7232 21.2976V17.6351C13.7232 16.8167 13.4886 16.2158 13.0193 15.8267L10.2609 13.4746C9.90041 13.137 9.41398 12.971 8.81309 12.971Z" fill="black"/>
<path d="M29.7274 16.8043H36.3543C36.7149 16.8043 37.2414 16.8844 37.9281 17.0447L37.888 14.6526C37.888 14.1833 37.7221 13.7827 37.3959 13.4565C37.064 13.1303 36.6691 12.9643 36.1941 12.9643H29.7617C29.3039 12.9643 28.909 12.7984 28.5714 12.4607C28.2337 12.1231 28.0678 11.7282 28.0678 11.2761C28.0678 10.824 28.2337 10.4062 28.5599 10.0801C28.8918 9.75385 29.2867 9.58789 29.7617 9.58789H36.1884C37.5847 9.58789 38.7751 10.08 39.7651 11.0586C40.7552 12.0372 41.2645 13.239 41.3045 14.6583L41.728 27.3113C41.728 27.7806 41.5621 28.1812 41.2244 28.5074C40.8868 28.8336 40.4919 28.9996 40.0398 28.9996C39.5591 28.9996 39.1471 28.8336 38.8151 28.5074C38.4775 28.1812 38.3115 27.7806 38.3115 27.3113L35.4501 28.9996H29.7274C28.3024 28.9996 27.0949 28.5017 26.0991 27.5116C25.1034 26.5216 24.6055 25.3141 24.6055 23.8891V21.9148C24.6055 20.507 25.1034 19.3052 26.1048 18.3037C27.1063 17.3022 28.3081 16.8043 29.7216 16.8043H29.7274ZM38.1799 23.3855L38.0769 21.9548C38.0655 21.4741 37.8938 21.0678 37.5733 20.7473C37.2528 20.4268 36.8522 20.2666 36.383 20.2666H29.7159C29.2466 20.2666 28.846 20.4326 28.5198 20.7588C28.1937 21.085 28.0277 21.4856 28.0277 21.9548V23.8433C28.0277 24.3012 28.1937 24.696 28.5313 25.028C28.8689 25.3656 29.2638 25.5316 29.7216 25.5316H34.4944L38.1799 23.3798V23.3855Z" fill="black"/>
<path d="M61.1376 29.001H57.7555C56.3591 29.001 55.1573 28.5031 54.1558 27.5131C53.1486 26.523 52.645 25.327 52.645 23.9306V12.9658H50.9167C50.4475 12.9658 50.0469 12.8055 49.7207 12.4851C49.3945 12.1646 49.2285 11.7583 49.2285 11.2775C49.2285 10.7968 49.3945 10.4077 49.7207 10.0815C50.0469 9.75529 50.4475 9.58933 50.9167 9.58933H52.6851V5.44603C52.6851 4.97677 52.851 4.57617 53.1772 4.24997C53.5034 3.92377 53.904 3.75781 54.3733 3.75781C54.8139 3.75781 55.2088 3.92377 55.5522 4.26142C55.8956 4.59906 56.0672 4.99393 56.0672 5.44603V9.58933H62.8659C63.3237 9.58933 63.7186 9.75529 64.0505 10.0929C64.3882 10.4306 64.5541 10.8254 64.5541 11.2775C64.5541 11.7296 64.3882 12.1474 64.0505 12.4736C63.7129 12.7998 63.318 12.9658 62.8659 12.9658H56.0272V23.9306C56.0272 24.3884 56.1989 24.7833 56.5422 25.1152C56.8856 25.4529 57.2919 25.6188 57.7612 25.6188H61.0632C61.9617 25.6188 62.5569 25.1324 62.8545 24.1595C63.152 23.1867 63.7186 22.7002 64.5656 22.7002C65.0635 22.7002 65.4698 22.8662 65.7845 23.1924C66.0993 23.5186 66.2595 23.9363 66.2595 24.4285C66.2595 25.4472 65.7788 26.4658 64.8231 27.4787C63.8617 28.4917 62.6427 28.9953 61.1491 28.9953L61.1376 29.001Z" fill="black"/>
<path d="M73.8591 26.4488L81.2394 1.36558C81.5312 0.45933 82.1519 0 83.0954 0C84.0389 0 84.5789 0.384844 84.8148 1.15454L92.1268 26.6226C92.1827 26.8089 92.2137 26.9951 92.2137 27.1689C92.2137 27.6779 92.0399 28.1124 91.6923 28.4662C91.3447 28.82 90.9413 29 90.4944 29C89.5322 29 88.9239 28.5593 88.6632 27.6655L87.217 22.6873H78.8248L77.2296 28.0193C77.1861 28.2489 76.9999 28.4724 76.6833 28.6834C76.3606 28.8945 76.013 29 75.6281 29C75.0881 29 74.6412 28.82 74.2874 28.4538C73.9336 28.0875 73.7598 27.6468 73.7598 27.1254C73.7598 26.9082 73.797 26.6847 73.8653 26.4488H73.8591ZM83.0706 8.49144L79.9235 18.9878H86.1245L83.0643 8.49144H83.0706Z" fill="#1A2AEA"/>
<path d="M103.136 25.7876V36.5C103.136 36.9807 102.97 37.3928 102.644 37.7247C102.318 38.0623 101.917 38.2283 101.448 38.2283C100.979 38.2283 100.572 38.0623 100.229 37.7247C99.8855 37.387 99.7139 36.9807 99.7139 36.5V9.16869C99.7139 8.71087 99.8798 8.316 100.217 7.98407C100.555 7.65215 100.961 7.48047 101.442 7.48047C101.9 7.48047 102.295 7.64643 102.627 7.98407C102.964 8.32172 103.13 8.71659 103.13 9.16869V10.256C104.767 8.43045 106.381 7.52053 107.978 7.52053H108.762C109.958 7.52053 111.056 7.96118 112.064 8.84822L114.879 11.2804C116.115 12.3563 116.728 13.7126 116.728 15.3665V20.6371C116.728 22.3025 116.064 23.7046 114.736 24.8434L111.978 27.2183C111.068 28.0481 109.912 28.4659 108.516 28.4659H107.772C106.455 28.4659 105.345 28.0081 104.429 27.0982L103.119 25.7876H103.136ZM107.903 25.0437H108.767C109.185 25.0437 109.626 24.8377 110.095 24.4199L112.733 22.1079C113.174 21.7588 113.397 21.2838 113.397 20.6772V15.2234C113.397 14.6855 113.151 14.2105 112.653 13.7927L109.815 11.3605C109.494 11.0801 109.145 10.937 108.767 10.937H107.783C107.405 10.937 106.919 11.2461 106.312 11.8641L103.8 14.3593C103.359 14.7999 103.136 15.2978 103.136 15.8472V20.1736C103.136 20.6944 103.382 21.2094 103.88 21.7016L106.312 24.1338C106.913 24.7347 107.445 25.038 107.903 25.038V25.0437Z" fill="black"/>
<path d="M122.91 2.26367H136.593C137.034 2.26367 137.429 2.42963 137.772 2.76728C138.115 3.10492 138.287 3.49979 138.287 3.95189C138.287 4.40399 138.121 4.82748 137.784 5.17084C137.446 5.51421 137.051 5.6859 136.599 5.6859H131.488V25.6241H136.599C137.068 25.6241 137.469 25.79 137.795 26.1162C138.121 26.4424 138.287 26.843 138.287 27.3123C138.287 27.7816 138.121 28.1821 137.784 28.5083C137.446 28.8345 137.051 29.0005 136.599 29.0005H122.916C122.446 29.0005 122.046 28.8345 121.72 28.5083C121.394 28.1821 121.228 27.7816 121.228 27.3123C121.228 26.843 121.394 26.4424 121.72 26.1162C122.046 25.79 122.446 25.6241 122.916 25.6241H128.106V5.6859H122.916C122.446 5.6859 122.046 5.51993 121.72 5.18229C121.394 4.84465 121.228 4.44977 121.228 3.99767C121.228 3.51696 121.394 3.10492 121.72 2.773C122.046 2.43535 122.446 2.26939 122.916 2.26939L122.91 2.26367Z" fill="#1A2AEA"/>
<path d="M153.36 21.703L147.826 28.2957C147.465 28.7649 147.013 28.9996 146.475 28.9996C145.995 28.9996 145.588 28.8336 145.268 28.496C144.947 28.1583 144.787 27.752 144.787 27.2713C144.787 26.8421 144.896 26.4987 145.108 26.2469L151.185 18.9961L145.571 12.3234C145.314 12.0258 145.188 11.6939 145.188 11.3162C145.188 10.8755 145.342 10.4749 145.657 10.1201C145.972 9.7653 146.378 9.58789 146.87 9.58789C147.431 9.58789 147.889 9.79963 148.238 10.2174L153.337 16.3637L158.579 10.1716C158.899 9.78247 159.306 9.58789 159.787 9.58789C160.216 9.58789 160.605 9.73668 160.954 10.04C161.303 10.3433 161.475 10.7267 161.475 11.196C161.475 11.6653 161.4 11.9686 161.252 12.1403L155.534 19.0133L161.532 26.2412C161.761 26.4987 161.875 26.8135 161.875 27.1912C161.875 27.7062 161.704 28.1354 161.36 28.4788C161.017 28.8222 160.628 28.9938 160.181 28.9938C159.661 28.9938 159.203 28.7592 158.814 28.2899L153.343 21.6973L153.36 21.703Z" fill="black"/>
<path d="M181.324 29.0005H171.103C170.634 29.0005 170.233 28.8288 169.907 28.4855C169.581 28.1421 169.415 27.7358 169.415 27.2665C169.415 26.7972 169.581 26.4138 169.907 26.0819C170.233 25.7442 170.634 25.5783 171.103 25.5783H174.485V5.64011H171.063C170.594 5.64011 170.193 5.47415 169.867 5.14795C169.541 4.82176 169.375 4.42116 169.375 3.95189C169.375 3.48262 169.541 3.08203 169.867 2.75583C170.193 2.42963 170.594 2.26367 171.063 2.26367H176.214C176.672 2.26367 177.066 2.42963 177.398 2.76728C177.73 3.10492 177.902 3.49979 177.902 3.95189V25.5783H181.324C181.782 25.5783 182.177 25.7442 182.509 26.0819C182.841 26.4195 183.012 26.8144 183.012 27.2665C183.012 27.7186 182.846 28.1421 182.52 28.4855C182.188 28.8288 181.793 29.0005 181.324 29.0005Z" fill="black"/>
<line x1="1.75" y1="34.25" x2="97.25" y2="34.25" stroke="black" stroke-width="1.5" stroke-linecap="round" stroke-dasharray="5 5"/>
<path d="M106.75 34.2503L182 34.25" stroke="black" stroke-width="1.5" stroke-linecap="round" stroke-dasharray="5 5"/>
</svg>
